%TF.GenerationSoftware,KiCad,Pcbnew,9.0.2*%
%TF.CreationDate,2025-09-04T16:38:10+03:00*%
%TF.ProjectId,MCU Data Logger,4d435520-4461-4746-9120-4c6f67676572,rev?*%
%TF.SameCoordinates,Original*%
%TF.FileFunction,Copper,L1,Top*%
%TF.FilePolarity,Positive*%
%FSLAX46Y46*%
G04 Gerber Fmt 4.6, Leading zero omitted, Abs format (unit mm)*
G04 Created by KiCad (PCBNEW 9.0.2) date 2025-09-04 16:38:10*
%MOMM*%
%LPD*%
G01*
G04 APERTURE LIST*
G04 Aperture macros list*
%AMRoundRect*
0 Rectangle with rounded corners*
0 $1 Rounding radius*
0 $2 $3 $4 $5 $6 $7 $8 $9 X,Y pos of 4 corners*
0 Add a 4 corners polygon primitive as box body*
4,1,4,$2,$3,$4,$5,$6,$7,$8,$9,$2,$3,0*
0 Add four circle primitives for the rounded corners*
1,1,$1+$1,$2,$3*
1,1,$1+$1,$4,$5*
1,1,$1+$1,$6,$7*
1,1,$1+$1,$8,$9*
0 Add four rect primitives between the rounded corners*
20,1,$1+$1,$2,$3,$4,$5,0*
20,1,$1+$1,$4,$5,$6,$7,0*
20,1,$1+$1,$6,$7,$8,$9,0*
20,1,$1+$1,$8,$9,$2,$3,0*%
G04 Aperture macros list end*
%TA.AperFunction,SMDPad,CuDef*%
%ADD10RoundRect,0.250000X0.262500X0.450000X-0.262500X0.450000X-0.262500X-0.450000X0.262500X-0.450000X0*%
%TD*%
%TA.AperFunction,SMDPad,CuDef*%
%ADD11RoundRect,0.250000X-0.262500X-0.450000X0.262500X-0.450000X0.262500X0.450000X-0.262500X0.450000X0*%
%TD*%
%TA.AperFunction,SMDPad,CuDef*%
%ADD12RoundRect,0.250000X-0.475000X0.250000X-0.475000X-0.250000X0.475000X-0.250000X0.475000X0.250000X0*%
%TD*%
%TA.AperFunction,SMDPad,CuDef*%
%ADD13RoundRect,0.250000X0.250000X0.475000X-0.250000X0.475000X-0.250000X-0.475000X0.250000X-0.475000X0*%
%TD*%
%TA.AperFunction,ComponentPad*%
%ADD14R,1.700000X1.700000*%
%TD*%
%TA.AperFunction,ComponentPad*%
%ADD15C,1.700000*%
%TD*%
%TA.AperFunction,SMDPad,CuDef*%
%ADD16RoundRect,0.250001X0.949999X-1.499999X0.949999X1.499999X-0.949999X1.499999X-0.949999X-1.499999X0*%
%TD*%
%TA.AperFunction,SMDPad,CuDef*%
%ADD17RoundRect,0.150000X-0.825000X-0.150000X0.825000X-0.150000X0.825000X0.150000X-0.825000X0.150000X0*%
%TD*%
%TA.AperFunction,SMDPad,CuDef*%
%ADD18RoundRect,0.068750X-0.666250X-0.206250X0.666250X-0.206250X0.666250X0.206250X-0.666250X0.206250X0*%
%TD*%
%TA.AperFunction,SMDPad,CuDef*%
%ADD19RoundRect,0.068750X-0.206250X-0.666250X0.206250X-0.666250X0.206250X0.666250X-0.206250X0.666250X0*%
%TD*%
%TA.AperFunction,SMDPad,CuDef*%
%ADD20RoundRect,0.243750X-0.243750X-0.456250X0.243750X-0.456250X0.243750X0.456250X-0.243750X0.456250X0*%
%TD*%
%TA.AperFunction,SMDPad,CuDef*%
%ADD21RoundRect,0.250000X-0.250000X-0.475000X0.250000X-0.475000X0.250000X0.475000X-0.250000X0.475000X0*%
%TD*%
%TA.AperFunction,SMDPad,CuDef*%
%ADD22RoundRect,0.250001X1.499999X0.949999X-1.499999X0.949999X-1.499999X-0.949999X1.499999X-0.949999X0*%
%TD*%
%TA.AperFunction,SMDPad,CuDef*%
%ADD23RoundRect,0.243750X-0.456250X0.243750X-0.456250X-0.243750X0.456250X-0.243750X0.456250X0.243750X0*%
%TD*%
%TA.AperFunction,SMDPad,CuDef*%
%ADD24RoundRect,0.073750X-0.911250X-0.221250X0.911250X-0.221250X0.911250X0.221250X-0.911250X0.221250X0*%
%TD*%
%TA.AperFunction,SMDPad,CuDef*%
%ADD25RoundRect,0.250000X0.450000X-0.262500X0.450000X0.262500X-0.450000X0.262500X-0.450000X-0.262500X0*%
%TD*%
%TA.AperFunction,ViaPad*%
%ADD26C,0.900000*%
%TD*%
%TA.AperFunction,ViaPad*%
%ADD27C,0.800000*%
%TD*%
%TA.AperFunction,Conductor*%
%ADD28C,0.350000*%
%TD*%
%TA.AperFunction,Conductor*%
%ADD29C,0.250000*%
%TD*%
G04 APERTURE END LIST*
D10*
%TO.P,R5,1*%
%TO.N,/VCC*%
X135635500Y-57150000D03*
%TO.P,R5,2*%
%TO.N,Net-(U4-~{INTA})*%
X133810500Y-57150000D03*
%TD*%
D11*
%TO.P,R1,1*%
%TO.N,/VCC*%
X144375500Y-34645600D03*
%TO.P,R1,2*%
%TO.N,/RESET*%
X146200500Y-34645600D03*
%TD*%
D12*
%TO.P,C5,1*%
%TO.N,/VCC*%
X133908800Y-43754001D03*
%TO.P,C5,2*%
%TO.N,GND*%
X133908800Y-45653999D03*
%TD*%
D13*
%TO.P,C1,1*%
%TO.N,GND*%
X144905499Y-57150000D03*
%TO.P,C1,2*%
%TO.N,/VCC*%
X143005501Y-57150000D03*
%TD*%
D14*
%TO.P,ICSP,1,Pin_1*%
%TO.N,/MISO*%
X162555000Y-37693600D03*
D15*
%TO.P,ICSP,2,Pin_2*%
%TO.N,/VCC*%
X165095000Y-37693600D03*
%TO.P,ICSP,3,Pin_3*%
%TO.N,/SCL*%
X162555000Y-40233600D03*
%TO.P,ICSP,4,Pin_4*%
%TO.N,/MOSI*%
X165095000Y-40233600D03*
%TO.P,ICSP,5,Pin_5*%
%TO.N,/RESET*%
X162555000Y-42773600D03*
%TO.P,ICSP,6,Pin_6*%
%TO.N,GND*%
X165095000Y-42773600D03*
%TD*%
D10*
%TO.P,R4,1*%
%TO.N,/VCC*%
X140251800Y-57150000D03*
%TO.P,R4,2*%
%TO.N,Net-(U4-SQW{slash}~INT)*%
X138426800Y-57150000D03*
%TD*%
D16*
%TO.P,Y2,1,1*%
%TO.N,Net-(U4-X2)*%
X129667000Y-55838401D03*
%TO.P,Y2,2,2*%
%TO.N,Net-(U4-X1)*%
X129667000Y-50638399D03*
%TD*%
D17*
%TO.P,U1,1,A0*%
%TO.N,/VCC*%
X136920200Y-42281100D03*
%TO.P,U1,2,A1*%
X136920200Y-43551100D03*
%TO.P,U1,3,A2*%
X136920200Y-44821100D03*
%TO.P,U1,4,GND*%
%TO.N,GND*%
X136920200Y-46091100D03*
%TO.P,U1,5,SDA*%
%TO.N,/SDA*%
X141870200Y-46091100D03*
%TO.P,U1,6,SCL*%
%TO.N,/SCL*%
X141870200Y-44821100D03*
%TO.P,U1,7,WP*%
%TO.N,GND*%
X141870200Y-43551100D03*
%TO.P,U1,8,VCC*%
%TO.N,/VCC*%
X141870200Y-42281100D03*
%TD*%
%TO.P,U2,1,A0*%
%TO.N,/VCC*%
X136793200Y-34614600D03*
%TO.P,U2,2,A1*%
%TO.N,GND*%
X136793200Y-35884600D03*
%TO.P,U2,3,A2*%
%TO.N,/VCC*%
X136793200Y-37154600D03*
%TO.P,U2,4,GND*%
%TO.N,GND*%
X136793200Y-38424600D03*
%TO.P,U2,5,SDA*%
%TO.N,/SDA*%
X141743200Y-38424600D03*
%TO.P,U2,6,SCL*%
%TO.N,/SCL*%
X141743200Y-37154600D03*
%TO.P,U2,7,WP*%
%TO.N,GND*%
X141743200Y-35884600D03*
%TO.P,U2,8,VCC*%
%TO.N,/VCC*%
X141743200Y-34614600D03*
%TD*%
D18*
%TO.P,U3,1,PD3*%
%TO.N,/D3*%
X145563000Y-40950000D03*
%TO.P,U3,2,PD4*%
%TO.N,/D4*%
X145563000Y-41750000D03*
%TO.P,U3,3,GND*%
%TO.N,GND*%
X145563000Y-42550000D03*
%TO.P,U3,4,VCC*%
%TO.N,/VCC*%
X145563000Y-43350000D03*
%TO.P,U3,5,GND*%
%TO.N,GND*%
X145563000Y-44150000D03*
%TO.P,U3,6,VCC*%
%TO.N,/VCC*%
X145563000Y-44950000D03*
%TO.P,U3,7,XTAL1/PB6*%
%TO.N,Net-(U3-XTAL1{slash}PB6)*%
X145563000Y-45750000D03*
%TO.P,U3,8,XTAL2/PB7*%
%TO.N,Net-(U3-XTAL2{slash}PB7)*%
X145563000Y-46550000D03*
D19*
%TO.P,U3,9,PD5*%
%TO.N,/D5*%
X146933000Y-47920000D03*
%TO.P,U3,10,PD6*%
%TO.N,/D6*%
X147733000Y-47920000D03*
%TO.P,U3,11,PD7*%
%TO.N,/D7*%
X148533000Y-47920000D03*
%TO.P,U3,12,PB0*%
%TO.N,/D8*%
X149333000Y-47920000D03*
%TO.P,U3,13,PB1*%
%TO.N,unconnected-(U3-PB1-Pad13)*%
X150133000Y-47920000D03*
%TO.P,U3,14,PB2*%
%TO.N,unconnected-(U3-PB2-Pad14)*%
X150933000Y-47920000D03*
%TO.P,U3,15,PB3*%
%TO.N,/MOSI*%
X151733000Y-47920000D03*
%TO.P,U3,16,PB4*%
%TO.N,/MISO*%
X152533000Y-47920000D03*
D18*
%TO.P,U3,17,PB5*%
%TO.N,/SCL*%
X153903000Y-46550000D03*
%TO.P,U3,18,AVCC*%
%TO.N,/VCC*%
X153903000Y-45750000D03*
%TO.P,U3,19,ADC6*%
%TO.N,unconnected-(U3-ADC6-Pad19)*%
X153903000Y-44950000D03*
%TO.P,U3,20,AREF*%
%TO.N,Net-(U3-AREF)*%
X153903000Y-44150000D03*
%TO.P,U3,21,GND*%
%TO.N,GND*%
X153903000Y-43350000D03*
%TO.P,U3,22,ADC7*%
%TO.N,unconnected-(U3-ADC7-Pad22)*%
X153903000Y-42550000D03*
%TO.P,U3,23,PC0*%
%TO.N,unconnected-(U3-PC0-Pad23)*%
X153903000Y-41750000D03*
%TO.P,U3,24,PC1*%
%TO.N,unconnected-(U3-PC1-Pad24)*%
X153903000Y-40950000D03*
D19*
%TO.P,U3,25,PC2*%
%TO.N,unconnected-(U3-PC2-Pad25)*%
X152533000Y-39580000D03*
%TO.P,U3,26,PC3*%
%TO.N,unconnected-(U3-PC3-Pad26)*%
X151733000Y-39580000D03*
%TO.P,U3,27,PC4*%
%TO.N,/SDA*%
X150933000Y-39580000D03*
%TO.P,U3,28,PC5*%
%TO.N,/SCL*%
X150133000Y-39580000D03*
%TO.P,U3,29,~{RESET}/PC6*%
%TO.N,/RESET*%
X149333000Y-39580000D03*
%TO.P,U3,30,PD0*%
%TO.N,/RX*%
X148533000Y-39580000D03*
%TO.P,U3,31,PD1*%
%TO.N,/TX*%
X147733000Y-39580000D03*
%TO.P,U3,32,PD2*%
%TO.N,/D2*%
X146933000Y-39580000D03*
%TD*%
D14*
%TO.P,UART,1,Pin_1*%
%TO.N,GND*%
X163957000Y-61204000D03*
D15*
%TO.P,UART,2,Pin_2*%
%TO.N,/VCC*%
X161417000Y-61204000D03*
%TO.P,UART,3,Pin_3*%
%TO.N,/RX*%
X158877001Y-61204000D03*
%TO.P,UART,4,Pin_4*%
%TO.N,/TX*%
X156337000Y-61204000D03*
%TD*%
D20*
%TO.P,D1,1,K*%
%TO.N,Net-(D1-K)*%
X157090499Y-34713000D03*
%TO.P,D1,2,A*%
%TO.N,/SCL*%
X158965501Y-34713000D03*
%TD*%
D14*
%TO.P,I2C,1,Pin_1*%
%TO.N,GND*%
X164896800Y-55778400D03*
D15*
%TO.P,I2C,2,Pin_2*%
%TO.N,/VCC*%
X164896800Y-53238400D03*
%TO.P,I2C,3,Pin_3*%
%TO.N,/SDA*%
X164896800Y-50698401D03*
%TO.P,I2C,4,Pin_4*%
%TO.N,/SCL*%
X164896800Y-48158400D03*
%TD*%
D21*
%TO.P,C3,1*%
%TO.N,GND*%
X152238001Y-57150000D03*
%TO.P,C3,2*%
%TO.N,Net-(U3-XTAL2{slash}PB7)*%
X154137999Y-57150000D03*
%TD*%
D14*
%TO.P,DIO,1,Pin_1*%
%TO.N,/D2*%
X131191000Y-61149000D03*
D15*
%TO.P,DIO,2,Pin_2*%
%TO.N,/D3*%
X133731000Y-61149000D03*
%TO.P,DIO,3,Pin_3*%
%TO.N,/D4*%
X136270999Y-61149000D03*
%TO.P,DIO,4,Pin_4*%
%TO.N,/D5*%
X138811000Y-61149000D03*
%TO.P,DIO,5,Pin_5*%
%TO.N,/D6*%
X141351000Y-61149000D03*
%TO.P,DIO,6,Pin_6*%
%TO.N,/D7*%
X143891000Y-61149000D03*
%TO.P,DIO,7,Pin_7*%
%TO.N,/D8*%
X146431000Y-61149000D03*
%TO.P,DIO,8,Pin_8*%
%TO.N,GND*%
X148971001Y-61149000D03*
%TO.P,DIO,9,Pin_9*%
%TO.N,/VCC*%
X151511000Y-61149000D03*
%TD*%
D21*
%TO.P,C4,1*%
%TO.N,Net-(U3-AREF)*%
X157058001Y-40995600D03*
%TO.P,C4,2*%
%TO.N,GND*%
X158957999Y-40995600D03*
%TD*%
D11*
%TO.P,R3,1*%
%TO.N,/VCC*%
X152249500Y-34668000D03*
%TO.P,R3,2*%
%TO.N,/SDA*%
X154074500Y-34668000D03*
%TD*%
D22*
%TO.P,Y1,1,1*%
%TO.N,Net-(U3-XTAL2{slash}PB7)*%
X152815601Y-52425600D03*
%TO.P,Y1,2,2*%
%TO.N,Net-(U3-XTAL1{slash}PB6)*%
X147615599Y-52425600D03*
%TD*%
D11*
%TO.P,R7,1*%
%TO.N,GND*%
X157075500Y-37947600D03*
%TO.P,R7,2*%
%TO.N,Net-(D1-K)*%
X158900500Y-37947600D03*
%TD*%
D10*
%TO.P,R2,1*%
%TO.N,/VCC*%
X150162900Y-34645600D03*
%TO.P,R2,2*%
%TO.N,/SCL*%
X148337900Y-34645600D03*
%TD*%
D23*
%TO.P,D2,1,K*%
%TO.N,Net-(D2-K)*%
X128739800Y-37162499D03*
%TO.P,D2,2,A*%
%TO.N,/VCC*%
X128739800Y-39037501D03*
%TD*%
D24*
%TO.P,U4,1,X1*%
%TO.N,Net-(U4-X1)*%
X136920200Y-50012600D03*
%TO.P,U4,2,X2*%
%TO.N,Net-(U4-X2)*%
X136920200Y-51282600D03*
%TO.P,U4,3,~{INTA}*%
%TO.N,Net-(U4-~{INTA})*%
X136920200Y-52552600D03*
%TO.P,U4,4,GND*%
%TO.N,GND*%
X136920200Y-53822600D03*
%TO.P,U4,5,SDA*%
%TO.N,/SDA*%
X141870200Y-53822600D03*
%TO.P,U4,6,SCL*%
%TO.N,/SCL*%
X141870200Y-52552600D03*
%TO.P,U4,7,SQW/~INT*%
%TO.N,Net-(U4-SQW{slash}~INT)*%
X141870200Y-51282600D03*
%TO.P,U4,8,VCC*%
%TO.N,/VCC*%
X141870200Y-50012600D03*
%TD*%
D14*
%TO.P,VCC,1,+*%
%TO.N,/VCC*%
X129463800Y-42906800D03*
D15*
%TO.P,VCC,2,-*%
%TO.N,GND*%
X129463800Y-45446800D03*
%TD*%
D21*
%TO.P,C2,1*%
%TO.N,GND*%
X147621801Y-57150000D03*
%TO.P,C2,2*%
%TO.N,Net-(U3-XTAL1{slash}PB6)*%
X149521799Y-57150000D03*
%TD*%
D25*
%TO.P,R6,1*%
%TO.N,GND*%
X131876800Y-39012500D03*
%TO.P,R6,2*%
%TO.N,Net-(D2-K)*%
X131876800Y-37187500D03*
%TD*%
D26*
%TO.N,/VCC*%
X151892000Y-44729400D03*
X149556781Y-35791853D03*
X140296400Y-42951400D03*
X148869400Y-44602400D03*
X138163800Y-42951400D03*
X144375500Y-34645600D03*
%TO.N,GND*%
X144035100Y-43889900D03*
X143586200Y-55067200D03*
X138607800Y-46075600D03*
X152071700Y-43265600D03*
X155709700Y-37892700D03*
X138494000Y-54000400D03*
X140296400Y-44119800D03*
X148250700Y-43534700D03*
X160578400Y-41735400D03*
X140048900Y-36026000D03*
X140144000Y-53569275D03*
X161925000Y-45389800D03*
X138516400Y-38692100D03*
X130308300Y-39053600D03*
X152472700Y-54610600D03*
D27*
%TO.N,/SCL*%
X150133000Y-37185600D03*
%TO.N,/SDA*%
X143230600Y-38424600D03*
X153035000Y-33451800D03*
X164929000Y-34951400D03*
%TO.N,/RX*%
X151616900Y-41816900D03*
%TO.N,/TX*%
X152071700Y-46205000D03*
%TO.N,/D6*%
X146427400Y-49614300D03*
%TO.N,/D2*%
X141871700Y-39775200D03*
%TO.N,/D4*%
X143535400Y-41675000D03*
%TO.N,/D7*%
X148075800Y-49614300D03*
%TO.N,/D8*%
X148475800Y-45843700D03*
%TO.N,/D5*%
X145633300Y-47507600D03*
%TO.N,/D3*%
X141587200Y-41255100D03*
%TO.N,/RESET*%
X157448500Y-42370500D03*
X149387900Y-37990800D03*
%TO.N,/MISO*%
X157976500Y-47241500D03*
%TD*%
D28*
%TO.N,/VCC*%
X150162900Y-35185734D02*
X149556781Y-35791853D01*
X153903000Y-45750000D02*
X152912600Y-45750000D01*
X148830088Y-44563088D02*
X146724000Y-44563088D01*
X148869400Y-44602400D02*
X148830088Y-44563088D01*
X150162900Y-34645600D02*
X150162900Y-35185734D01*
X138163800Y-42951400D02*
X137519900Y-42951400D01*
X141870200Y-42281100D02*
X140966700Y-42281100D01*
X137519900Y-42951400D02*
X136920200Y-43551100D01*
X146337088Y-44950000D02*
X146724000Y-44563088D01*
X145563000Y-44950000D02*
X146337088Y-44950000D01*
X146724000Y-43736912D02*
X146337088Y-43350000D01*
X146337088Y-43350000D02*
X145563000Y-43350000D01*
X152912600Y-45750000D02*
X151892000Y-44729400D01*
X140966700Y-42281100D02*
X140296400Y-42951400D01*
X143965151Y-42581099D02*
X142170199Y-42581099D01*
X144734052Y-43350000D02*
X143965151Y-42581099D01*
X142170199Y-42581099D02*
X141870200Y-42281100D01*
X145563000Y-43350000D02*
X144734052Y-43350000D01*
X146724000Y-44563088D02*
X146724000Y-43736912D01*
%TO.N,GND*%
X140048900Y-36026000D02*
X136934600Y-36026000D01*
X144905500Y-57150000D02*
X147621800Y-57150000D01*
X153818600Y-43265600D02*
X153903000Y-43350000D01*
X138516400Y-38692100D02*
X137060700Y-38692100D01*
X157075500Y-39113101D02*
X158957999Y-40995600D01*
X155709700Y-37892700D02*
X157020600Y-37892700D01*
X152071700Y-43265600D02*
X153818600Y-43265600D01*
X141273502Y-55067200D02*
X143586200Y-55067200D01*
X136934600Y-36026000D02*
X136793200Y-35884600D01*
X133908800Y-45654000D02*
X136483100Y-45654000D01*
X147266000Y-42550000D02*
X145563000Y-42550000D01*
X147621801Y-59799800D02*
X148971001Y-61149000D01*
X147621801Y-57150000D02*
X147621801Y-59799800D01*
X137940500Y-46075600D02*
X137925000Y-46091100D01*
X165095000Y-42773600D02*
X162478800Y-45389800D01*
X152238000Y-54845300D02*
X152238000Y-57150000D01*
X144035100Y-43889900D02*
X144295200Y-44150000D01*
X162478800Y-45389800D02*
X161925000Y-45389800D01*
X144035100Y-43889900D02*
X142209000Y-43889900D01*
X141743200Y-35884600D02*
X141601800Y-36026000D01*
X138316200Y-53822600D02*
X138494000Y-54000400D01*
X140487670Y-44119800D02*
X141056370Y-43551100D01*
X152472700Y-54610600D02*
X152238000Y-54845300D01*
X136920200Y-53822600D02*
X138316200Y-53822600D01*
X142209000Y-43889900D02*
X141870200Y-43551100D01*
X140144000Y-53937698D02*
X141273502Y-55067200D01*
X157020600Y-37892700D02*
X157075500Y-37947600D01*
X144295200Y-44150000D02*
X145563000Y-44150000D01*
X158958000Y-40995600D02*
X159697800Y-41735400D01*
X140144000Y-53569275D02*
X140144000Y-53937698D01*
X138607800Y-46075600D02*
X137940500Y-46075600D01*
X131835700Y-39053600D02*
X131876800Y-39012500D01*
X137060700Y-38692100D02*
X136793200Y-38424600D01*
X147621801Y-57150000D02*
X145539001Y-55067200D01*
X137925000Y-46091100D02*
X136920200Y-46091100D01*
X148250700Y-43534700D02*
X147266000Y-42550000D01*
X159697800Y-41735400D02*
X160578400Y-41735400D01*
X136483100Y-45654000D02*
X136920200Y-46091100D01*
X130308300Y-39053600D02*
X131835700Y-39053600D01*
X141601800Y-36026000D02*
X140048900Y-36026000D01*
X145539001Y-55067200D02*
X143586200Y-55067200D01*
X140296400Y-44119800D02*
X140487670Y-44119800D01*
X157075500Y-37947600D02*
X157075500Y-39113101D01*
X141056370Y-43551100D02*
X141870200Y-43551100D01*
D29*
%TO.N,Net-(U3-XTAL1{slash}PB6)*%
X144848700Y-45750000D02*
X145563000Y-45750000D01*
X144402300Y-49328800D02*
X144402300Y-46196400D01*
X149521800Y-54331800D02*
X147615600Y-52425600D01*
X144402300Y-46196400D02*
X144848700Y-45750000D01*
X147615600Y-52425600D02*
X147499100Y-52425600D01*
X147499100Y-52425600D02*
X144402300Y-49328800D01*
X149521800Y-57150000D02*
X149521800Y-54331800D01*
%TO.N,Net-(U3-XTAL2{slash}PB7)*%
X144898300Y-49162400D02*
X144898300Y-47214700D01*
X154138000Y-57150000D02*
X154138000Y-53748000D01*
X144898300Y-47214700D02*
X145563000Y-46550000D01*
X154138000Y-53748000D02*
X152815600Y-52425600D01*
X150863400Y-50473400D02*
X146209300Y-50473400D01*
X146209300Y-50473400D02*
X144898300Y-49162400D01*
X152815600Y-52425600D02*
X150863400Y-50473400D01*
%TO.N,Net-(U3-AREF)*%
X157058000Y-40995600D02*
X157058000Y-41711400D01*
X154619400Y-44150000D02*
X153903000Y-44150000D01*
X157058000Y-41711400D02*
X154619400Y-44150000D01*
%TO.N,/SCL*%
X145362000Y-35333600D02*
X145362000Y-33950086D01*
X143383000Y-46953100D02*
X143176500Y-46746600D01*
X148337900Y-35739700D02*
X148337900Y-34645600D01*
X149275800Y-36677600D02*
X149625000Y-36677600D01*
X147311900Y-33619600D02*
X148337900Y-34645600D01*
X163253200Y-46514800D02*
X153938200Y-46514800D01*
X142636500Y-44821100D02*
X141870200Y-44821100D01*
X145692486Y-33619600D02*
X147311900Y-33619600D01*
X164896800Y-48158400D02*
X163253200Y-46514800D01*
X145362000Y-33950086D02*
X145692486Y-33619600D01*
X143176500Y-46746600D02*
X140446941Y-46746600D01*
X160039000Y-35786500D02*
X158965500Y-34713000D01*
X143433800Y-45618400D02*
X142636500Y-44821100D01*
X149625000Y-36677600D02*
X150133000Y-37185600D01*
X141323400Y-37154600D02*
X141743200Y-37154600D01*
X143541000Y-37154600D02*
X145362000Y-35333600D01*
X143176500Y-46746600D02*
X143433800Y-46489300D01*
X142367600Y-52552600D02*
X143383000Y-51537200D01*
X153938200Y-46514800D02*
X153903000Y-46550000D01*
X140446941Y-46746600D02*
X138988800Y-45288459D01*
X149275800Y-36677600D02*
X148337900Y-35739700D01*
X143433800Y-46489300D02*
X143433800Y-45618400D01*
X150133000Y-39580000D02*
X150133000Y-37185600D01*
X138988800Y-39489200D02*
X141323400Y-37154600D01*
X138988800Y-45288459D02*
X138988800Y-39489200D01*
X160039000Y-37717600D02*
X160039000Y-35786500D01*
X141870200Y-52552600D02*
X142367600Y-52552600D01*
X162555000Y-40233600D02*
X160039000Y-37717600D01*
X141743200Y-37154600D02*
X143541000Y-37154600D01*
X143383000Y-51537200D02*
X143383000Y-46953100D01*
%TO.N,Net-(D1-K)*%
X157090500Y-36137600D02*
X158900500Y-37947600D01*
X157090500Y-34713000D02*
X157090500Y-36137600D01*
%TO.N,Net-(D2-K)*%
X131851800Y-37162500D02*
X131876800Y-37187500D01*
X128739800Y-37162500D02*
X131851800Y-37162500D01*
%TO.N,/SDA*%
X139471400Y-44907200D02*
X139471400Y-39878000D01*
X150933000Y-39580000D02*
X150933000Y-37812500D01*
X149065500Y-58278200D02*
X155716800Y-58278200D01*
X143230600Y-38424600D02*
X141743200Y-38424600D01*
X164929000Y-34951400D02*
X163650500Y-33672900D01*
X146076900Y-53982900D02*
X148596800Y-56502800D01*
X163296600Y-50698400D02*
X164896800Y-50698400D01*
X163650500Y-33672900D02*
X155069600Y-33672900D01*
X148596800Y-56502800D02*
X148596800Y-57809500D01*
X140924800Y-38424600D02*
X141743200Y-38424600D01*
X148596800Y-57809500D02*
X149065500Y-58278200D01*
X155069600Y-33672900D02*
X154074500Y-34668000D01*
X142030500Y-53982900D02*
X146076900Y-53982900D01*
X141870200Y-53822600D02*
X142030500Y-53982900D01*
X154074500Y-34671000D02*
X154074500Y-34668000D01*
X141870200Y-46091100D02*
X140655300Y-46091100D01*
X150933000Y-37812500D02*
X154074500Y-34671000D01*
X140655300Y-46091100D02*
X139471400Y-44907200D01*
X153035000Y-33628500D02*
X154074500Y-34668000D01*
X153035000Y-33451800D02*
X153035000Y-33628500D01*
X155716800Y-58278200D02*
X163296600Y-50698400D01*
X139471400Y-39878000D02*
X140924800Y-38424600D01*
%TO.N,/RX*%
X148533000Y-40241800D02*
X148533000Y-39580000D01*
X150108100Y-41816900D02*
X148533000Y-40241800D01*
X151616900Y-41816900D02*
X150108100Y-41816900D01*
%TO.N,/TX*%
X152071700Y-46205000D02*
X152071700Y-46186600D01*
X147733000Y-41847900D02*
X147733000Y-39580000D01*
X152071700Y-46186600D02*
X147733000Y-41847900D01*
%TO.N,/D6*%
X147733000Y-47920000D02*
X147733000Y-48594000D01*
X147733000Y-48594000D02*
X146712700Y-49614300D01*
X146712700Y-49614300D02*
X146427400Y-49614300D01*
%TO.N,/D2*%
X146933000Y-39580000D02*
X146737800Y-39775200D01*
X146737800Y-39775200D02*
X141871700Y-39775200D01*
%TO.N,/D4*%
X143535400Y-41675000D02*
X145488000Y-41675000D01*
X145488000Y-41675000D02*
X145563000Y-41750000D01*
%TO.N,/D7*%
X148075800Y-49614300D02*
X148533000Y-49157100D01*
X148533000Y-49157100D02*
X148533000Y-47920000D01*
%TO.N,/D8*%
X149333000Y-46700900D02*
X148475800Y-45843700D01*
X149333000Y-47920000D02*
X149333000Y-46700900D01*
%TO.N,/D5*%
X145633300Y-47507600D02*
X146520600Y-47507600D01*
X146520600Y-47507600D02*
X146933000Y-47920000D01*
%TO.N,/D3*%
X141587200Y-41255100D02*
X141892300Y-40950000D01*
X141892300Y-40950000D02*
X145563000Y-40950000D01*
%TO.N,/MOSI*%
X151733000Y-48602500D02*
X152507500Y-49377000D01*
X151733000Y-47920000D02*
X151733000Y-48602500D01*
X166345200Y-48407700D02*
X166345200Y-41483800D01*
X152507500Y-49377000D02*
X165375900Y-49377000D01*
X166345200Y-41483800D02*
X165095000Y-40233600D01*
X165375900Y-49377000D02*
X166345200Y-48407700D01*
%TO.N,/RESET*%
X157851600Y-42773600D02*
X157448500Y-42370500D01*
X149333000Y-37990800D02*
X149333000Y-37778100D01*
X149333000Y-39580000D02*
X149333000Y-37990800D01*
X149333000Y-37778100D02*
X146200500Y-34645600D01*
X149387900Y-37990800D02*
X149333000Y-37990800D01*
X162555000Y-42773600D02*
X157851600Y-42773600D01*
%TO.N,/MISO*%
X152533000Y-47920000D02*
X157298000Y-47920000D01*
X157298000Y-47920000D02*
X157976500Y-47241500D01*
%TO.N,Net-(U4-SQW{slash}~INT)*%
X141173200Y-51282600D02*
X139319000Y-53136800D01*
X139319000Y-53136800D02*
X139319000Y-56257800D01*
X139319000Y-56257800D02*
X138426800Y-57150000D01*
X141870200Y-51282600D02*
X141173200Y-51282600D01*
%TO.N,Net-(U4-~{INTA})*%
X133810500Y-55127400D02*
X136385300Y-52552600D01*
X133810500Y-57150000D02*
X133810500Y-55127400D01*
X136385300Y-52552600D02*
X136920200Y-52552600D01*
%TO.N,Net-(U4-X2)*%
X136920200Y-51282600D02*
X134222800Y-51282600D01*
X134222800Y-51282600D02*
X129667000Y-55838400D01*
%TO.N,Net-(U4-X1)*%
X129667000Y-50638400D02*
X136294400Y-50638400D01*
X136294400Y-50638400D02*
X136920200Y-50012600D01*
%TD*%
%TA.AperFunction,Conductor*%
%TO.N,/VCC*%
G36*
X144945130Y-33183098D02*
G01*
X145012151Y-33202831D01*
X145057867Y-33255668D01*
X145067760Y-33324834D01*
X145038688Y-33388368D01*
X145032717Y-33394778D01*
X144963270Y-33464225D01*
X144963267Y-33464228D01*
X144919703Y-33507791D01*
X144876140Y-33551354D01*
X144860904Y-33574158D01*
X144858579Y-33577638D01*
X144807688Y-33653800D01*
X144807686Y-33653803D01*
X144807685Y-33653805D01*
X144782559Y-33714466D01*
X144782560Y-33714467D01*
X144772340Y-33739141D01*
X144760536Y-33767636D01*
X144760535Y-33767642D01*
X144738515Y-33878348D01*
X144736500Y-33888478D01*
X144736500Y-35023148D01*
X144716815Y-35090187D01*
X144700181Y-35110829D01*
X143363121Y-36447888D01*
X143301798Y-36481373D01*
X143232106Y-36476389D01*
X143176173Y-36434517D01*
X143151756Y-36369053D01*
X143166608Y-36300780D01*
X143168690Y-36297117D01*
X143169944Y-36294998D01*
X143204953Y-36174499D01*
X143215797Y-36137173D01*
X143215798Y-36137167D01*
X143218699Y-36100301D01*
X143218700Y-36100294D01*
X143218700Y-35668906D01*
X143215798Y-35632031D01*
X143215693Y-35631671D01*
X143182036Y-35515824D01*
X143169944Y-35474202D01*
X143086281Y-35332735D01*
X143086279Y-35332733D01*
X143086276Y-35332729D01*
X142970070Y-35216523D01*
X142970062Y-35216517D01*
X142828596Y-35132855D01*
X142828593Y-35132854D01*
X142670773Y-35087002D01*
X142670767Y-35087001D01*
X142633901Y-35084100D01*
X142633894Y-35084100D01*
X140852506Y-35084100D01*
X140852498Y-35084100D01*
X140815632Y-35087001D01*
X140815626Y-35087002D01*
X140657805Y-35132854D01*
X140595234Y-35169857D01*
X140527509Y-35187037D01*
X140484663Y-35177684D01*
X140326155Y-35112028D01*
X140326143Y-35112025D01*
X140142520Y-35075500D01*
X140142516Y-35075500D01*
X139955284Y-35075500D01*
X139955279Y-35075500D01*
X139771656Y-35112025D01*
X139771648Y-35112027D01*
X139598671Y-35183676D01*
X139598662Y-35183681D01*
X139442992Y-35287697D01*
X139442988Y-35287700D01*
X139416508Y-35314181D01*
X139355185Y-35347666D01*
X139328827Y-35350500D01*
X138205409Y-35350500D01*
X138138370Y-35330815D01*
X138117728Y-35314181D01*
X138020070Y-35216523D01*
X138020062Y-35216517D01*
X137878596Y-35132855D01*
X137878593Y-35132854D01*
X137720773Y-35087002D01*
X137720767Y-35087001D01*
X137683901Y-35084100D01*
X137683894Y-35084100D01*
X135902506Y-35084100D01*
X135902498Y-35084100D01*
X135865632Y-35087001D01*
X135865626Y-35087002D01*
X135707806Y-35132854D01*
X135707803Y-35132855D01*
X135566337Y-35216517D01*
X135566329Y-35216523D01*
X135450123Y-35332729D01*
X135450117Y-35332737D01*
X135366455Y-35474203D01*
X135366454Y-35474206D01*
X135320602Y-35632026D01*
X135320601Y-35632032D01*
X135317700Y-35668898D01*
X135317700Y-36100301D01*
X135320601Y-36137167D01*
X135320602Y-36137173D01*
X135366454Y-36294993D01*
X135366455Y-36294996D01*
X135366456Y-36294998D01*
X135393550Y-36340811D01*
X135450117Y-36436462D01*
X135450123Y-36436470D01*
X135566329Y-36552676D01*
X135566333Y-36552679D01*
X135566335Y-36552681D01*
X135707802Y-36636344D01*
X135749424Y-36648436D01*
X135865626Y-36682197D01*
X135865629Y-36682197D01*
X135865631Y-36682198D01*
X135902506Y-36685100D01*
X136773409Y-36685100D01*
X136797599Y-36687482D01*
X136868067Y-36701499D01*
X136868068Y-36701500D01*
X136868069Y-36701500D01*
X137001131Y-36701500D01*
X139328827Y-36701500D01*
X139395866Y-36721185D01*
X139416508Y-36737819D01*
X139442988Y-36764299D01*
X139442992Y-36764302D01*
X139598662Y-36868318D01*
X139598671Y-36868323D01*
X139614786Y-36874998D01*
X139771649Y-36939973D01*
X139955279Y-36976499D01*
X139955283Y-36976500D01*
X140143700Y-36976500D01*
X140210739Y-36996185D01*
X140256494Y-37048989D01*
X140267700Y-37100500D01*
X140267700Y-37274347D01*
X140248015Y-37341386D01*
X140231381Y-37362028D01*
X139462685Y-38130723D01*
X139401362Y-38164208D01*
X139331670Y-38159224D01*
X139275737Y-38117352D01*
X139271902Y-38111933D01*
X139254702Y-38086192D01*
X139254699Y-38086188D01*
X139122311Y-37953800D01*
X139122307Y-37953797D01*
X138966637Y-37849781D01*
X138966628Y-37849776D01*
X138793651Y-37778127D01*
X138793643Y-37778125D01*
X138610020Y-37741600D01*
X138610016Y-37741600D01*
X138422784Y-37741600D01*
X138422779Y-37741600D01*
X138239156Y-37778124D01*
X138239152Y-37778126D01*
X138239150Y-37778126D01*
X138239149Y-37778127D01*
X138203578Y-37792861D01*
X138176058Y-37804260D01*
X138106589Y-37811728D01*
X138044110Y-37780452D01*
X138040926Y-37777379D01*
X138020070Y-37756523D01*
X138020062Y-37756517D01*
X137931787Y-37704312D01*
X137878598Y-37672856D01*
X137878597Y-37672855D01*
X137878596Y-37672855D01*
X137878593Y-37672854D01*
X137720773Y-37627002D01*
X137720767Y-37627001D01*
X137683901Y-37624100D01*
X137683894Y-37624100D01*
X135902506Y-37624100D01*
X135902498Y-37624100D01*
X135865632Y-37627001D01*
X135865626Y-37627002D01*
X135707806Y-37672854D01*
X135707803Y-37672855D01*
X135566337Y-37756517D01*
X135566329Y-37756523D01*
X135450123Y-37872729D01*
X135450117Y-37872737D01*
X135366455Y-38014203D01*
X135366454Y-38014206D01*
X135320602Y-38172026D01*
X135320601Y-38172032D01*
X135317700Y-38208898D01*
X135317700Y-38640301D01*
X135320601Y-38677167D01*
X135320602Y-38677173D01*
X135366454Y-38834993D01*
X135366455Y-38834996D01*
X135366456Y-38834998D01*
X135390959Y-38876431D01*
X135450117Y-38976462D01*
X135450123Y-38976470D01*
X135566329Y-39092676D01*
X135566333Y-39092679D01*
X135566335Y-39092681D01*
X135707802Y-39176344D01*
X135719133Y-39179636D01*
X135865626Y-39222197D01*
X135865629Y-39222197D01*
X135865631Y-39222198D01*
X135902506Y-39225100D01*
X136604909Y-39225100D01*
X136671948Y-39244785D01*
X136673764Y-39245974D01*
X136740731Y-39290720D01*
X136863664Y-39341640D01*
X136863668Y-39341640D01*
X136863669Y-39341641D01*
X136994166Y-39367600D01*
X136994169Y-39367600D01*
X137127231Y-39367600D01*
X137796327Y-39367600D01*
X137863366Y-39387285D01*
X137884008Y-39403919D01*
X137910488Y-39430399D01*
X137910492Y-39430402D01*
X138066162Y-39534418D01*
X138066168Y-39534421D01*
X138066169Y-39534422D01*
X138239149Y-39606073D01*
X138263491Y-39610914D01*
X138325402Y-39643299D01*
X138359976Y-39704015D01*
X138363300Y-39732532D01*
X138363300Y-45065207D01*
X138343615Y-45132246D01*
X138290811Y-45178001D01*
X138286753Y-45179768D01*
X138157571Y-45233276D01*
X138157564Y-45233280D01*
X138048890Y-45305894D01*
X137982213Y-45326771D01*
X137945406Y-45321868D01*
X137847767Y-45293501D01*
X137810901Y-45290600D01*
X137810894Y-45290600D01*
X137126363Y-45290600D01*
X137059324Y-45270915D01*
X137038686Y-45254285D01*
X136913706Y-45129305D01*
X136913705Y-45129304D01*
X136913704Y-45129303D01*
X136803075Y-45055383D01*
X136803065Y-45055378D01*
X136680136Y-45004459D01*
X136680128Y-45004457D01*
X136549635Y-44978500D01*
X136549631Y-44978500D01*
X135070669Y-44978500D01*
X135003630Y-44958815D01*
X134982452Y-44939616D01*
X134981619Y-44940450D01*
X134852457Y-44811288D01*
X134852456Y-44811287D01*
X134759688Y-44754068D01*
X134703136Y-44719186D01*
X134703131Y-44719184D01*
X134664645Y-44706431D01*
X134536597Y-44664000D01*
X134536595Y-44663999D01*
X134433810Y-44653499D01*
X133383798Y-44653499D01*
X133383780Y-44653500D01*
X133281003Y-44663999D01*
X133281000Y-44664000D01*
X133114468Y-44719184D01*
X133114463Y-44719186D01*
X132965142Y-44811288D01*
X132841089Y-44935341D01*
X132748987Y-45084662D01*
X132748986Y-45084665D01*
X132693801Y-45251202D01*
X132693801Y-45251203D01*
X132693800Y-45251203D01*
X132683300Y-45353982D01*
X132683300Y-45954000D01*
X132683301Y-45954018D01*
X132693800Y-46056795D01*
X132693801Y-46056798D01*
X132731542Y-46170690D01*
X132748986Y-46223333D01*
X132841088Y-46372655D01*
X132965144Y-46496711D01*
X133114466Y-46588813D01*
X133281003Y-46643998D01*
X133383791Y-46654499D01*
X134433808Y-46654498D01*
X134433816Y-46654497D01*
X134433819Y-46654497D01*
X134526817Y-46644997D01*
X134536597Y-46643998D01*
X134703134Y-46588813D01*
X134852456Y-46496711D01*
X134976512Y-46372655D01*
X134976512Y-46372654D01*
X134981619Y-46367548D01*
X134983506Y-46369435D01*
X135030416Y-46336215D01*
X135070667Y-46329500D01*
X135350384Y-46329500D01*
X135417423Y-46349185D01*
X135463178Y-46401989D01*
X135469460Y-46418905D01*
X135493454Y-46501493D01*
X135493455Y-46501496D01*
X135577117Y-46642962D01*
X135577123Y-46642970D01*
X135693329Y-46759176D01*
X135693333Y-46759179D01*
X135693335Y-46759181D01*
X135834802Y-46842844D01*
X135862658Y-46850937D01*
X135992626Y-46888697D01*
X135992629Y-46888697D01*
X135992631Y-46888698D01*
X136029506Y-46891600D01*
X136029514Y-46891600D01*
X137810886Y-46891600D01*
X137810894Y-46891600D01*
X137847769Y-46888698D01*
X137977741Y-46850937D01*
X138047608Y-46851136D01*
X138081223Y-46866909D01*
X138157569Y-46917922D01*
X138330549Y-46989573D01*
X138514179Y-47026099D01*
X138514183Y-47026100D01*
X138514184Y-47026100D01*
X138701417Y-47026100D01*
X138701418Y-47026099D01*
X138885051Y-46989573D01*
X139058031Y-46917922D01*
X139213708Y-46813902D01*
X139334002Y-46693607D01*
X139395321Y-46660125D01*
X139465013Y-46665109D01*
X139509361Y-46693610D01*
X139957957Y-47142206D01*
X139957986Y-47142237D01*
X140048204Y-47232455D01*
X140048208Y-47232458D01*
X140113833Y-47276307D01*
X140150656Y-47300912D01*
X140212190Y-47326400D01*
X140264489Y-47348063D01*
X140277405Y-47350632D01*
X140283416Y-47351828D01*
X140283429Y-47351830D01*
X140283443Y-47351833D01*
X140385332Y-47372099D01*
X140385333Y-47372100D01*
X140385334Y-47372100D01*
X140385335Y-47372100D01*
X142633500Y-47372100D01*
X142700539Y-47391785D01*
X142746294Y-47444589D01*
X142757500Y-47496100D01*
X142757500Y-50363100D01*
X142737815Y-50430139D01*
X142685011Y-50475894D01*
X142633500Y-50487100D01*
X140921311Y-50487100D01*
X140809048Y-50501879D01*
X140809037Y-50501882D01*
X140669349Y-50559742D01*
X140549390Y-50651790D01*
X140457342Y-50771749D01*
X140399482Y-50911437D01*
X140399481Y-50911441D01*
X140384700Y-51023705D01*
X140384700Y-51135147D01*
X140365015Y-51202186D01*
X140348381Y-51222828D01*
X138833144Y-52738064D01*
X138833138Y-52738072D01*
X138764690Y-52840508D01*
X138764688Y-52840513D01*
X138744647Y-52888898D01*
X138744647Y-52888899D01*
X138717537Y-52954347D01*
X138715768Y-52960180D01*
X138713559Y-52959510D01*
X138685915Y-53012322D01*
X138625190Y-53046879D01*
X138593708Y-53048986D01*
X138593708Y-53049900D01*
X138515707Y-53049900D01*
X138448668Y-53030215D01*
X138402913Y-52977411D01*
X138392768Y-52909714D01*
X138395508Y-52888899D01*
X138405700Y-52811487D01*
X138405699Y-52293714D01*
X138405367Y-52291195D01*
X138390920Y-52181448D01*
X138390919Y-52181447D01*
X138390919Y-52181441D01*
X138364701Y-52118145D01*
X138333056Y-52041746D01*
X138295718Y-51993087D01*
X138270523Y-51927918D01*
X138284561Y-51859473D01*
X138295718Y-51842113D01*
X138333056Y-51793453D01*
X138363625Y-51719652D01*
X138390919Y-51653759D01*
X138405700Y-51541487D01*
X138405699Y-51023714D01*
X138404504Y-51014640D01*
X138390920Y-50911448D01*
X138390919Y-50911447D01*
X138390919Y-50911441D01*
X138340943Y-50790787D01*
X138333056Y-50771746D01*
X138295718Y-50723087D01*
X138270523Y-50657918D01*
X138284561Y-50589473D01*
X138295718Y-50572113D01*
X138333056Y-50523453D01*
X138348114Y-50487100D01*
X138390919Y-50383759D01*
X138405700Y-50271487D01*
X138405699Y-49922439D01*
X139748500Y-49922439D01*
X139867394Y-49922439D01*
X139872728Y-49917443D01*
X139909647Y-49885066D01*
X139915919Y-49879918D01*
X140087732Y-49748081D01*
X140094330Y-49743354D01*
X140135166Y-49716069D01*
X140142057Y-49711784D01*
X140198661Y-49679105D01*
X140205815Y-49675281D01*
X140249850Y-49653565D01*
X140257242Y-49650216D01*
X140457310Y-49567346D01*
X140464902Y-49564488D01*
X140485858Y-49557373D01*
X140517754Y-49494777D01*
X140540557Y-49463392D01*
X140630992Y-49372957D01*
X140662378Y-49350153D01*
X140776334Y-49292089D01*
X140813231Y-49280101D01*
X140907774Y-49265127D01*
X140927172Y-49263600D01*
X141250500Y-49263600D01*
X141250500Y-48420439D01*
X139748500Y-48420439D01*
X139748500Y-49922439D01*
X138405699Y-49922439D01*
X138405699Y-49753714D01*
X138404957Y-49748081D01*
X138390920Y-49641448D01*
X138390919Y-49641447D01*
X138390919Y-49641441D01*
X138336019Y-49508900D01*
X138333057Y-49501749D01*
X138333056Y-49501748D01*
X138333056Y-49501747D01*
X138241010Y-49381790D01*
X138121053Y-49289744D01*
X138121052Y-49289743D01*
X138121050Y-49289742D01*
X137981362Y-49231882D01*
X137981360Y-49231881D01*
X137981359Y-49231881D01*
X137869087Y-49217100D01*
X135971311Y-49217100D01*
X135859048Y-49231879D01*
X135859037Y-49231882D01*
X135719349Y-49289742D01*
X135599390Y-49381790D01*
X135507342Y-49501749D01*
X135449482Y-49641437D01*
X135449481Y-49641441D01*
X135434700Y-49753705D01*
X135434700Y-49753711D01*
X135434700Y-49753713D01*
X135434700Y-49883111D01*
X135434701Y-49888899D01*
X135415017Y-49955939D01*
X135362213Y-50001694D01*
X135310701Y-50012900D01*
X131491500Y-50012900D01*
X131424461Y-49993215D01*
X131378706Y-49940411D01*
X131367500Y-49888900D01*
X131367500Y-49088396D01*
X131367499Y-49088383D01*
X131366697Y-49080536D01*
X131356999Y-48985602D01*
X131301814Y-48819065D01*
X131300102Y-48816290D01*
X131209713Y-48669747D01*
X131209710Y-48669743D01*
X131085655Y-48545688D01*
X131085651Y-48545685D01*
X131016713Y-48503163D01*
X132248500Y-48503163D01*
X132312905Y-48697525D01*
X132314856Y-48703999D01*
X132325587Y-48743472D01*
X132327182Y-48750040D01*
X132338584Y-48803291D01*
X132339819Y-48809942D01*
X132346193Y-48850371D01*
X132347064Y-48857080D01*
X132361624Y-48999605D01*
X132361905Y-49002750D01*
X132362834Y-49014900D01*
X133750500Y-49014900D01*
X133750500Y-48420439D01*
X132248500Y-48420439D01*
X132248500Y-48503163D01*
X131016713Y-48503163D01*
X130936337Y-48453586D01*
X130936335Y-48453585D01*
X130832887Y-48419306D01*
X130769797Y-48398400D01*
X130769795Y-48398399D01*
X130667015Y-48387899D01*
X130667008Y-48387899D01*
X128666992Y-48387899D01*
X128666984Y-48387899D01*
X128564204Y-48398399D01*
X128564203Y-48398400D01*
X128397664Y-48453585D01*
X128397662Y-48453586D01*
X128248348Y-48545685D01*
X128248344Y-48545688D01*
X128124289Y-48669743D01*
X128124286Y-48669747D01*
X128032187Y-48819061D01*
X128032186Y-48819063D01*
X127977001Y-48985602D01*
X127977000Y-48985603D01*
X127966500Y-49088383D01*
X127966500Y-52188414D01*
X127977000Y-52291194D01*
X127977001Y-52291196D01*
X128004593Y-52374464D01*
X128032186Y-52457734D01*
X128032187Y-52457736D01*
X128124286Y-52607050D01*
X128124289Y-52607054D01*
X128248344Y-52731109D01*
X128248348Y-52731112D01*
X128397662Y-52823211D01*
X128397664Y-52823212D01*
X128397666Y-52823213D01*
X128564203Y-52878398D01*
X128666992Y-52888899D01*
X128666997Y-52888899D01*
X130667003Y-52888899D01*
X130667008Y-52888899D01*
X130769797Y-52878398D01*
X130936334Y-52823213D01*
X131085655Y-52731110D01*
X131209711Y-52607054D01*
X131301814Y-52457733D01*
X131356999Y-52291196D01*
X131367500Y-52188407D01*
X131367500Y-51387900D01*
X131387185Y-51320861D01*
X131439989Y-51275106D01*
X131491500Y-51263900D01*
X133057548Y-51263900D01*
X133124587Y-51283585D01*
X133170342Y-51336389D01*
X133180286Y-51405547D01*
X133151261Y-51469103D01*
X133145229Y-51475581D01*
X131013617Y-53607191D01*
X130952294Y-53640676D01*
X130886933Y-53637216D01*
X130769799Y-53598402D01*
X130769795Y-53598401D01*
X130667015Y-53587901D01*
X130667008Y-53587901D01*
X128666992Y-53587901D01*
X128666984Y-53587901D01*
X128564204Y-53598401D01*
X128564203Y-53598402D01*
X128397664Y-53653587D01*
X128397662Y-53653588D01*
X128248348Y-53745687D01*
X128248344Y-53745690D01*
X128124289Y-53869745D01*
X128124286Y-53869749D01*
X128032187Y-54019063D01*
X128032186Y-54019065D01*
X127977001Y-54185604D01*
X127977000Y-54185605D01*
X127966500Y-54288385D01*
X127966500Y-57388416D01*
X127977000Y-57491196D01*
X127977001Y-57491197D01*
X128032186Y-57657736D01*
X128032187Y-57657738D01*
X128124286Y-57807052D01*
X128124289Y-57807056D01*
X128248344Y-57931111D01*
X128248348Y-57931114D01*
X128397662Y-58023213D01*
X128397664Y-58023214D01*
X128397666Y-58023215D01*
X128564203Y-58078400D01*
X128666992Y-58088901D01*
X128666997Y-58088901D01*
X130667003Y-58088901D01*
X130667008Y-58088901D01*
X130769797Y-58078400D01*
X130936334Y-58023215D01*
X131085655Y-57931112D01*
X131209711Y-57807056D01*
X131301814Y-57657735D01*
X131356999Y-57491198D01*
X131367500Y-57388409D01*
X131367500Y-55073852D01*
X131387185Y-55006813D01*
X131403819Y-54986171D01*
X134445571Y-51944419D01*
X134506894Y-51910934D01*
X134533252Y-51908100D01*
X135377123Y-51908100D01*
X135444162Y-51927785D01*
X135489917Y-51980589D01*
X135499861Y-52049747D01*
X135491684Y-52079552D01*
X135449482Y-52181437D01*
X135449481Y-52181441D01*
X135434700Y-52293705D01*
X135434700Y-52567247D01*
X135415015Y-52634286D01*
X135398381Y-52654928D01*
X133411770Y-54641539D01*
X133411767Y-54641542D01*
X133377752Y-54675557D01*
X133324642Y-54728666D01*
X133291747Y-54777898D01*
X133291746Y-54777900D01*
X133256187Y-54831114D01*
X133256185Y-54831118D01*
X133231064Y-54891767D01*
X133231065Y-54891768D01*
X133209036Y-54944949D01*
X133209035Y-54944955D01*
X133185000Y-55065789D01*
X133185000Y-55972911D01*
X133165315Y-56039950D01*
X133126098Y-56078449D01*
X133079344Y-56107287D01*
X132955289Y-56231342D01*
X132863187Y-56380663D01*
X132863186Y-56380666D01*
X132808001Y-56547203D01*
X132808001Y-56547204D01*
X132808000Y-56547204D01*
X132797500Y-56649983D01*
X132797500Y-57650001D01*
X132797501Y-57650019D01*
X132808000Y-57752796D01*
X132808001Y-57752799D01*
X132856113Y-57897989D01*
X132863186Y-57919334D01*
X132955288Y-58068656D01*
X133079344Y-58192712D01*
X133228666Y-58284814D01*
X133395203Y-58339999D01*
X133497991Y-58350500D01*
X134123008Y-58350499D01*
X134123016Y-58350498D01*
X134123019Y-58350498D01*
X134179302Y-58344748D01*
X134225797Y-58339999D01*
X134392334Y-58284814D01*
X134541656Y-58192712D01*
X134665712Y-58068656D01*
X134757814Y-57919334D01*
X134812999Y-57752797D01*
X134823500Y-57650009D01*
X134823499Y-56649992D01*
X134812999Y-56547203D01*
X134757814Y-56380666D01*
X134665712Y-56231344D01*
X134541656Y-56107288D01*
X134541655Y-56107287D01*
X134494902Y-56078449D01*
X134448178Y-56026500D01*
X134436000Y-55972911D01*
X134436000Y-55437851D01*
X134455685Y-55370812D01*
X134472314Y-55350174D01*
X135399415Y-54423073D01*
X135460736Y-54389590D01*
X135530427Y-54394574D01*
X135585468Y-54435267D01*
X135599390Y-54453410D01*
X135719347Y-54545456D01*
X135719348Y-54545456D01*
X135719349Y-54545457D01*
X135757043Y-54561070D01*
X135859041Y-54603319D01*
X135971313Y-54618100D01*
X137716126Y-54618099D01*
X137783165Y-54637784D01*
X137803807Y-54654418D01*
X137888088Y-54738699D01*
X137888092Y-54738702D01*
X138043762Y-54842718D01*
X138043768Y-54842721D01*
X138043769Y-54842722D01*
X138216749Y-54914373D01*
X138400379Y-54950899D01*
X138400383Y-54950900D01*
X138569500Y-54950900D01*
X138636539Y-54970585D01*
X138682294Y-55023389D01*
X138693500Y-55074900D01*
X138693500Y-55825500D01*
X138673815Y-55892539D01*
X138621011Y-55938294D01*
X138569500Y-55949500D01*
X138114298Y-55949500D01*
X138114280Y-55949501D01*
X138011503Y-55960000D01*
X138011500Y-55960001D01*
X137844968Y-56015185D01*
X137844963Y-56015187D01*
X137695642Y-56107289D01*
X137571589Y-56231342D01*
X137479487Y-56380663D01*
X137479486Y-56380666D01*
X137424301Y-56547203D01*
X137424301Y-56547204D01*
X137424300Y-56547204D01*
X137413800Y-56649983D01*
X137413800Y-57650001D01*
X137413801Y-57650019D01*
X137424300Y-57752796D01*
X137424301Y-57752799D01*
X137472413Y-57897989D01*
X137479486Y-57919334D01*
X137571588Y-58068656D01*
X137695644Y-58192712D01*
X137844966Y-58284814D01*
X138011503Y-58339999D01*
X138114291Y-58350500D01*
X138739308Y-58350499D01*
X138739316Y-58350498D01*
X138739319Y-58350498D01*
X138795602Y-58344748D01*
X138842097Y-58339999D01*
X139008634Y-58284814D01*
X139157956Y-58192712D01*
X139282012Y-58068656D01*
X139374114Y-57919334D01*
X139429299Y-57752797D01*
X139439800Y-57650009D01*
X139439799Y-57072952D01*
X139459483Y-57005914D01*
X139476113Y-56985276D01*
X139804857Y-56656534D01*
X139809229Y-56649992D01*
X139873311Y-56554086D01*
X139920463Y-56440252D01*
X139932316Y-56380663D01*
X139943536Y-56324256D01*
X139943538Y-56324256D01*
X139943538Y-56324240D01*
X139944500Y-56319407D01*
X139944500Y-56196194D01*
X139944500Y-54992861D01*
X139964185Y-54925822D01*
X140016989Y-54880067D01*
X140086147Y-54870123D01*
X140149703Y-54899148D01*
X140156181Y-54905180D01*
X140842892Y-55591892D01*
X140842900Y-55591898D01*
X140953522Y-55665813D01*
X140953525Y-55665814D01*
X140953533Y-55665820D01*
X141076466Y-55716740D01*
X141076470Y-55716740D01*
X141076471Y-55716741D01*
X141206968Y-55742700D01*
X141206971Y-55742700D01*
X141340033Y-55742700D01*
X142866127Y-55742700D01*
X142933166Y-55762385D01*
X142953808Y-55779019D01*
X142980288Y-55805499D01*
X142980292Y-55805502D01*
X143135962Y-55909518D01*
X143135968Y-55909521D01*
X143135969Y-55909522D01*
X143308949Y-55981173D01*
X143449907Y-56009211D01*
X143492579Y-56017699D01*
X143492583Y-56017700D01*
X143492584Y-56017700D01*
X143679817Y-56017700D01*
X143679818Y-56017699D01*
X143863451Y-55981173D01*
X144012195Y-55919560D01*
X144081662Y-55912092D01*
X144144141Y-55943367D01*
X144179794Y-56003455D01*
X144177301Y-56073281D01*
X144147328Y-56121803D01*
X144062786Y-56206345D01*
X143970686Y-56355663D01*
X143970685Y-56355666D01*
X143915500Y-56522203D01*
X143915500Y-56522204D01*
X143915499Y-56522204D01*
X143904999Y-56624983D01*
X143904999Y-57675001D01*
X143905000Y-57675019D01*
X143915499Y-57777796D01*
X143915500Y-57777799D01*
X143962400Y-57919331D01*
X143970685Y-57944334D01*
X144062787Y-58093656D01*
X144186843Y-58217712D01*
X144336165Y-58309814D01*
X144502702Y-58364999D01*
X144605490Y-58375500D01*
X145205507Y-58375499D01*
X145205515Y-58375498D01*
X145205518Y-58375498D01*
X145261801Y-58369748D01*
X145308296Y-58364999D01*
X145474833Y-58309814D01*
X145624155Y-58217712D01*
X145748211Y-58093656D01*
X145840313Y-57944334D01*
X145851527Y-57910494D01*
X145891300Y-57853050D01*
X145955816Y-57826228D01*
X145969232Y-57825500D01*
X146558068Y-57825500D01*
X146625107Y-57845185D01*
X146670862Y-57897989D01*
X146675773Y-57910494D01*
X146682606Y-57931114D01*
X146686987Y-57944334D01*
X146776155Y-58088900D01*
X146779090Y-58093657D01*
X146908252Y-58222819D01*
X146906360Y-58224710D01*
X146939575Y-58271583D01*
X146946301Y-58311867D01*
X146946301Y-59725760D01*
X146926616Y-59792799D01*
X146873812Y-59838554D01*
X146804654Y-59848498D01*
X146783985Y-59843692D01*
X146768171Y-59838554D01*
X146747243Y-59831754D01*
X146747239Y-59831753D01*
X146747238Y-59831753D01*
X146628028Y-59812872D01*
X146537287Y-59798500D01*
X146324713Y-59798500D01*
X146276042Y-59806208D01*
X146114760Y-59831753D01*
X145912585Y-59897444D01*
X145723179Y-59993951D01*
X145551213Y-60118890D01*
X145400890Y-60269213D01*
X145275949Y-60441182D01*
X145271484Y-60449946D01*
X145223509Y-60500742D01*
X145155688Y-60517536D01*
X145089553Y-60494998D01*
X145050516Y-60449946D01*
X145046050Y-60441182D01*
X144921109Y-60269213D01*
X144770786Y-60118890D01*
X144598820Y-59993951D01*
X144409414Y-59897444D01*
X144409413Y-59897443D01*
X144409412Y-59897443D01*
X144207243Y-59831754D01*
X144207241Y-59831753D01*
X144207240Y-59831753D01*
X144045957Y-59806208D01*
X143997287Y-59798500D01*
X143784713Y-59798500D01*
X143736042Y-59806208D01*
X143574760Y-59831753D01*
X143372585Y-59897444D01*
X143183179Y-59993951D01*
X143011213Y-60118890D01*
X142860890Y-60269213D01*
X142735949Y-60441182D01*
X142731484Y-60449946D01*
X142683509Y-60500742D01*
X142615688Y-60517536D01*
X142549553Y-60494998D01*
X142510516Y-60449946D01*
X142506050Y-60441182D01*
X142381109Y-60269213D01*
X142230786Y-60118890D01*
X142058820Y-59993951D01*
X141869414Y-59897444D01*
X141869413Y-59897443D01*
X141869412Y-59897443D01*
X141667243Y-59831754D01*
X141667241Y-59831753D01*
X141667240Y-59831753D01*
X141505957Y-59806208D01*
X141457287Y-59798500D01*
X141244713Y-59798500D01*
X141196042Y-59806208D01*
X141034760Y-59831753D01*
X140832585Y-59897444D01*
X140643179Y-59993951D01*
X140471213Y-60118890D01*
X140320890Y-60269213D01*
X140195949Y-60441182D01*
X140191484Y-60449946D01*
X140143509Y-60500742D01*
X140075688Y-60517536D01*
X140009553Y-60494998D01*
X139970516Y-60449946D01*
X139966050Y-60441182D01*
X139841109Y-60269213D01*
X139690786Y-60118890D01*
X139518820Y-59993951D01*
X139329414Y-59897444D01*
X139329413Y-59897443D01*
X139329412Y-59897443D01*
X139127243Y-59831754D01*
X139127241Y-59831753D01*
X139127240Y-59831753D01*
X138965957Y-59806208D01*
X138917287Y-59798500D01*
X138704713Y-59798500D01*
X138656042Y-59806208D01*
X138494760Y-59831753D01*
X138292585Y-59897444D01*
X138103179Y-59993951D01*
X137931213Y-60118890D01*
X137780890Y-60269213D01*
X137655948Y-60441184D01*
X137655946Y-60441187D01*
X137651481Y-60449950D01*
X137603505Y-60500744D01*
X137535683Y-60517537D01*
X137469549Y-60494997D01*
X137430513Y-60449944D01*
X137430512Y-60449942D01*
X137426050Y-60441184D01*
X137426048Y-60441181D01*
X137426047Y-60441179D01*
X137301108Y-60269213D01*
X137150785Y-60118890D01*
X136978819Y-59993951D01*
X136789413Y-59897444D01*
X136789412Y-59897443D01*
X136789411Y-59897443D01*
X136587242Y-59831754D01*
X136587240Y-59831753D01*
X136587239Y-59831753D01*
X136425956Y-59806208D01*
X136377286Y-59798500D01*
X136164712Y-59798500D01*
X136116041Y-59806208D01*
X135954759Y-59831753D01*
X135752584Y-59897444D01*
X135563178Y-59993951D01*
X135391212Y-60118890D01*
X135240889Y-60269213D01*
X135115947Y-60441183D01*
X135111481Y-60449949D01*
X135063505Y-60500742D01*
X134995683Y-60517535D01*
X134929549Y-60494995D01*
X134890513Y-60449942D01*
X134886051Y-60441184D01*
X134886049Y-60441181D01*
X134886048Y-60441179D01*
X134761109Y-60269213D01*
X134610786Y-60118890D01*
X134438820Y-59993951D01*
X134249414Y-59897444D01*
X134249413Y-59897443D01*
X134249412Y-59897443D01*
X134047243Y-59831754D01*
X134047241Y-59831753D01*
X134047240Y-59831753D01*
X133885957Y-59806208D01*
X133837287Y-59798500D01*
X133624713Y-59798500D01*
X133576042Y-59806208D01*
X133414760Y-59831753D01*
X133212585Y-59897444D01*
X133023179Y-59993951D01*
X132851215Y-60118889D01*
X132737673Y-60232431D01*
X132676350Y-60265915D01*
X132606658Y-60260931D01*
X132550725Y-60219059D01*
X132533810Y-60188082D01*
X132484797Y-60056671D01*
X132484793Y-60056664D01*
X132398547Y-59941455D01*
X132398544Y-59941452D01*
X132283335Y-59855206D01*
X132283328Y-59855202D01*
X132148482Y-59804908D01*
X132148483Y-59804908D01*
X132088883Y-59798501D01*
X132088881Y-59798500D01*
X132088873Y-59798500D01*
X132088864Y-59798500D01*
X130293129Y-59798500D01*
X130293123Y-59798501D01*
X130233516Y-59804908D01*
X130098671Y-59855202D01*
X130098664Y-59855206D01*
X129983455Y-59941452D01*
X129983452Y-59941455D01*
X129897206Y-60056664D01*
X129897202Y-60056671D01*
X129846908Y-60191517D01*
X129840501Y-60251116D01*
X129840500Y-60251135D01*
X129840500Y-62046870D01*
X129840501Y-62046876D01*
X129846908Y-62106483D01*
X129897202Y-62241328D01*
X129897206Y-62241335D01*
X129983452Y-62356544D01*
X129983455Y-62356547D01*
X130098664Y-62442793D01*
X130098671Y-62442797D01*
X130233517Y-62493091D01*
X130233516Y-62493091D01*
X130240444Y-62493835D01*
X130293127Y-62499500D01*
X132088872Y-62499499D01*
X132148483Y-62493091D01*
X132283331Y-62442796D01*
X132398546Y-62356546D01*
X132484796Y-62241331D01*
X132533810Y-62109916D01*
X132575681Y-62053984D01*
X132641145Y-62029566D01*
X132709418Y-62044417D01*
X132737673Y-62065569D01*
X132851213Y-62179109D01*
X133023179Y-62304048D01*
X133023181Y-62304049D01*
X133023184Y-62304051D01*
X133212588Y-62400557D01*
X133414757Y-62466246D01*
X133624713Y-62499500D01*
X133624714Y-62499500D01*
X133837286Y-62499500D01*
X133837287Y-62499500D01*
X134047243Y-62466246D01*
X134249412Y-62400557D01*
X134438816Y-62304051D01*
X134525138Y-62241335D01*
X134610786Y-62179109D01*
X134610788Y-62179106D01*
X134610792Y-62179104D01*
X134761104Y-62028792D01*
X134761106Y-62028788D01*
X134761109Y-62028786D01*
X134886048Y-61856820D01*
X134886050Y-61856817D01*
X134886051Y-61856816D01*
X134890512Y-61848058D01*
X134938483Y-61797262D01*
X135006303Y-61780464D01*
X135072440Y-61802998D01*
X135111483Y-61848054D01*
X135115948Y-61856817D01*
X135240889Y-62028786D01*
X135391212Y-62179109D01*
X135563178Y-62304048D01*
X135563180Y-62304049D01*
X135563183Y-62304051D01*
X135752587Y-62400557D01*
X135954756Y-62466246D01*
X136164712Y-62499500D01*
X136164713Y-62499500D01*
X136377285Y-62499500D01*
X136377286Y-62499500D01*
X136587242Y-62466246D01*
X136789411Y-62400557D01*
X136978815Y-62304051D01*
X137065137Y-62241335D01*
X137150785Y-62179109D01*
X137150787Y-62179106D01*
X137150791Y-62179104D01*
X137301103Y-62028792D01*
X137301105Y-62028788D01*
X137301108Y-62028786D01*
X137426047Y-61856821D01*
X137428371Y-61852260D01*
X137430512Y-61848056D01*
X137478483Y-61797260D01*
X137546303Y-61780462D01*
X137612439Y-61802996D01*
X137651483Y-61848052D01*
X137655949Y-61856817D01*
X137780890Y-62028786D01*
X137931213Y-62179109D01*
X138103179Y-62304048D01*
X138103181Y-62304049D01*
X138103184Y-62304051D01*
X138292588Y-62400557D01*
X138494757Y-62466246D01*
X138704713Y-62499500D01*
X138704714Y-62499500D01*
X138917286Y-62499500D01*
X138917287Y-62499500D01*
X139127243Y-62466246D01*
X139329412Y-62400557D01*
X139518816Y-62304051D01*
X139605138Y-62241335D01*
X139690786Y-62179109D01*
X139690788Y-62179106D01*
X139690792Y-62179104D01*
X139841104Y-62028792D01*
X139841106Y-62028788D01*
X139841109Y-62028786D01*
X139966048Y-61856820D01*
X139966050Y-61856817D01*
X139966051Y-61856816D01*
X139970514Y-61848054D01*
X140018488Y-61797259D01*
X140086308Y-61780463D01*
X140152444Y-61802999D01*
X140191484Y-61848054D01*
X140193628Y-61852260D01*
X140195951Y-61856820D01*
X140320890Y-62028786D01*
X140471213Y-62179109D01*
X140643179Y-62304048D01*
X140643181Y-62304049D01*
X140643184Y-62304051D01*
X140832588Y-62400557D01*
X141034757Y-62466246D01*
X141244713Y-62499500D01*
X141244714Y-62499500D01*
X141457286Y-62499500D01*
X141457287Y-62499500D01*
X141667243Y-62466246D01*
X141869412Y-62400557D01*
X142058816Y-62304051D01*
X142145138Y-62241335D01*
X142230786Y-62179109D01*
X142230788Y-62179106D01*
X142230792Y-62179104D01*
X142381104Y-62028792D01*
X142381106Y-62028788D01*
X142381109Y-62028786D01*
X142506048Y-61856820D01*
X142506050Y-61856817D01*
X142506051Y-61856816D01*
X142510514Y-61848054D01*
X142558488Y-61797259D01*
X142626308Y-61780463D01*
X142692444Y-61802999D01*
X142731484Y-61848054D01*
X142733628Y-61852260D01*
X142735951Y-61856820D01*
X142860890Y-62028786D01*
X143011213Y-62179109D01*
X143183179Y-62304048D01*
X143183181Y-62304049D01*
X143183184Y-62304051D01*
X143372588Y-62400557D01*
X143574757Y-62466246D01*
X143784713Y-62499500D01*
X143784714Y-62499500D01*
X143997286Y-62499500D01*
X143997287Y-62499500D01*
X144207243Y-62466246D01*
X144409412Y-62400557D01*
X144598816Y-62304051D01*
X144685138Y-62241335D01*
X144770786Y-62179109D01*
X144770788Y-62179106D01*
X144770792Y-62179104D01*
X144921104Y-62028792D01*
X144921106Y-62028788D01*
X144921109Y-62028786D01*
X145046048Y-61856820D01*
X145046050Y-61856817D01*
X145046051Y-61856816D01*
X145050514Y-61848054D01*
X145098488Y-61797259D01*
X145166308Y-61780463D01*
X145232444Y-61802999D01*
X145271484Y-61848054D01*
X145273628Y-61852260D01*
X145275951Y-61856820D01*
X145400890Y-62028786D01*
X145551213Y-62179109D01*
X145723179Y-62304048D01*
X145723181Y-62304049D01*
X145723184Y-62304051D01*
X145912588Y-62400557D01*
X146114757Y-62466246D01*
X146324713Y-62499500D01*
X146324714Y-62499500D01*
X146537286Y-62499500D01*
X146537287Y-62499500D01*
X146747243Y-62466246D01*
X146949412Y-62400557D01*
X147138816Y-62304051D01*
X147225138Y-62241335D01*
X147310786Y-62179109D01*
X147310788Y-62179106D01*
X147310792Y-62179104D01*
X147461104Y-62028792D01*
X147461106Y-62028788D01*
X147461109Y-62028786D01*
X147586048Y-61856821D01*
X147588372Y-61852260D01*
X147590513Y-61848056D01*
X147638484Y-61797260D01*
X147706304Y-61780462D01*
X147772440Y-61802996D01*
X147811484Y-61848052D01*
X147815950Y-61856817D01*
X147940891Y-62028786D01*
X148091214Y-62179109D01*
X148263180Y-62304048D01*
X148263182Y-62304049D01*
X148263185Y-62304051D01*
X148452589Y-62400557D01*
X148654758Y-62466246D01*
X148864714Y-62499500D01*
X148864715Y-62499500D01*
X149077287Y-62499500D01*
X149077288Y-62499500D01*
X149287244Y-62466246D01*
X149489413Y-62400557D01*
X149678817Y-62304051D01*
X149765139Y-62241335D01*
X149850787Y-62179109D01*
X149850789Y-62179106D01*
X149850793Y-62179104D01*
X149872873Y-62157024D01*
X152248500Y-62157024D01*
X152248500Y-62293137D01*
X153750500Y-62290985D01*
X153750500Y-61097713D01*
X154986500Y-61097713D01*
X154986500Y-61310286D01*
X155005751Y-61431836D01*
X155019754Y-61520243D01*
X155069617Y-61673706D01*
X155085444Y-61722414D01*
X155181951Y-61911820D01*
X155306890Y-62083786D01*
X155457213Y-62234109D01*
X155629179Y-62359048D01*
X155629181Y-62359049D01*
X155629184Y-62359051D01*
X155818588Y-62455557D01*
X156020757Y-62521246D01*
X156230713Y-62554500D01*
X156230714Y-62554500D01*
X156443286Y-62554500D01*
X156443287Y-62554500D01*
X156653243Y-62521246D01*
X156855412Y-62455557D01*
X157044816Y-62359051D01*
X157131138Y-62296335D01*
X157216786Y-62234109D01*
X157216788Y-62234106D01*
X157216792Y-62234104D01*
X157367104Y-62083792D01*
X157367106Y-62083788D01*
X157367109Y-62083786D01*
X157492048Y-61911821D01*
X157492051Y-61911816D01*
X157496513Y-61903056D01*
X157544484Y-61852260D01*
X157612304Y-61835462D01*
X157678440Y-61857996D01*
X157717484Y-61903052D01*
X157721950Y-61911817D01*
X157846891Y-62083786D01*
X157997214Y-62234109D01*
X158169180Y-62359048D01*
X158169182Y-62359049D01*
X158169185Y-62359051D01*
X158358589Y-62455557D01*
X158560758Y-62521246D01*
X158770714Y-62554500D01*
X158770715Y-62554500D01*
X158983287Y-62554500D01*
X158983288Y-62554500D01*
X159193244Y-62521246D01*
X159395413Y-62455557D01*
X159584817Y-62359051D01*
X159671139Y-62296335D01*
X159756787Y-62234109D01*
X159756789Y-62234106D01*
X159756793Y-62234104D01*
X159907105Y-62083792D01*
X159907107Y-62083788D01*
X159907110Y-62083786D01*
X160032049Y-61911820D01*
X160032051Y-61911817D01*
X160032052Y-61911816D01*
X160128558Y-61722412D01*
X160194247Y-61520243D01*
X160227501Y-61310287D01*
X160227501Y-61097713D01*
X160194247Y-60887757D01*
X160128558Y-60685588D01*
X160032052Y-60496184D01*
X160032050Y-60496181D01*
X160032049Y-60496179D01*
X159907110Y-60324213D01*
X159889032Y-60306135D01*
X162606500Y-60306135D01*
X162606500Y-62101870D01*
X162606501Y-62101876D01*
X162612908Y-62161483D01*
X162663202Y-62296328D01*
X162663206Y-62296335D01*
X162749452Y-62411544D01*
X162749455Y-62411547D01*
X162864664Y-62497793D01*
X162864671Y-62497797D01*
X162999517Y-62548091D01*
X162999516Y-62548091D01*
X163006444Y-62548835D01*
X163059127Y-62554500D01*
X164854872Y-62554499D01*
X164914483Y-62548091D01*
X165049331Y-62497796D01*
X165164546Y-62411546D01*
X165250796Y-62296331D01*
X165301091Y-62161483D01*
X165307500Y-62101873D01*
X165307499Y-60306128D01*
X165301091Y-60246517D01*
X165295837Y-60232431D01*
X165250797Y-60111671D01*
X165250793Y-60111664D01*
X165164547Y-59996455D01*
X165164544Y-59996452D01*
X165049335Y-59910206D01*
X165049328Y-59910202D01*
X164914482Y-59859908D01*
X164914483Y-59859908D01*
X164854883Y-59853501D01*
X164854881Y-59853500D01*
X164854873Y-59853500D01*
X164854864Y-59853500D01*
X163059129Y-59853500D01*
X163059123Y-59853501D01*
X162999516Y-59859908D01*
X162864671Y-59910202D01*
X162864664Y-59910206D01*
X162749455Y-59996452D01*
X162749452Y-59996455D01*
X162663206Y-60111664D01*
X162663202Y-60111671D01*
X162612908Y-60246517D01*
X162606501Y-60306116D01*
X162606501Y-60306123D01*
X162606500Y-60306135D01*
X159889032Y-60306135D01*
X159756787Y-60173890D01*
X159584821Y-60048951D01*
X159395415Y-59952444D01*
X159395414Y-59952443D01*
X159395413Y-59952443D01*
X159193244Y-59886754D01*
X159193242Y-59886753D01*
X159193241Y-59886753D01*
X159031958Y-59861208D01*
X158983288Y-59853500D01*
X158770714Y-59853500D01*
X158722043Y-59861208D01*
X158560761Y-59886753D01*
X158358586Y-59952444D01*
X158169180Y-60048951D01*
X157997214Y-60173890D01*
X157846891Y-60324213D01*
X157721949Y-60496184D01*
X157721947Y-60496187D01*
X157717482Y-60504950D01*
X157669506Y-60555744D01*
X157601684Y-60572537D01*
X157535550Y-60549997D01*
X157496514Y-60504944D01*
X157494373Y-60500742D01*
X157492051Y-60496184D01*
X157492049Y-60496181D01*
X157492048Y-60496179D01*
X157367109Y-60324213D01*
X157216786Y-60173890D01*
X157044820Y-60048951D01*
X156855414Y-59952444D01*
X156855413Y-59952443D01*
X156855412Y-59952443D01*
X156653243Y-59886754D01*
X156653241Y-59886753D01*
X156653240Y-59886753D01*
X156491957Y-59861208D01*
X156443287Y-59853500D01*
X156230713Y-59853500D01*
X156182042Y-59861208D01*
X156020760Y-59886753D01*
X155818585Y-59952444D01*
X155629179Y-60048951D01*
X155457213Y-60173890D01*
X155306890Y-60324213D01*
X155181951Y-60496179D01*
X155085444Y-60685585D01*
X155085443Y-60685587D01*
X155085443Y-60685588D01*
X155067000Y-60742350D01*
X155019753Y-60887760D01*
X154986500Y-61097713D01*
X153750500Y-61097713D01*
X153750500Y-60920439D01*
X152739368Y-60920439D01*
X152758473Y-61041063D01*
X152760000Y-61060461D01*
X152760000Y-61237539D01*
X152758473Y-61256937D01*
X152730772Y-61431836D01*
X152726230Y-61450756D01*
X152671510Y-61619168D01*
X152664064Y-61637145D01*
X152583672Y-61794924D01*
X152573505Y-61811515D01*
X152469420Y-61954774D01*
X152456783Y-61969569D01*
X152331569Y-62094783D01*
X152316774Y-62107420D01*
X152248500Y-62157024D01*
X149872873Y-62157024D01*
X150001105Y-62028792D01*
X150001107Y-62028788D01*
X150001110Y-62028786D01*
X150126049Y-61856820D01*
X150126051Y-61856817D01*
X150126052Y-61856816D01*
X150222558Y-61667412D01*
X150288247Y-61465243D01*
X150321501Y-61255287D01*
X150321501Y-61042713D01*
X150288247Y-60832757D01*
X150222558Y-60630588D01*
X150126052Y-60441184D01*
X150126050Y-60441181D01*
X150126049Y-60441179D01*
X150001110Y-60269213D01*
X149850787Y-60118890D01*
X149678821Y-59993951D01*
X149489415Y-59897444D01*
X149489414Y-59897443D01*
X149489413Y-59897443D01*
X149287244Y-59831754D01*
X149287242Y-59831753D01*
X149287241Y-59831753D01*
X149125958Y-59806208D01*
X149077288Y-59798500D01*
X148864714Y-59798500D01*
X148677708Y-59828119D01*
X148608414Y-59819164D01*
X148570629Y-59793327D01*
X148333620Y-59556318D01*
X148300135Y-59494995D01*
X148297301Y-59468637D01*
X148297301Y-59037213D01*
X157253757Y-59037213D01*
X157255392Y-59037891D01*
X157259861Y-59039846D01*
X157286636Y-59052189D01*
X157291019Y-59054314D01*
X157515361Y-59168622D01*
X157519654Y-59170917D01*
X157545350Y-59185307D01*
X157549550Y-59187769D01*
X157582973Y-59208250D01*
X157587073Y-59210874D01*
X157607000Y-59224188D01*
X157626928Y-59210874D01*
X157631028Y-59208250D01*
X157664451Y-59187769D01*
X157668651Y-59185307D01*
X157694347Y-59170917D01*
X157698640Y-59168622D01*
X157922982Y-59054314D01*
X157927365Y-59052189D01*
X157954140Y-59039846D01*
X157958609Y-59037891D01*
X157994826Y-59022893D01*
X157999354Y-59021121D01*
X158005502Y-59018853D01*
X159748500Y-59018853D01*
X159754648Y-59021121D01*
X159759176Y-59022893D01*
X159795393Y-59037891D01*
X159799862Y-59039846D01*
X159826637Y-59052189D01*
X159831020Y-59054314D01*
X160055362Y-59168622D01*
X160059655Y-59170917D01*
X160085351Y-59185307D01*
X160089551Y-59187769D01*
X160122974Y-59208250D01*
X160127074Y-59210874D01*
X160151569Y-59227240D01*
X160155566Y-59230026D01*
X160359270Y-59378025D01*
X160363158Y-59380968D01*
X160386317Y-59399227D01*
X160390082Y-59402317D01*
X160419889Y-59427778D01*
X160423528Y-59431012D01*
X160445133Y-59450986D01*
X160448637Y-59454356D01*
X160626645Y-59632364D01*
X160630015Y-59635868D01*
X160649989Y-59657473D01*
X160653223Y-59661112D01*
X160678684Y-59690919D01*
X160681774Y-59694684D01*
X160700033Y-59717843D01*
X160702976Y-59721731D01*
X160848798Y-59922439D01*
X161250500Y-59922439D01*
X161250500Y-59124806D01*
X162248500Y-59124806D01*
X162295126Y-59089902D01*
X162302396Y-59084854D01*
X162347463Y-59055890D01*
X162355077Y-59051372D01*
X162417667Y-59017195D01*
X162425581Y-59013233D01*
X162474318Y-58990975D01*
X162482498Y-58987587D01*
X162679982Y-58913931D01*
X162687321Y-58911452D01*
X162732172Y-58897847D01*
X162739648Y-58895832D01*
X162800363Y-58881484D01*
X162807955Y-58879939D01*
X162854160Y-58872028D01*
X162861833Y-58870959D01*
X162965755Y-58859788D01*
X162969064Y-58859477D01*
X162989101Y-58857865D01*
X162992413Y-58857643D01*
X163019095Y-58856214D01*
X163022413Y-58856081D01*
X163042464Y-58855545D01*
X163045778Y-58855501D01*
X163750500Y-58855500D01*
X164748500Y-58855500D01*
X164868248Y-58855500D01*
X164871572Y-58855545D01*
X164891673Y-58856084D01*
X164894993Y-58856217D01*
X164921680Y-58857649D01*
X164924989Y-58857871D01*
X164944982Y-58859481D01*
X164948285Y-58859792D01*
X165052175Y-58870962D01*
X165059843Y-58872029D01*
X165106029Y-58879936D01*
X165113619Y-58881481D01*
X165174330Y-58895826D01*
X165181809Y-58897842D01*
X165226672Y-58911450D01*
X165234012Y-58913929D01*
X165431502Y-58987587D01*
X165439682Y-58990975D01*
X165488419Y-59013233D01*
X165496333Y-59017195D01*
X165558923Y-59051372D01*
X165566537Y-59055890D01*
X165611604Y-59084854D01*
X165618874Y-59089902D01*
X165791173Y-59218886D01*
X165798064Y-59224439D01*
X165838549Y-59259519D01*
X165845028Y-59265551D01*
X165895449Y-59315972D01*
X165901481Y-59322451D01*
X165936561Y-59362936D01*
X165942114Y-59369827D01*
X166071098Y-59542126D01*
X166076146Y-59549396D01*
X166105110Y-59594463D01*
X166109628Y-59602077D01*
X166143805Y-59664667D01*
X166147767Y-59672581D01*
X166170025Y-59721318D01*
X166173413Y-59729498D01*
X166245375Y-59922439D01*
X166250500Y-59922439D01*
X166250500Y-58420439D01*
X164748500Y-58420439D01*
X164748500Y-58855500D01*
X163750500Y-58855500D01*
X163750500Y-58420439D01*
X162248500Y-58420439D01*
X162248500Y-59124806D01*
X161250500Y-59124806D01*
X161250500Y-58420439D01*
X159748500Y-58420439D01*
X159748500Y-59018853D01*
X158005502Y-59018853D01*
X158026964Y-59010936D01*
X158031561Y-59009342D01*
X158270994Y-58931545D01*
X158275654Y-58930131D01*
X158303996Y-58922138D01*
X158308701Y-58920911D01*
X158346818Y-58911758D01*
X158351578Y-58910713D01*
X158380478Y-58904964D01*
X158385273Y-58904108D01*
X158633942Y-58864723D01*
X158638765Y-58864056D01*
X158667998Y-58860596D01*
X158672836Y-58860119D01*
X158711915Y-58857041D01*
X158716780Y-58856754D01*
X158746232Y-58855596D01*
X158750500Y-58855511D01*
X158750500Y-58420439D01*
X157870532Y-58420439D01*
X157253757Y-59037213D01*
X148297301Y-59037213D01*
X148297301Y-58693953D01*
X148316986Y-58626914D01*
X148369790Y-58581159D01*
X148438948Y-58571215D01*
X148502504Y-58600240D01*
X148508982Y-58606272D01*
X148576516Y-58673806D01*
X148576545Y-58673837D01*
X148666764Y-58764056D01*
X148666767Y-58764058D01*
X148743690Y-58815456D01*
X148769210Y-58832509D01*
X148769212Y-58832510D01*
X148769215Y-58832512D01*
X148835896Y-58860131D01*
X148835898Y-58860133D01*
X148864618Y-58872029D01*
X148883048Y-58879663D01*
X148943471Y-58891681D01*
X149003893Y-58903700D01*
X155778407Y-58903700D01*
X155838829Y-58891681D01*
X155899252Y-58879663D01*
X155899255Y-58879661D01*
X155899258Y-58879661D01*
X155929488Y-58867138D01*
X155932592Y-58865852D01*
X156013086Y-58832512D01*
X156064309Y-58798284D01*
X156115533Y-58764058D01*
X156202658Y-58676933D01*
X156202659Y-58676931D01*
X156209725Y-58669865D01*
X156209727Y-58669861D01*
X158337118Y-56542471D01*
X159748500Y-56542471D01*
X159748500Y-57422439D01*
X161250500Y-57422439D01*
X162248500Y-57422439D01*
X162770864Y-57422439D01*
X162748690Y-57387937D01*
X162744172Y-57380323D01*
X162709995Y-57317733D01*
X162706033Y-57309819D01*
X162683775Y-57261082D01*
X162680387Y-57252902D01*
X162606731Y-57055418D01*
X162604252Y-57048079D01*
X162590647Y-57003228D01*
X162588632Y-56995752D01*
X162574284Y-56935037D01*
X162572739Y-56927445D01*
X162564828Y-56881240D01*
X162563759Y-56873567D01*
X162552588Y-56769645D01*
X162552277Y-56766336D01*
X162550665Y-56746299D01*
X162550443Y-56742987D01*
X162549014Y-56716305D01*
X162548881Y-56712987D01*
X162548345Y-56692936D01*
X162548301Y-56689622D01*
X162548301Y-55920439D01*
X162248500Y-55920439D01*
X162248500Y-57422439D01*
X161250500Y-57422439D01*
X161250500Y-55920439D01*
X160370533Y-55920439D01*
X159748500Y-56542471D01*
X158337118Y-56542471D01*
X160837117Y-54042472D01*
X162248500Y-54042472D01*
X162248500Y-54922439D01*
X162548300Y-54922439D01*
X162548300Y-54880535D01*
X163546300Y-54880535D01*
X163546300Y-56676270D01*
X163546301Y-56676276D01*
X163552708Y-56735883D01*
X163603002Y-56870728D01*
X163603006Y-56870735D01*
X163689252Y-56985944D01*
X163689255Y-56985947D01*
X163804464Y-57072193D01*
X163804471Y-57072197D01*
X163939317Y-57122491D01*
X163939316Y-57122491D01*
X163946244Y-57123235D01*
X163998927Y-57128900D01*
X165794672Y-57128899D01*
X165854283Y-57122491D01*
X165989131Y-57072196D01*
X166104346Y-56985946D01*
X166190596Y-56870731D01*
X166240891Y-56735883D01*
X166247300Y-56676273D01*
X166247299Y-54880528D01*
X166240891Y-54820917D01*
X166197364Y-54704216D01*
X166190597Y-54686071D01*
X166190593Y-54686064D01*
X166104347Y-54570855D01*
X166104344Y-54570852D01*
X165989135Y-54484606D01*
X165989128Y-54484602D01*
X165854282Y-54434308D01*
X165854283Y-54434308D01*
X165794683Y-54427901D01*
X165794681Y-54427900D01*
X165794673Y-54427900D01*
X165794664Y-54427900D01*
X163998929Y-54427900D01*
X163998923Y-54427901D01*
X163939316Y-54434308D01*
X163804471Y-54484602D01*
X163804464Y-54484606D01*
X163689255Y-54570852D01*
X163689252Y-54570855D01*
X163603006Y-54686064D01*
X163603002Y-54686071D01*
X163552708Y-54820917D01*
X163546349Y-54880067D01*
X163546301Y-54880523D01*
X163546300Y-54880535D01*
X162548300Y-54880535D01*
X162548300Y-54867152D01*
X162548345Y-54863828D01*
X162548884Y-54843727D01*
X162549017Y-54840407D01*
X162550449Y-54813720D01*
X162550671Y-54810411D01*
X162552281Y-54790418D01*
X162552592Y-54787115D01*
X162563762Y-54683225D01*
X162564829Y-54675557D01*
X162572736Y-54629371D01*
X162574281Y-54621781D01*
X162588626Y-54561070D01*
X162590642Y-54553591D01*
X162604250Y-54508728D01*
X162606729Y-54501388D01*
X162680387Y-54303898D01*
X162683775Y-54295718D01*
X162706033Y-54246981D01*
X162709995Y-54239067D01*
X162744172Y-54176477D01*
X162748690Y-54168863D01*
X162777654Y-54123796D01*
X162782702Y-54116526D01*
X162911686Y-53944227D01*
X162917239Y-53937336D01*
X162952319Y-53896851D01*
X162958351Y-53890372D01*
X163008772Y-53839951D01*
X163015251Y-53833919D01*
X163055736Y-53798839D01*
X163062627Y-53793286D01*
X163234926Y-53664302D01*
X163242196Y-53659254D01*
X163287263Y-53630290D01*
X163294877Y-53625772D01*
X163357467Y-53591595D01*
X163365381Y-53587633D01*
X163414118Y-53565375D01*
X163422298Y-53561987D01*
X163619782Y-53488331D01*
X163627121Y-53485852D01*
X163669392Y-53473029D01*
X163661063Y-53420439D01*
X162870534Y-53420439D01*
X162248500Y-54042472D01*
X160837117Y-54042472D01*
X163519371Y-51360219D01*
X163580694Y-51326734D01*
X163607052Y-51323900D01*
X163623819Y-51323900D01*
X163690858Y-51343585D01*
X163734304Y-51391605D01*
X163741751Y-51406221D01*
X163866690Y-51578187D01*
X164017013Y-51728510D01*
X164188979Y-51853449D01*
X164188981Y-51853450D01*
X164188984Y-51853452D01*
X164378388Y-51949958D01*
X164580557Y-52015647D01*
X164790513Y-52048901D01*
X164790514Y-52048901D01*
X165003086Y-52048901D01*
X165003087Y-52048901D01*
X165213043Y-52015647D01*
X165415212Y-51949958D01*
X165604616Y-51853452D01*
X165687198Y-51793453D01*
X165776586Y-51728510D01*
X165776588Y-51728507D01*
X165776592Y-51728505D01*
X165926904Y-51578193D01*
X165926906Y-51578189D01*
X165926909Y-51578187D01*
X166051848Y-51406221D01*
X166051847Y-51406221D01*
X166051851Y-51406217D01*
X166148357Y-51216813D01*
X166214046Y-51014644D01*
X166247300Y-50804688D01*
X166247300Y-50592114D01*
X166214046Y-50382158D01*
X166148357Y-50179989D01*
X166051851Y-49990585D01*
X166002340Y-49922439D01*
X165943696Y-49841721D01*
X165920216Y-49775915D01*
X165936042Y-49707861D01*
X165956329Y-49681159D01*
X166743929Y-48893560D01*
X166743933Y-48893558D01*
X166831058Y-48806433D01*
X166899511Y-48703986D01*
X166946663Y-48590152D01*
X166960326Y-48521463D01*
X166970700Y-48469307D01*
X166970700Y-48346093D01*
X166970700Y-41422194D01*
X166946663Y-41301348D01*
X166939961Y-41285169D01*
X166916471Y-41228457D01*
X166899514Y-41187519D01*
X166899508Y-41187508D01*
X166869983Y-41143323D01*
X166869982Y-41143321D01*
X166831056Y-41085064D01*
X166740837Y-40994845D01*
X166740806Y-40994816D01*
X166437428Y-40691438D01*
X166403943Y-40630115D01*
X166407177Y-40565441D01*
X166412246Y-40549843D01*
X166445500Y-40339887D01*
X166445500Y-40127313D01*
X166412246Y-39917357D01*
X166346557Y-39715188D01*
X166250051Y-39525784D01*
X166250049Y-39525781D01*
X166250048Y-39525779D01*
X166125109Y-39353813D01*
X165974786Y-39203490D01*
X165802820Y-39078551D01*
X165613414Y-38982044D01*
X165613413Y-38982043D01*
X165613412Y-38982043D01*
X165411243Y-38916354D01*
X165411241Y-38916353D01*
X165411240Y-38916353D01*
X165249957Y-38890808D01*
X165201287Y-38883100D01*
X164988713Y-38883100D01*
X164940042Y-38890808D01*
X164778760Y-38916353D01*
X164778757Y-38916354D01*
X164593765Y-38976462D01*
X164576585Y-38982044D01*
X164387179Y-39078551D01*
X164215213Y-39203490D01*
X164064890Y-39353813D01*
X163939949Y-39525782D01*
X163935484Y-39534546D01*
X163887509Y-39585342D01*
X163819688Y-39602136D01*
X163753553Y-39579598D01*
X163714516Y-39534546D01*
X163710050Y-39525782D01*
X163585109Y-39353813D01*
X163471569Y-39240273D01*
X163438084Y-39178950D01*
X163443068Y-39109258D01*
X163484940Y-39053325D01*
X163515915Y-39036410D01*
X163647331Y-38987396D01*
X163762546Y-38901146D01*
X163848796Y-38785931D01*
X163899091Y-38651083D01*
X163905500Y-38591473D01*
X163905499Y-36795728D01*
X163899091Y-36736117D01*
X163895845Y-36727415D01*
X163848797Y-36601271D01*
X163848793Y-36601264D01*
X163762547Y-36486055D01*
X163762544Y-36486052D01*
X163647335Y-36399806D01*
X163647328Y-36399802D01*
X163512482Y-36349508D01*
X163512483Y-36349508D01*
X163452883Y-36343101D01*
X163452881Y-36343100D01*
X163452873Y-36343100D01*
X163452864Y-36343100D01*
X161657129Y-36343100D01*
X161657123Y-36343101D01*
X161597516Y-36349508D01*
X161462671Y-36399802D01*
X161462664Y-36399806D01*
X161347455Y-36486052D01*
X161347452Y-36486055D01*
X161261206Y-36601264D01*
X161261202Y-36601271D01*
X161210908Y-36736117D01*
X161205319Y-36788110D01*
X161204501Y-36795723D01*
X161204500Y-36795735D01*
X161204500Y-37699148D01*
X161184815Y-37766187D01*
X161132011Y-37811942D01*
X161062853Y-37821886D01*
X160999297Y-37792861D01*
X160992819Y-37786829D01*
X160700819Y-37494829D01*
X160667334Y-37433506D01*
X160664500Y-37407148D01*
X160664500Y-35724893D01*
X160664499Y-35724889D01*
X160653365Y-35668913D01*
X160640463Y-35604048D01*
X160593311Y-35490214D01*
X160593310Y-35490213D01*
X160593307Y-35490207D01*
X160524858Y-35387767D01*
X160524855Y-35387763D01*
X160434637Y-35297545D01*
X160434606Y-35297516D01*
X159989820Y-34852730D01*
X159956335Y-34791407D01*
X159953501Y-34765049D01*
X159953501Y-34422400D01*
X159973186Y-34355361D01*
X160025990Y-34309606D01*
X160077501Y-34298400D01*
X163340048Y-34298400D01*
X163407087Y-34318085D01*
X163427729Y-34334719D01*
X163992181Y-34899171D01*
X164025666Y-34960494D01*
X164028500Y-34986852D01*
X164028500Y-35040095D01*
X164063103Y-35214058D01*
X164063106Y-35214067D01*
X164130983Y-35377940D01*
X164130990Y-35377953D01*
X164229535Y-35525434D01*
X164229538Y-35525438D01*
X164354961Y-35650861D01*
X164354965Y-35650864D01*
X164502446Y-35749409D01*
X164502459Y-35749416D01*
X164625363Y-35800323D01*
X164666334Y-35817294D01*
X164666336Y-35817294D01*
X164666341Y-35817296D01*
X164840304Y-35851899D01*
X164840307Y-35851900D01*
X164840309Y-35851900D01*
X165017693Y-35851900D01*
X165017694Y-35851899D01*
X165077441Y-35840015D01*
X165191658Y-35817296D01*
X165191661Y-35817294D01*
X165191666Y-35817294D01*
X165337170Y-35757025D01*
X165355540Y-35749416D01*
X165355540Y-35749415D01*
X165355547Y-35749413D01*
X165503035Y-35650864D01*
X165628464Y-35525435D01*
X165727013Y-35377947D01*
X165794894Y-35214066D01*
X165800271Y-35187037D01*
X165829499Y-35040095D01*
X165829500Y-35040093D01*
X165829500Y-35036747D01*
X165829995Y-35035058D01*
X165830097Y-35034031D01*
X165830291Y-35034050D01*
X165849185Y-34969708D01*
X165901989Y-34923953D01*
X165971147Y-34914009D01*
X166034703Y-34943034D01*
X166059926Y-34973111D01*
X166465180Y-35650864D01*
X166471600Y-35661600D01*
X167520910Y-35707222D01*
X167587031Y-35729800D01*
X167630449Y-35784542D01*
X167639523Y-35831601D01*
X167538711Y-61034642D01*
X167518758Y-61101602D01*
X167468268Y-61145984D01*
X165734999Y-61976000D01*
X165354257Y-63308598D01*
X165316913Y-63367651D01*
X165253570Y-63397139D01*
X165235206Y-63398533D01*
X129929298Y-63449115D01*
X129862230Y-63429526D01*
X129832914Y-63403348D01*
X127990600Y-61137800D01*
X127306572Y-61027472D01*
X127243522Y-60997363D01*
X127206759Y-60937947D01*
X127202321Y-60906095D01*
X127196174Y-60173890D01*
X127186269Y-58993964D01*
X139753641Y-58993964D01*
X139760636Y-58997189D01*
X139765019Y-58999314D01*
X139989361Y-59113622D01*
X139993654Y-59115917D01*
X140019350Y-59130307D01*
X140023550Y-59132769D01*
X140056973Y-59153250D01*
X140061073Y-59155874D01*
X140081000Y-59169187D01*
X140100927Y-59155874D01*
X140105027Y-59153250D01*
X140138450Y-59132769D01*
X140142650Y-59130307D01*
X140168346Y-59115917D01*
X140172639Y-59113622D01*
X140396981Y-58999314D01*
X140401364Y-58997189D01*
X140428139Y-58984846D01*
X140432608Y-58982891D01*
X140453501Y-58974239D01*
X142248500Y-58974239D01*
X142269392Y-58982891D01*
X142273861Y-58984846D01*
X142300636Y-58997189D01*
X142305019Y-58999314D01*
X142529361Y-59113622D01*
X142533654Y-59115917D01*
X142559350Y-59130307D01*
X142563550Y-59132769D01*
X142596973Y-59153250D01*
X142601073Y-59155874D01*
X142621000Y-59169187D01*
X142640927Y-59155874D01*
X142645027Y-59153250D01*
X142678450Y-59132769D01*
X142682650Y-59130307D01*
X142708346Y-59115917D01*
X142712639Y-59113622D01*
X142936981Y-58999314D01*
X142941364Y-58997189D01*
X142968139Y-58984846D01*
X142972608Y-58982891D01*
X143008825Y-58967893D01*
X143013353Y-58966121D01*
X143040963Y-58955936D01*
X143045560Y-58954342D01*
X143284993Y-58876545D01*
X143289653Y-58875131D01*
X143317995Y-58867138D01*
X143322700Y-58865911D01*
X143360817Y-58856758D01*
X143365577Y-58855713D01*
X143394477Y-58849964D01*
X143399272Y-58849108D01*
X143405818Y-58848071D01*
X143336560Y-58778813D01*
X143331612Y-58773569D01*
X143302601Y-58740971D01*
X143297963Y-58735444D01*
X143261933Y-58689877D01*
X143257627Y-58684093D01*
X143232586Y-58648333D01*
X143228620Y-58642303D01*
X143106018Y-58443532D01*
X143102411Y-58437285D01*
X143093328Y-58420439D01*
X142248500Y-58420439D01*
X142248500Y-58974239D01*
X140453501Y-58974239D01*
X140468825Y-58967893D01*
X140473353Y-58966121D01*
X140500963Y-58955936D01*
X140505560Y-58954342D01*
X140744993Y-58876545D01*
X140749653Y-58875131D01*
X140777995Y-58867138D01*
X140782700Y-58865911D01*
X140820817Y-58856758D01*
X140825577Y-58855713D01*
X140854477Y-58849964D01*
X140859272Y-58849108D01*
X141107941Y-58809723D01*
X141112764Y-58809056D01*
X141141997Y-58805596D01*
X141146835Y-58805119D01*
X141185914Y-58802041D01*
X141190779Y-58801754D01*
X141220231Y-58800596D01*
X141225103Y-58800500D01*
X141250500Y-58800500D01*
X141250500Y-58420439D01*
X140237605Y-58420439D01*
X140116179Y-58617303D01*
X140112213Y-58623333D01*
X140087172Y-58659093D01*
X140082866Y-58664877D01*
X140046836Y-58710444D01*
X140042198Y-58715971D01*
X140013187Y-58748569D01*
X140008239Y-58753813D01*
X139843113Y-58918939D01*
X139837869Y-58923887D01*
X139805271Y-58952898D01*
X139799744Y-58957536D01*
X139754177Y-58993566D01*
X139753641Y-58993964D01*
X127186269Y-58993964D01*
X127071655Y-45340513D01*
X128113300Y-45340513D01*
X128113300Y-45553087D01*
X128117726Y-45581032D01*
X128145281Y-45755009D01*
X128146554Y-45763043D01*
X128208602Y-45954007D01*
X128212244Y-45965214D01*
X128308751Y-46154620D01*
X128433690Y-46326586D01*
X128584013Y-46476909D01*
X128755979Y-46601848D01*
X128755981Y-46601849D01*
X128755984Y-46601851D01*
X128945388Y-46698357D01*
X129147557Y-46764046D01*
X129357513Y-46797300D01*
X129357514Y-46797300D01*
X129570086Y-46797300D01*
X129570087Y-46797300D01*
X129780043Y-46764046D01*
X129982212Y-46698357D01*
X130171616Y-46601851D01*
X130198224Y-46582519D01*
X130343586Y-46476909D01*
X130343588Y-46476906D01*
X130343592Y-46476904D01*
X130493904Y-46326592D01*
X130493906Y-46326588D01*
X130493909Y-46326586D01*
X130618848Y-46154620D01*
X130618847Y-46154620D01*
X130618851Y-46154616D01*
X130715357Y-45965212D01*
X130781046Y-45763043D01*
X130814300Y-45553087D01*
X130814300Y-45340513D01*
X130781046Y-45130557D01*
X130715357Y-44928388D01*
X130618851Y-44738984D01*
X130618849Y-44738981D01*
X130618848Y-44738979D01*
X130493909Y-44567013D01*
X130343586Y-44416690D01*
X130171620Y-44291751D01*
X129982214Y-44195244D01*
X129982213Y-44195243D01*
X129982212Y-44195243D01*
X129780043Y-44129554D01*
X129780041Y-44129553D01*
X129780040Y-44129553D01*
X129593618Y-44100027D01*
X129570087Y-44096300D01*
X129357513Y-44096300D01*
X129333982Y-44100027D01*
X129147560Y-44129553D01*
X128945385Y-44195244D01*
X128755979Y-44291751D01*
X128584013Y-44416690D01*
X128433690Y-44567013D01*
X128308751Y-44738979D01*
X128212244Y-44928385D01*
X128146553Y-45130560D01*
X128121397Y-45289388D01*
X128113300Y-45340513D01*
X127071655Y-45340513D01*
X127034550Y-40920439D01*
X128158591Y-40920439D01*
X128171199Y-42422439D01*
X128214800Y-42422439D01*
X128214800Y-42029712D01*
X128217183Y-42005521D01*
X128233138Y-41925309D01*
X128251653Y-41880609D01*
X128312434Y-41789645D01*
X128346645Y-41755434D01*
X128437609Y-41694653D01*
X128482309Y-41676138D01*
X128562521Y-41660183D01*
X128586712Y-41657800D01*
X128750500Y-41657800D01*
X129748500Y-41657800D01*
X130340888Y-41657800D01*
X130365079Y-41660183D01*
X130445291Y-41676138D01*
X130489991Y-41694653D01*
X130580955Y-41755434D01*
X130615166Y-41789645D01*
X130675947Y-41880609D01*
X130694462Y-41925309D01*
X130710417Y-42005521D01*
X130712800Y-42029712D01*
X130712800Y-42422439D01*
X131250500Y-42422439D01*
X131250500Y-41023499D01*
X132248500Y-41023499D01*
X132248500Y-42422439D01*
X133750500Y-42422439D01*
X134748500Y-42422439D01*
X135496201Y-42422439D01*
X135496200Y-42085663D01*
X135496911Y-42072408D01*
X135502993Y-42015838D01*
X135510100Y-41985759D01*
X135557833Y-41857782D01*
X135574748Y-41826806D01*
X135656603Y-41717460D01*
X135681560Y-41692503D01*
X135790906Y-41610648D01*
X135821882Y-41593733D01*
X135949859Y-41546000D01*
X135979940Y-41538892D01*
X136036511Y-41532811D01*
X136049764Y-41532101D01*
X136250500Y-41532100D01*
X136250500Y-40920439D01*
X134748500Y-40920439D01*
X134748500Y-42422439D01*
X133750500Y-42422439D01*
X133750500Y-40920439D01*
X132919970Y-40920439D01*
X132767663Y-40970909D01*
X132761186Y-40972861D01*
X132721684Y-40983599D01*
X132715109Y-40985195D01*
X132661855Y-40996593D01*
X132655211Y-40997827D01*
X132614806Y-41004196D01*
X132608100Y-41005066D01*
X132465590Y-41019624D01*
X132462442Y-41019905D01*
X132443400Y-41021361D01*
X132440253Y-41021561D01*
X132414885Y-41022853D01*
X132411730Y-41022974D01*
X132392657Y-41023459D01*
X132389505Y-41023499D01*
X132248500Y-41023499D01*
X131250500Y-41023499D01*
X131250500Y-41015792D01*
X131145481Y-41005064D01*
X131138772Y-41004193D01*
X131098343Y-40997819D01*
X131091692Y-40996584D01*
X131038441Y-40985182D01*
X131031874Y-40983587D01*
X130992400Y-40972856D01*
X130985925Y-40970905D01*
X130856927Y-40928159D01*
X130851823Y-40929708D01*
X130845952Y-40931333D01*
X130810224Y-40940282D01*
X130804287Y-40941615D01*
X130572581Y-40987704D01*
X130566586Y-40988745D01*
X130530158Y-40994149D01*
X130524115Y-40994894D01*
X130475346Y-40999697D01*
X130469275Y-41000145D01*
X130432500Y-41001951D01*
X130426418Y-41002100D01*
X130190182Y-41002100D01*
X130184100Y-41001951D01*
X130147325Y-41000145D01*
X130141254Y-40999697D01*
X130092485Y-40994894D01*
X130086442Y-40994149D01*
X130050014Y-40988745D01*
X130044019Y-40987704D01*
X129812313Y-40941615D01*
X129806376Y-40940282D01*
X129770648Y-40931333D01*
X129764778Y-40929709D01*
X129748500Y-40924770D01*
X129748500Y-41657800D01*
X128750500Y-41657800D01*
X128750500Y-40920439D01*
X128158591Y-40920439D01*
X127034550Y-40920439D01*
X127017016Y-38831687D01*
X127000542Y-36869143D01*
X127539300Y-36869143D01*
X127539300Y-37455854D01*
X127549713Y-37557775D01*
X127604437Y-37722921D01*
X127604442Y-37722932D01*
X127695771Y-37870998D01*
X127695774Y-37871002D01*
X127818796Y-37994024D01*
X127818800Y-37994027D01*
X127966866Y-38085356D01*
X127966869Y-38085357D01*
X127966875Y-38085361D01*
X128132025Y-38140086D01*
X128233952Y-38150499D01*
X128233957Y-38150499D01*
X129245643Y-38150499D01*
X129245648Y-38150499D01*
X129347575Y-38140086D01*
X129512725Y-38085361D01*
X129660803Y-37994025D01*
X129783826Y-37871002D01*
X129796432Y-37850565D01*
X129798691Y-37846903D01*
X129850639Y-37800178D01*
X129904229Y-37788000D01*
X130684292Y-37788000D01*
X130751331Y-37807685D01*
X130789829Y-37846901D01*
X130823882Y-37902109D01*
X130834089Y-37918657D01*
X130927750Y-38012318D01*
X130961235Y-38073641D01*
X130956251Y-38143333D01*
X130927750Y-38187680D01*
X130917783Y-38197647D01*
X130856460Y-38231132D01*
X130786768Y-38226148D01*
X130761212Y-38213068D01*
X130758542Y-38211284D01*
X130758528Y-38211276D01*
X130585551Y-38139627D01*
X130585543Y-38139625D01*
X130401920Y-38103100D01*
X130401916Y-38103100D01*
X130214684Y-38103100D01*
X130214679Y-38103100D01*
X130031056Y-38139625D01*
X130031048Y-38139627D01*
X129858071Y-38211276D01*
X129858062Y-38211281D01*
X129702392Y-38315297D01*
X129702388Y-38315300D01*
X129570000Y-38447688D01*
X129569997Y-38447692D01*
X129465981Y-38603362D01*
X129465976Y-38603371D01*
X129394327Y-38776348D01*
X129394325Y-38776356D01*
X129357800Y-38959979D01*
X129357800Y-39147220D01*
X129394325Y-39330843D01*
X129394327Y-39330851D01*
X129465976Y-39503828D01*
X129465981Y-39503837D01*
X129569997Y-39659507D01*
X129570000Y-39659511D01*
X129702388Y-39791899D01*
X129702392Y-39791902D01*
X129858062Y-39895918D01*
X129858068Y-39895921D01*
X129858069Y-39895922D01*
X130031049Y-39967573D01*
X130214679Y-40004099D01*
X130214683Y-40004100D01*
X130214684Y-40004100D01*
X130401917Y-40004100D01*
X130401918Y-40004099D01*
X130585551Y-39967573D01*
X130758531Y-39895922D01*
X130811034Y-39860839D01*
X130877707Y-39839962D01*
X130945088Y-39858445D01*
X130956835Y-39866677D01*
X130958140Y-39867709D01*
X130958142Y-39867710D01*
X130958144Y-39867712D01*
X131107466Y-39959814D01*
X131274003Y-40014999D01*
X131376791Y-40025500D01*
X132376808Y-40025499D01*
X132376816Y-40025498D01*
X132376819Y-40025498D01*
X132433102Y-40019748D01*
X132479597Y-40014999D01*
X132646134Y-39959814D01*
X132795456Y-39867712D01*
X132919512Y-39743656D01*
X133011614Y-39594334D01*
X133066799Y-39427797D01*
X133077300Y-39325009D01*
X133077299Y-38699992D01*
X133074967Y-38677167D01*
X133066799Y-38597203D01*
X133066798Y-38597200D01*
X133051289Y-38550397D01*
X133011614Y-38430666D01*
X132919512Y-38281344D01*
X132825848Y-38187680D01*
X132792364Y-38126358D01*
X132797348Y-38056666D01*
X132825849Y-38012319D01*
X132851852Y-37986316D01*
X132919512Y-37918656D01*
X133011614Y-37769334D01*
X133066799Y-37602797D01*
X133077300Y-37500009D01*
X133077299Y-36874992D01*
X133076702Y-36869151D01*
X133066799Y-36772203D01*
X133066798Y-36772200D01*
X133063137Y-36761153D01*
X133011614Y-36605666D01*
X132919512Y-36456344D01*
X132795456Y-36332288D01*
X132646134Y-36240186D01*
X132479597Y-36185001D01*
X132479595Y-36185000D01*
X132376810Y-36174500D01*
X131376798Y-36174500D01*
X131376780Y-36174501D01*
X131274003Y-36185000D01*
X131274000Y-36185001D01*
X131107468Y-36240185D01*
X131107463Y-36240187D01*
X130958142Y-36332289D01*
X130834088Y-36456343D01*
X130834085Y-36456347D01*
X130820670Y-36478097D01*
X130768722Y-36524822D01*
X130715132Y-36537000D01*
X129904230Y-36537000D01*
X129837191Y-36517315D01*
X129798691Y-36478096D01*
X129785274Y-36456344D01*
X129783826Y-36453996D01*
X129660803Y-36330973D01*
X129660799Y-36330970D01*
X129512733Y-36239641D01*
X129512727Y-36239638D01*
X129512725Y-36239637D01*
X129390715Y-36199207D01*
X129347576Y-36184912D01*
X129245655Y-36174499D01*
X129245648Y-36174499D01*
X128233952Y-36174499D01*
X128233944Y-36174499D01*
X128132023Y-36184912D01*
X127966877Y-36239636D01*
X127966866Y-36239641D01*
X127818800Y-36330970D01*
X127818796Y-36330973D01*
X127695774Y-36453995D01*
X127695771Y-36453999D01*
X127604442Y-36602065D01*
X127604437Y-36602076D01*
X127549713Y-36767222D01*
X127539300Y-36869143D01*
X127000542Y-36869143D01*
X127000504Y-36864638D01*
X127000500Y-36863597D01*
X127000500Y-36624557D01*
X127020185Y-36557518D01*
X127072989Y-36511763D01*
X127097593Y-36503512D01*
X127228600Y-36474400D01*
X128696993Y-34922439D01*
X132248500Y-34922439D01*
X133750500Y-34922439D01*
X133750500Y-34298890D01*
X132248500Y-34297788D01*
X132248500Y-34922439D01*
X128696993Y-34922439D01*
X130316075Y-33211214D01*
X130376447Y-33176048D01*
X130406235Y-33172439D01*
X144945130Y-33183098D01*
G37*
%TD.AperFunction*%
%TA.AperFunction,Conductor*%
G36*
X147001876Y-43245185D02*
G01*
X147022518Y-43261819D01*
X147263881Y-43503182D01*
X147297366Y-43564505D01*
X147300200Y-43590863D01*
X147300200Y-43628320D01*
X147336725Y-43811943D01*
X147336727Y-43811951D01*
X147408376Y-43984928D01*
X147408381Y-43984937D01*
X147512397Y-44140607D01*
X147512400Y-44140611D01*
X147644788Y-44272999D01*
X147644792Y-44273002D01*
X147800462Y-44377018D01*
X147800468Y-44377021D01*
X147800469Y-44377022D01*
X147973449Y-44448673D01*
X148157079Y-44485199D01*
X148157083Y-44485200D01*
X148157084Y-44485200D01*
X148344317Y-44485200D01*
X148344318Y-44485199D01*
X148527951Y-44448673D01*
X148700931Y-44377022D01*
X148856608Y-44273002D01*
X148977380Y-44152229D01*
X149038701Y-44118746D01*
X149108393Y-44123730D01*
X149152738Y-44152229D01*
X150113058Y-45112548D01*
X151134881Y-46134371D01*
X151168366Y-46195694D01*
X151171200Y-46222052D01*
X151171200Y-46293695D01*
X151205803Y-46467658D01*
X151205805Y-46467662D01*
X151205806Y-46467666D01*
X151219819Y-46501496D01*
X151224604Y-46513049D01*
X151232071Y-46582519D01*
X151200795Y-46644997D01*
X151140706Y-46680649D01*
X151110042Y-46684500D01*
X150689437Y-46684500D01*
X150578153Y-46699150D01*
X150570300Y-46701255D01*
X150569788Y-46699345D01*
X150510969Y-46705662D01*
X150495723Y-46701185D01*
X150495705Y-46701256D01*
X150487855Y-46699152D01*
X150487854Y-46699152D01*
X150473942Y-46697320D01*
X150376568Y-46684500D01*
X150376561Y-46684500D01*
X150069257Y-46684500D01*
X150002218Y-46664815D01*
X149956463Y-46612011D01*
X149947640Y-46584691D01*
X149943554Y-46564150D01*
X149934464Y-46518454D01*
X149934463Y-46518448D01*
X149913253Y-46467242D01*
X149892746Y-46417735D01*
X149887313Y-46404617D01*
X149887307Y-46404606D01*
X149865958Y-46372656D01*
X149865957Y-46372655D01*
X149818858Y-46302167D01*
X149818855Y-46302163D01*
X149728637Y-46211945D01*
X149728606Y-46211916D01*
X149412619Y-45895929D01*
X149379134Y-45834606D01*
X149376300Y-45808248D01*
X149376300Y-45755006D01*
X149376299Y-45755004D01*
X149341696Y-45581041D01*
X149341693Y-45581032D01*
X149273816Y-45417159D01*
X149273809Y-45417146D01*
X149175264Y-45269665D01*
X149175261Y-45269661D01*
X149049838Y-45144238D01*
X149049834Y-45144235D01*
X148902353Y-45045690D01*
X148902340Y-45045683D01*
X148738467Y-44977806D01*
X148738458Y-44977803D01*
X148564494Y-44943200D01*
X148564491Y-44943200D01*
X148387109Y-44943200D01*
X148387106Y-44943200D01*
X148213141Y-44977803D01*
X148213132Y-44977806D01*
X148049259Y-45045683D01*
X148049246Y-45045690D01*
X147901765Y-45144235D01*
X147901761Y-45144238D01*
X147776338Y-45269661D01*
X147776335Y-45269665D01*
X147677790Y-45417146D01*
X147677783Y-45417159D01*
X147609906Y-45581032D01*
X147609903Y-45581041D01*
X147575300Y-45755004D01*
X147575300Y-45932395D01*
X147609903Y-46106358D01*
X147609906Y-46106367D01*
X147677783Y-46270240D01*
X147677790Y-46270253D01*
X147776335Y-46417734D01*
X147776338Y-46417738D01*
X147831419Y-46472819D01*
X147864904Y-46534142D01*
X147859920Y-46603834D01*
X147818048Y-46659767D01*
X147752584Y-46684184D01*
X147743738Y-46684500D01*
X147489437Y-46684500D01*
X147378153Y-46699150D01*
X147370300Y-46701255D01*
X147369788Y-46699345D01*
X147310969Y-46705662D01*
X147295723Y-46701185D01*
X147295705Y-46701256D01*
X147287855Y-46699152D01*
X147287854Y-46699152D01*
X147273942Y-46697320D01*
X147176568Y-46684500D01*
X147176561Y-46684500D01*
X146922499Y-46684500D01*
X146855460Y-46664815D01*
X146809705Y-46612011D01*
X146798499Y-46560500D01*
X146798499Y-46306438D01*
X146793734Y-46270240D01*
X146783848Y-46195146D01*
X146783847Y-46195143D01*
X146781744Y-46187292D01*
X146783658Y-46186779D01*
X146777332Y-46127997D01*
X146781815Y-46112728D01*
X146781744Y-46112709D01*
X146783847Y-46104858D01*
X146783848Y-46104854D01*
X146798500Y-45993561D01*
X146798499Y-45506440D01*
X146783848Y-45395146D01*
X146726489Y-45256669D01*
X146635244Y-45137756D01*
X146635242Y-45137755D01*
X146635242Y-45137754D01*
X146527889Y-45055380D01*
X146518760Y-45048375D01*
X146477558Y-44991948D01*
X146473403Y-44922202D01*
X146507615Y-44861282D01*
X146518756Y-44851627D01*
X146635244Y-44762244D01*
X146726489Y-44643331D01*
X146783848Y-44504854D01*
X146798500Y-44393561D01*
X146798499Y-43906440D01*
X146793900Y-43871508D01*
X146783849Y-43795153D01*
X146783848Y-43795152D01*
X146783848Y-43795146D01*
X146726489Y-43656669D01*
X146635244Y-43537756D01*
X146518759Y-43448374D01*
X146477558Y-43391947D01*
X146473403Y-43322200D01*
X146507616Y-43261280D01*
X146518800Y-43251594D01*
X146519463Y-43251085D01*
X146584644Y-43225925D01*
X146594898Y-43225500D01*
X146934837Y-43225500D01*
X147001876Y-43245185D01*
G37*
%TD.AperFunction*%
%TA.AperFunction,Conductor*%
G36*
X148563703Y-41157539D02*
G01*
X148570181Y-41163571D01*
X149619116Y-42212506D01*
X149619145Y-42212537D01*
X149709364Y-42302756D01*
X149709367Y-42302758D01*
X149786290Y-42354156D01*
X149811810Y-42371209D01*
X149811812Y-42371210D01*
X149811815Y-42371212D01*
X149878496Y-42398831D01*
X149878498Y-42398833D01*
X149918740Y-42415501D01*
X149925648Y-42418363D01*
X149986071Y-42430381D01*
X150046493Y-42442400D01*
X150046494Y-42442400D01*
X150917539Y-42442400D01*
X150984578Y-42462085D01*
X151005221Y-42478720D01*
X151042861Y-42516361D01*
X151042865Y-42516364D01*
X151190349Y-42614911D01*
X151195719Y-42617781D01*
X151194569Y-42619931D01*
X151240618Y-42657023D01*
X151262698Y-42723313D01*
X151245434Y-42791016D01*
X151241882Y-42796654D01*
X151229377Y-42815368D01*
X151157727Y-42988348D01*
X151157725Y-42988356D01*
X151121200Y-43171979D01*
X151121200Y-43359220D01*
X151157725Y-43542843D01*
X151157727Y-43542851D01*
X151229376Y-43715828D01*
X151229381Y-43715837D01*
X151333397Y-43871507D01*
X151333400Y-43871511D01*
X151465788Y-44003899D01*
X151465792Y-44003902D01*
X151621462Y-44107918D01*
X151621468Y-44107921D01*
X151621469Y-44107922D01*
X151794449Y-44179573D01*
X151909903Y-44202538D01*
X151978079Y-44216099D01*
X151978083Y-44216100D01*
X151978084Y-44216100D01*
X152165317Y-44216100D01*
X152165318Y-44216099D01*
X152348951Y-44179573D01*
X152496048Y-44118642D01*
X152565516Y-44111174D01*
X152627995Y-44142449D01*
X152663648Y-44202538D01*
X152667500Y-44233203D01*
X152667500Y-44393561D01*
X152682150Y-44504846D01*
X152684255Y-44512700D01*
X152682345Y-44513211D01*
X152688662Y-44572031D01*
X152684185Y-44587276D01*
X152684256Y-44587295D01*
X152682152Y-44595146D01*
X152667500Y-44706431D01*
X152667500Y-45193563D01*
X152679026Y-45281117D01*
X152668259Y-45350152D01*
X152621878Y-45402407D01*
X152554609Y-45421291D01*
X152504270Y-45408365D01*
X152503876Y-45409318D01*
X152334367Y-45339106D01*
X152334358Y-45339103D01*
X152160394Y-45304500D01*
X152160391Y-45304500D01*
X152125553Y-45304500D01*
X152058514Y-45284815D01*
X152037872Y-45268181D01*
X148394819Y-41625128D01*
X148361334Y-41563805D01*
X148358500Y-41537447D01*
X148358500Y-41251252D01*
X148378185Y-41184213D01*
X148430989Y-41138458D01*
X148500147Y-41128514D01*
X148563703Y-41157539D01*
G37*
%TD.AperFunction*%
%TA.AperFunction,Conductor*%
G36*
X140918378Y-39418124D02*
G01*
X140974312Y-39459995D01*
X140998729Y-39525460D01*
X140996662Y-39558497D01*
X140971200Y-39686504D01*
X140971200Y-39863895D01*
X141005803Y-40037858D01*
X141005806Y-40037867D01*
X141073683Y-40201740D01*
X141073690Y-40201753D01*
X141149590Y-40315344D01*
X141170468Y-40382021D01*
X141151984Y-40449401D01*
X141115380Y-40487337D01*
X141013161Y-40555638D01*
X140887738Y-40681061D01*
X140887735Y-40681065D01*
X140789190Y-40828546D01*
X140789183Y-40828559D01*
X140721306Y-40992432D01*
X140721303Y-40992441D01*
X140686700Y-41166404D01*
X140686700Y-41343795D01*
X140721303Y-41517758D01*
X140721306Y-41517767D01*
X140789183Y-41681640D01*
X140789190Y-41681653D01*
X140887735Y-41829134D01*
X140887738Y-41829138D01*
X141013161Y-41954561D01*
X141013165Y-41954564D01*
X141160646Y-42053109D01*
X141160659Y-42053116D01*
X141239236Y-42085663D01*
X141324534Y-42120994D01*
X141324536Y-42120994D01*
X141324541Y-42120996D01*
X141498504Y-42155599D01*
X141498507Y-42155600D01*
X141498509Y-42155600D01*
X141675893Y-42155600D01*
X141675894Y-42155599D01*
X141743579Y-42142136D01*
X141849858Y-42120996D01*
X141849861Y-42120994D01*
X141849866Y-42120994D01*
X142013747Y-42053113D01*
X142161235Y-41954564D01*
X142286664Y-41829135D01*
X142385213Y-41681647D01*
X142396339Y-41654785D01*
X142440179Y-41600384D01*
X142506473Y-41578318D01*
X142574172Y-41595597D01*
X142621783Y-41646733D01*
X142634900Y-41702239D01*
X142634900Y-41763695D01*
X142669503Y-41937658D01*
X142669506Y-41937667D01*
X142737383Y-42101540D01*
X142737390Y-42101553D01*
X142835935Y-42249034D01*
X142835938Y-42249038D01*
X142961361Y-42374461D01*
X142961365Y-42374464D01*
X143108846Y-42473009D01*
X143108859Y-42473016D01*
X143213505Y-42516361D01*
X143272734Y-42540894D01*
X143272736Y-42540894D01*
X143272741Y-42540896D01*
X143446704Y-42575499D01*
X143446707Y-42575500D01*
X143446709Y-42575500D01*
X143624093Y-42575500D01*
X143624094Y-42575499D01*
X143686279Y-42563130D01*
X143798058Y-42540896D01*
X143798061Y-42540894D01*
X143798066Y-42540894D01*
X143961947Y-42473013D01*
X144109435Y-42374464D01*
X144115815Y-42368084D01*
X144177136Y-42334596D01*
X144246828Y-42339577D01*
X144302764Y-42381446D01*
X144327184Y-42446909D01*
X144327500Y-42455761D01*
X144327500Y-42793555D01*
X144329977Y-42812366D01*
X144319209Y-42881401D01*
X144272828Y-42933656D01*
X144205559Y-42952540D01*
X144182847Y-42950167D01*
X144152970Y-42944224D01*
X144128716Y-42939400D01*
X143941484Y-42939400D01*
X143941479Y-42939400D01*
X143757856Y-42975925D01*
X143757848Y-42975927D01*
X143584871Y-43047576D01*
X143584862Y-43047581D01*
X143447952Y-43139062D01*
X143381274Y-43159940D01*
X143313894Y-43141455D01*
X143272329Y-43099080D01*
X143213285Y-42999240D01*
X143213276Y-42999229D01*
X143097070Y-42883023D01*
X143097062Y-42883017D01*
X143018881Y-42836781D01*
X142955598Y-42799356D01*
X142955597Y-42799355D01*
X142955596Y-42799355D01*
X142955593Y-42799354D01*
X142797773Y-42753502D01*
X142797767Y-42753501D01*
X142760901Y-42750600D01*
X142760894Y-42750600D01*
X140979506Y-42750600D01*
X140979498Y-42750600D01*
X140942632Y-42753501D01*
X140942626Y-42753502D01*
X140784806Y-42799354D01*
X140784803Y-42799355D01*
X140643337Y-42883017D01*
X140643329Y-42883023D01*
X140527123Y-42999229D01*
X140527117Y-42999237D01*
X140462547Y-43108421D01*
X140411478Y-43156104D01*
X140355815Y-43169300D01*
X140220900Y-43169300D01*
X140153861Y-43149615D01*
X140108106Y-43096811D01*
X140096900Y-43045300D01*
X140096900Y-40188452D01*
X140116585Y-40121413D01*
X140133219Y-40100771D01*
X140458229Y-39775761D01*
X140787366Y-39446623D01*
X140848687Y-39413140D01*
X140918378Y-39418124D01*
G37*
%TD.AperFunction*%
%TA.AperFunction,Conductor*%
G36*
X152018273Y-33188283D02*
G01*
X152085296Y-33208017D01*
X152131012Y-33260854D01*
X152140905Y-33330020D01*
X152139798Y-33336473D01*
X152134500Y-33363109D01*
X152134500Y-33540495D01*
X152169103Y-33714458D01*
X152169106Y-33714467D01*
X152236983Y-33878340D01*
X152236990Y-33878353D01*
X152335535Y-34025834D01*
X152335538Y-34025838D01*
X152460961Y-34151261D01*
X152460965Y-34151264D01*
X152608446Y-34249809D01*
X152608459Y-34249816D01*
X152706781Y-34290541D01*
X152772334Y-34317694D01*
X152819415Y-34327059D01*
X152881323Y-34359441D01*
X152882904Y-34360994D01*
X153025181Y-34503271D01*
X153058666Y-34564594D01*
X153061500Y-34590952D01*
X153061500Y-34748047D01*
X153041815Y-34815086D01*
X153025181Y-34835728D01*
X151106283Y-36754625D01*
X151044960Y-36788110D01*
X150975268Y-36783126D01*
X150919335Y-36741254D01*
X150915500Y-36735835D01*
X150832464Y-36611565D01*
X150832461Y-36611561D01*
X150707038Y-36486138D01*
X150707034Y-36486135D01*
X150559553Y-36387590D01*
X150559540Y-36387583D01*
X150395667Y-36319706D01*
X150395658Y-36319703D01*
X150221694Y-36285100D01*
X150221691Y-36285100D01*
X150168453Y-36285100D01*
X150101414Y-36265415D01*
X150080776Y-36248785D01*
X150023733Y-36191742D01*
X150023732Y-36191741D01*
X150023730Y-36191739D01*
X150023728Y-36191738D01*
X149943953Y-36138434D01*
X149943951Y-36138432D01*
X149943951Y-36138433D01*
X149921285Y-36123287D01*
X149865753Y-36100286D01*
X149840792Y-36089947D01*
X149807453Y-36076137D01*
X149797427Y-36074143D01*
X149747029Y-36064118D01*
X149686610Y-36052100D01*
X149686607Y-36052100D01*
X149686606Y-36052100D01*
X149586252Y-36052100D01*
X149519213Y-36032415D01*
X149498571Y-36015781D01*
X149206645Y-35723855D01*
X149173160Y-35662532D01*
X149178144Y-35592840D01*
X149190406Y-35571073D01*
X149189320Y-35570403D01*
X149193110Y-35564257D01*
X149193112Y-35564256D01*
X149285214Y-35414934D01*
X149340399Y-35248397D01*
X149350900Y-35145609D01*
X149350899Y-34145592D01*
X149340399Y-34042803D01*
X149285214Y-33876266D01*
X149193112Y-33726944D01*
X149069056Y-33602888D01*
X148919734Y-33510786D01*
X148753197Y-33455601D01*
X148753195Y-33455600D01*
X148650416Y-33445100D01*
X148073352Y-33445100D01*
X148006313Y-33425415D01*
X147985671Y-33408781D01*
X147973953Y-33397063D01*
X147940468Y-33335740D01*
X147945452Y-33266048D01*
X147987324Y-33210115D01*
X148052788Y-33185698D01*
X148061694Y-33185383D01*
X152018273Y-33188283D01*
G37*
%TD.AperFunction*%
%TD*%
M02*
