M48
; DRILL file {KiCad 9.0.2} date 2025-09-04T16:38:03+0300
; FORMAT={-:-/ absolute / metric / decimal}
; #@! TF.CreationDate,2025-09-04T16:38:03+03:00
; #@! TF.GenerationSoftware,Kicad,Pcbnew,9.0.2
; #@! TF.FileFunction,Plated,1,2,PTH
FMAT,2
METRIC
; #@! TA.AperFunction,Plated,PTH,ViaDrill
T1C0.400
; #@! TA.AperFunction,Plated,PTH,ComponentDrill
T2C1.000
%
G90
G05
T1
X130.308Y-39.054
X138.164Y-42.951
X138.494Y-54.0
X138.516Y-38.692
X138.608Y-46.076
X140.049Y-36.026
X140.144Y-53.569
X140.296Y-42.951
X140.296Y-44.12
X141.587Y-41.255
X141.872Y-39.775
X143.231Y-38.425
X143.535Y-41.675
X143.586Y-55.067
X144.035Y-43.89
X144.375Y-34.646
X145.633Y-47.508
X146.427Y-49.614
X148.076Y-49.614
X148.251Y-43.535
X148.476Y-45.844
X148.869Y-44.602
X149.388Y-37.991
X149.557Y-35.792
X150.133Y-37.186
X151.617Y-41.817
X151.892Y-44.729
X152.072Y-43.266
X152.072Y-46.205
X152.473Y-54.611
X153.035Y-33.452
X155.71Y-37.893
X157.448Y-42.37
X157.976Y-47.241
X160.578Y-41.735
X161.925Y-45.39
X164.929Y-34.951
T2
X129.464Y-42.907
X129.464Y-45.447
X131.191Y-61.149
X133.731Y-61.149
X136.271Y-61.149
X138.811Y-61.149
X141.351Y-61.149
X143.891Y-61.149
X146.431Y-61.149
X148.971Y-61.149
X151.511Y-61.149
X156.337Y-61.204
X158.877Y-61.204
X161.417Y-61.204
X162.555Y-37.694
X162.555Y-40.234
X162.555Y-42.774
X163.957Y-61.204
X164.897Y-48.158
X164.897Y-50.698
X164.897Y-53.238
X164.897Y-55.778
X165.095Y-37.694
X165.095Y-40.234
X165.095Y-42.774
M30
