%TF.GenerationSoftware,KiCad,Pcbnew,9.0.2*%
%TF.CreationDate,2025-09-04T16:38:10+03:00*%
%TF.ProjectId,MCU Data Logger,4d435520-4461-4746-9120-4c6f67676572,rev?*%
%TF.SameCoordinates,Original*%
%TF.FileFunction,Soldermask,Top*%
%TF.FilePolarity,Negative*%
%FSLAX46Y46*%
G04 Gerber Fmt 4.6, Leading zero omitted, Abs format (unit mm)*
G04 Created by KiCad (PCBNEW 9.0.2) date 2025-09-04 16:38:10*
%MOMM*%
%LPD*%
G01*
G04 APERTURE LIST*
G04 Aperture macros list*
%AMRoundRect*
0 Rectangle with rounded corners*
0 $1 Rounding radius*
0 $2 $3 $4 $5 $6 $7 $8 $9 X,Y pos of 4 corners*
0 Add a 4 corners polygon primitive as box body*
4,1,4,$2,$3,$4,$5,$6,$7,$8,$9,$2,$3,0*
0 Add four circle primitives for the rounded corners*
1,1,$1+$1,$2,$3*
1,1,$1+$1,$4,$5*
1,1,$1+$1,$6,$7*
1,1,$1+$1,$8,$9*
0 Add four rect primitives between the rounded corners*
20,1,$1+$1,$2,$3,$4,$5,0*
20,1,$1+$1,$4,$5,$6,$7,0*
20,1,$1+$1,$6,$7,$8,$9,0*
20,1,$1+$1,$8,$9,$2,$3,0*%
G04 Aperture macros list end*
%ADD10RoundRect,0.250000X0.262500X0.450000X-0.262500X0.450000X-0.262500X-0.450000X0.262500X-0.450000X0*%
%ADD11RoundRect,0.250000X-0.262500X-0.450000X0.262500X-0.450000X0.262500X0.450000X-0.262500X0.450000X0*%
%ADD12RoundRect,0.250000X-0.475000X0.250000X-0.475000X-0.250000X0.475000X-0.250000X0.475000X0.250000X0*%
%ADD13RoundRect,0.250000X0.250000X0.475000X-0.250000X0.475000X-0.250000X-0.475000X0.250000X-0.475000X0*%
%ADD14R,1.700000X1.700000*%
%ADD15C,1.700000*%
%ADD16RoundRect,0.250001X0.949999X-1.499999X0.949999X1.499999X-0.949999X1.499999X-0.949999X-1.499999X0*%
%ADD17C,2.100000*%
%ADD18RoundRect,0.150000X-0.825000X-0.150000X0.825000X-0.150000X0.825000X0.150000X-0.825000X0.150000X0*%
%ADD19RoundRect,0.094250X-0.742750X-0.282750X0.742750X-0.282750X0.742750X0.282750X-0.742750X0.282750X0*%
%ADD20RoundRect,0.094250X-0.282750X-0.742750X0.282750X-0.742750X0.282750X0.742750X-0.282750X0.742750X0*%
%ADD21RoundRect,0.243750X-0.243750X-0.456250X0.243750X-0.456250X0.243750X0.456250X-0.243750X0.456250X0*%
%ADD22RoundRect,0.250000X-0.250000X-0.475000X0.250000X-0.475000X0.250000X0.475000X-0.250000X0.475000X0*%
%ADD23RoundRect,0.250001X1.499999X0.949999X-1.499999X0.949999X-1.499999X-0.949999X1.499999X-0.949999X0*%
%ADD24RoundRect,0.243750X-0.456250X0.243750X-0.456250X-0.243750X0.456250X-0.243750X0.456250X0.243750X0*%
%ADD25RoundRect,0.099250X-0.987750X-0.297750X0.987750X-0.297750X0.987750X0.297750X-0.987750X0.297750X0*%
%ADD26RoundRect,0.250000X0.450000X-0.262500X0.450000X0.262500X-0.450000X0.262500X-0.450000X-0.262500X0*%
G04 APERTURE END LIST*
D10*
%TO.C,R5*%
X135635500Y-57150000D03*
X133810500Y-57150000D03*
%TD*%
D11*
%TO.C,R1*%
X144375500Y-34645600D03*
X146200500Y-34645600D03*
%TD*%
D12*
%TO.C,C5*%
X133908800Y-43754001D03*
X133908800Y-45653999D03*
%TD*%
D13*
%TO.C,C1*%
X144905499Y-57150000D03*
X143005501Y-57150000D03*
%TD*%
D14*
%TO.C,ICSP*%
X162555000Y-37693600D03*
D15*
X165095000Y-37693600D03*
X162555000Y-40233600D03*
X165095000Y-40233600D03*
X162555000Y-42773600D03*
X165095000Y-42773600D03*
%TD*%
D10*
%TO.C,R4*%
X140251800Y-57150000D03*
X138426800Y-57150000D03*
%TD*%
D16*
%TO.C,Y2*%
X129667000Y-55838401D03*
X129667000Y-50638399D03*
%TD*%
D17*
%TO.C,H1*%
X167640000Y-33070800D03*
%TD*%
D18*
%TO.C,U1*%
X136920200Y-42281100D03*
X136920200Y-43551100D03*
X136920200Y-44821100D03*
X136920200Y-46091100D03*
X141870200Y-46091100D03*
X141870200Y-44821100D03*
X141870200Y-43551100D03*
X141870200Y-42281100D03*
%TD*%
%TO.C,U2*%
X136793200Y-34614600D03*
X136793200Y-35884600D03*
X136793200Y-37154600D03*
X136793200Y-38424600D03*
X141743200Y-38424600D03*
X141743200Y-37154600D03*
X141743200Y-35884600D03*
X141743200Y-34614600D03*
%TD*%
D17*
%TO.C,H3*%
X167640000Y-63500000D03*
%TD*%
D19*
%TO.C,U3*%
X145563000Y-40950000D03*
X145563000Y-41750000D03*
X145563000Y-42550000D03*
X145563000Y-43350000D03*
X145563000Y-44150000D03*
X145563000Y-44950000D03*
X145563000Y-45750000D03*
X145563000Y-46550000D03*
D20*
X146933000Y-47920000D03*
X147733000Y-47920000D03*
X148533000Y-47920000D03*
X149333000Y-47920000D03*
X150133000Y-47920000D03*
X150933000Y-47920000D03*
X151733000Y-47920000D03*
X152533000Y-47920000D03*
D19*
X153903000Y-46550000D03*
X153903000Y-45750000D03*
X153903000Y-44950000D03*
X153903000Y-44150000D03*
X153903000Y-43350000D03*
X153903000Y-42550000D03*
X153903000Y-41750000D03*
X153903000Y-40950000D03*
D20*
X152533000Y-39580000D03*
X151733000Y-39580000D03*
X150933000Y-39580000D03*
X150133000Y-39580000D03*
X149333000Y-39580000D03*
X148533000Y-39580000D03*
X147733000Y-39580000D03*
X146933000Y-39580000D03*
%TD*%
D14*
%TO.C,UART*%
X163957000Y-61204000D03*
D15*
X161417000Y-61204000D03*
X158877001Y-61204000D03*
X156337000Y-61204000D03*
%TD*%
D17*
%TO.C,H4*%
X127000000Y-63500000D03*
%TD*%
D21*
%TO.C,D1*%
X157090499Y-34713000D03*
X158965501Y-34713000D03*
%TD*%
D14*
%TO.C,I2C*%
X164896800Y-55778400D03*
D15*
X164896800Y-53238400D03*
X164896800Y-50698401D03*
X164896800Y-48158400D03*
%TD*%
D22*
%TO.C,C3*%
X152238001Y-57150000D03*
X154137999Y-57150000D03*
%TD*%
D14*
%TO.C,DIO*%
X131191000Y-61149000D03*
D15*
X133731000Y-61149000D03*
X136270999Y-61149000D03*
X138811000Y-61149000D03*
X141351000Y-61149000D03*
X143891000Y-61149000D03*
X146431000Y-61149000D03*
X148971001Y-61149000D03*
X151511000Y-61149000D03*
%TD*%
D17*
%TO.C,H2*%
X127000000Y-33070800D03*
%TD*%
D22*
%TO.C,C4*%
X157058001Y-40995600D03*
X158957999Y-40995600D03*
%TD*%
D11*
%TO.C,R3*%
X152249500Y-34668000D03*
X154074500Y-34668000D03*
%TD*%
D23*
%TO.C,Y1*%
X152815601Y-52425600D03*
X147615599Y-52425600D03*
%TD*%
D11*
%TO.C,R7*%
X157075500Y-37947600D03*
X158900500Y-37947600D03*
%TD*%
D10*
%TO.C,R2*%
X150162900Y-34645600D03*
X148337900Y-34645600D03*
%TD*%
D24*
%TO.C,D2*%
X128739800Y-37162499D03*
X128739800Y-39037501D03*
%TD*%
D25*
%TO.C,U4*%
X136920200Y-50012600D03*
X136920200Y-51282600D03*
X136920200Y-52552600D03*
X136920200Y-53822600D03*
X141870200Y-53822600D03*
X141870200Y-52552600D03*
X141870200Y-51282600D03*
X141870200Y-50012600D03*
%TD*%
D14*
%TO.C,VCC*%
X129463800Y-42906800D03*
D15*
X129463800Y-45446800D03*
%TD*%
D22*
%TO.C,C2*%
X147621801Y-57150000D03*
X149521799Y-57150000D03*
%TD*%
D26*
%TO.C,R6*%
X131876800Y-39012500D03*
X131876800Y-37187500D03*
%TD*%
M02*
