%TF.GenerationSoftware,KiCad,Pcbnew,9.0.2*%
%TF.CreationDate,2025-09-04T16:38:10+03:00*%
%TF.ProjectId,MCU Data Logger,4d435520-4461-4746-9120-4c6f67676572,rev?*%
%TF.SameCoordinates,Original*%
%TF.FileFunction,Legend,Bot*%
%TF.FilePolarity,Positive*%
%FSLAX46Y46*%
G04 Gerber Fmt 4.6, Leading zero omitted, Abs format (unit mm)*
G04 Created by KiCad (PCBNEW 9.0.2) date 2025-09-04 16:38:10*
%MOMM*%
%LPD*%
G01*
G04 APERTURE LIST*
%ADD10C,0.300000*%
%ADD11C,0.200000*%
G04 APERTURE END LIST*
D10*
X160557689Y-38498286D02*
X160557689Y-36498286D01*
X160557689Y-36498286D02*
X160200546Y-36498286D01*
X160200546Y-36498286D02*
X159986260Y-36593524D01*
X159986260Y-36593524D02*
X159843403Y-36784000D01*
X159843403Y-36784000D02*
X159771974Y-36974476D01*
X159771974Y-36974476D02*
X159700546Y-37355428D01*
X159700546Y-37355428D02*
X159700546Y-37641143D01*
X159700546Y-37641143D02*
X159771974Y-38022095D01*
X159771974Y-38022095D02*
X159843403Y-38212571D01*
X159843403Y-38212571D02*
X159986260Y-38403048D01*
X159986260Y-38403048D02*
X160200546Y-38498286D01*
X160200546Y-38498286D02*
X160557689Y-38498286D01*
X158414832Y-38498286D02*
X158414832Y-37450667D01*
X158414832Y-37450667D02*
X158486260Y-37260190D01*
X158486260Y-37260190D02*
X158629117Y-37164952D01*
X158629117Y-37164952D02*
X158914832Y-37164952D01*
X158914832Y-37164952D02*
X159057689Y-37260190D01*
X158414832Y-38403048D02*
X158557689Y-38498286D01*
X158557689Y-38498286D02*
X158914832Y-38498286D01*
X158914832Y-38498286D02*
X159057689Y-38403048D01*
X159057689Y-38403048D02*
X159129117Y-38212571D01*
X159129117Y-38212571D02*
X159129117Y-38022095D01*
X159129117Y-38022095D02*
X159057689Y-37831619D01*
X159057689Y-37831619D02*
X158914832Y-37736381D01*
X158914832Y-37736381D02*
X158557689Y-37736381D01*
X158557689Y-37736381D02*
X158414832Y-37641143D01*
X157914831Y-37164952D02*
X157343403Y-37164952D01*
X157700546Y-36498286D02*
X157700546Y-38212571D01*
X157700546Y-38212571D02*
X157629117Y-38403048D01*
X157629117Y-38403048D02*
X157486260Y-38498286D01*
X157486260Y-38498286D02*
X157343403Y-38498286D01*
X156200546Y-38498286D02*
X156200546Y-37450667D01*
X156200546Y-37450667D02*
X156271974Y-37260190D01*
X156271974Y-37260190D02*
X156414831Y-37164952D01*
X156414831Y-37164952D02*
X156700546Y-37164952D01*
X156700546Y-37164952D02*
X156843403Y-37260190D01*
X156200546Y-38403048D02*
X156343403Y-38498286D01*
X156343403Y-38498286D02*
X156700546Y-38498286D01*
X156700546Y-38498286D02*
X156843403Y-38403048D01*
X156843403Y-38403048D02*
X156914831Y-38212571D01*
X156914831Y-38212571D02*
X156914831Y-38022095D01*
X156914831Y-38022095D02*
X156843403Y-37831619D01*
X156843403Y-37831619D02*
X156700546Y-37736381D01*
X156700546Y-37736381D02*
X156343403Y-37736381D01*
X156343403Y-37736381D02*
X156200546Y-37641143D01*
X153629117Y-38498286D02*
X154343403Y-38498286D01*
X154343403Y-38498286D02*
X154343403Y-36498286D01*
X152914831Y-38498286D02*
X153057688Y-38403048D01*
X153057688Y-38403048D02*
X153129117Y-38307809D01*
X153129117Y-38307809D02*
X153200545Y-38117333D01*
X153200545Y-38117333D02*
X153200545Y-37545905D01*
X153200545Y-37545905D02*
X153129117Y-37355428D01*
X153129117Y-37355428D02*
X153057688Y-37260190D01*
X153057688Y-37260190D02*
X152914831Y-37164952D01*
X152914831Y-37164952D02*
X152700545Y-37164952D01*
X152700545Y-37164952D02*
X152557688Y-37260190D01*
X152557688Y-37260190D02*
X152486260Y-37355428D01*
X152486260Y-37355428D02*
X152414831Y-37545905D01*
X152414831Y-37545905D02*
X152414831Y-38117333D01*
X152414831Y-38117333D02*
X152486260Y-38307809D01*
X152486260Y-38307809D02*
X152557688Y-38403048D01*
X152557688Y-38403048D02*
X152700545Y-38498286D01*
X152700545Y-38498286D02*
X152914831Y-38498286D01*
X151129117Y-37164952D02*
X151129117Y-38784000D01*
X151129117Y-38784000D02*
X151200545Y-38974476D01*
X151200545Y-38974476D02*
X151271974Y-39069714D01*
X151271974Y-39069714D02*
X151414831Y-39164952D01*
X151414831Y-39164952D02*
X151629117Y-39164952D01*
X151629117Y-39164952D02*
X151771974Y-39069714D01*
X151129117Y-38403048D02*
X151271974Y-38498286D01*
X151271974Y-38498286D02*
X151557688Y-38498286D01*
X151557688Y-38498286D02*
X151700545Y-38403048D01*
X151700545Y-38403048D02*
X151771974Y-38307809D01*
X151771974Y-38307809D02*
X151843402Y-38117333D01*
X151843402Y-38117333D02*
X151843402Y-37545905D01*
X151843402Y-37545905D02*
X151771974Y-37355428D01*
X151771974Y-37355428D02*
X151700545Y-37260190D01*
X151700545Y-37260190D02*
X151557688Y-37164952D01*
X151557688Y-37164952D02*
X151271974Y-37164952D01*
X151271974Y-37164952D02*
X151129117Y-37260190D01*
X149771974Y-37164952D02*
X149771974Y-38784000D01*
X149771974Y-38784000D02*
X149843402Y-38974476D01*
X149843402Y-38974476D02*
X149914831Y-39069714D01*
X149914831Y-39069714D02*
X150057688Y-39164952D01*
X150057688Y-39164952D02*
X150271974Y-39164952D01*
X150271974Y-39164952D02*
X150414831Y-39069714D01*
X149771974Y-38403048D02*
X149914831Y-38498286D01*
X149914831Y-38498286D02*
X150200545Y-38498286D01*
X150200545Y-38498286D02*
X150343402Y-38403048D01*
X150343402Y-38403048D02*
X150414831Y-38307809D01*
X150414831Y-38307809D02*
X150486259Y-38117333D01*
X150486259Y-38117333D02*
X150486259Y-37545905D01*
X150486259Y-37545905D02*
X150414831Y-37355428D01*
X150414831Y-37355428D02*
X150343402Y-37260190D01*
X150343402Y-37260190D02*
X150200545Y-37164952D01*
X150200545Y-37164952D02*
X149914831Y-37164952D01*
X149914831Y-37164952D02*
X149771974Y-37260190D01*
X148486259Y-38403048D02*
X148629116Y-38498286D01*
X148629116Y-38498286D02*
X148914831Y-38498286D01*
X148914831Y-38498286D02*
X149057688Y-38403048D01*
X149057688Y-38403048D02*
X149129116Y-38212571D01*
X149129116Y-38212571D02*
X149129116Y-37450667D01*
X149129116Y-37450667D02*
X149057688Y-37260190D01*
X149057688Y-37260190D02*
X148914831Y-37164952D01*
X148914831Y-37164952D02*
X148629116Y-37164952D01*
X148629116Y-37164952D02*
X148486259Y-37260190D01*
X148486259Y-37260190D02*
X148414831Y-37450667D01*
X148414831Y-37450667D02*
X148414831Y-37641143D01*
X148414831Y-37641143D02*
X149129116Y-37831619D01*
X147771974Y-38498286D02*
X147771974Y-37164952D01*
X147771974Y-37545905D02*
X147700545Y-37355428D01*
X147700545Y-37355428D02*
X147629117Y-37260190D01*
X147629117Y-37260190D02*
X147486259Y-37164952D01*
X147486259Y-37164952D02*
X147343402Y-37164952D01*
X160700546Y-39718174D02*
X160343403Y-41718174D01*
X160343403Y-41718174D02*
X160057689Y-40289602D01*
X160057689Y-40289602D02*
X159771974Y-41718174D01*
X159771974Y-41718174D02*
X159414832Y-39718174D01*
X158843403Y-41718174D02*
X158843403Y-40384840D01*
X158843403Y-39718174D02*
X158914831Y-39813412D01*
X158914831Y-39813412D02*
X158843403Y-39908650D01*
X158843403Y-39908650D02*
X158771974Y-39813412D01*
X158771974Y-39813412D02*
X158843403Y-39718174D01*
X158843403Y-39718174D02*
X158843403Y-39908650D01*
X158343402Y-40384840D02*
X157771974Y-40384840D01*
X158129117Y-39718174D02*
X158129117Y-41432459D01*
X158129117Y-41432459D02*
X158057688Y-41622936D01*
X158057688Y-41622936D02*
X157914831Y-41718174D01*
X157914831Y-41718174D02*
X157771974Y-41718174D01*
X157271974Y-41718174D02*
X157271974Y-39718174D01*
X156629117Y-41718174D02*
X156629117Y-40670555D01*
X156629117Y-40670555D02*
X156700545Y-40480078D01*
X156700545Y-40480078D02*
X156843402Y-40384840D01*
X156843402Y-40384840D02*
X157057688Y-40384840D01*
X157057688Y-40384840D02*
X157200545Y-40480078D01*
X157200545Y-40480078D02*
X157271974Y-40575316D01*
X154843402Y-41146745D02*
X154129117Y-41146745D01*
X154986259Y-41718174D02*
X154486259Y-39718174D01*
X154486259Y-39718174D02*
X153986259Y-41718174D01*
X153700545Y-39718174D02*
X152843403Y-39718174D01*
X153271974Y-41718174D02*
X153271974Y-39718174D01*
X152343403Y-41718174D02*
X152343403Y-39718174D01*
X152343403Y-39718174D02*
X151843403Y-41146745D01*
X151843403Y-41146745D02*
X151343403Y-39718174D01*
X151343403Y-39718174D02*
X151343403Y-41718174D01*
X150057688Y-41622936D02*
X150200545Y-41718174D01*
X150200545Y-41718174D02*
X150486260Y-41718174D01*
X150486260Y-41718174D02*
X150629117Y-41622936D01*
X150629117Y-41622936D02*
X150700545Y-41432459D01*
X150700545Y-41432459D02*
X150700545Y-40670555D01*
X150700545Y-40670555D02*
X150629117Y-40480078D01*
X150629117Y-40480078D02*
X150486260Y-40384840D01*
X150486260Y-40384840D02*
X150200545Y-40384840D01*
X150200545Y-40384840D02*
X150057688Y-40480078D01*
X150057688Y-40480078D02*
X149986260Y-40670555D01*
X149986260Y-40670555D02*
X149986260Y-40861031D01*
X149986260Y-40861031D02*
X150700545Y-41051507D01*
X148700546Y-40384840D02*
X148700546Y-42003888D01*
X148700546Y-42003888D02*
X148771974Y-42194364D01*
X148771974Y-42194364D02*
X148843403Y-42289602D01*
X148843403Y-42289602D02*
X148986260Y-42384840D01*
X148986260Y-42384840D02*
X149200546Y-42384840D01*
X149200546Y-42384840D02*
X149343403Y-42289602D01*
X148700546Y-41622936D02*
X148843403Y-41718174D01*
X148843403Y-41718174D02*
X149129117Y-41718174D01*
X149129117Y-41718174D02*
X149271974Y-41622936D01*
X149271974Y-41622936D02*
X149343403Y-41527697D01*
X149343403Y-41527697D02*
X149414831Y-41337221D01*
X149414831Y-41337221D02*
X149414831Y-40765793D01*
X149414831Y-40765793D02*
X149343403Y-40575316D01*
X149343403Y-40575316D02*
X149271974Y-40480078D01*
X149271974Y-40480078D02*
X149129117Y-40384840D01*
X149129117Y-40384840D02*
X148843403Y-40384840D01*
X148843403Y-40384840D02*
X148700546Y-40480078D01*
X147343403Y-41718174D02*
X147343403Y-40670555D01*
X147343403Y-40670555D02*
X147414831Y-40480078D01*
X147414831Y-40480078D02*
X147557688Y-40384840D01*
X147557688Y-40384840D02*
X147843403Y-40384840D01*
X147843403Y-40384840D02*
X147986260Y-40480078D01*
X147343403Y-41622936D02*
X147486260Y-41718174D01*
X147486260Y-41718174D02*
X147843403Y-41718174D01*
X147843403Y-41718174D02*
X147986260Y-41622936D01*
X147986260Y-41622936D02*
X148057688Y-41432459D01*
X148057688Y-41432459D02*
X148057688Y-41241983D01*
X148057688Y-41241983D02*
X147986260Y-41051507D01*
X147986260Y-41051507D02*
X147843403Y-40956269D01*
X147843403Y-40956269D02*
X147486260Y-40956269D01*
X147486260Y-40956269D02*
X147343403Y-40861031D01*
X146771974Y-39718174D02*
X145843402Y-39718174D01*
X145843402Y-39718174D02*
X146343402Y-40480078D01*
X146343402Y-40480078D02*
X146129117Y-40480078D01*
X146129117Y-40480078D02*
X145986260Y-40575316D01*
X145986260Y-40575316D02*
X145914831Y-40670555D01*
X145914831Y-40670555D02*
X145843402Y-40861031D01*
X145843402Y-40861031D02*
X145843402Y-41337221D01*
X145843402Y-41337221D02*
X145914831Y-41527697D01*
X145914831Y-41527697D02*
X145986260Y-41622936D01*
X145986260Y-41622936D02*
X146129117Y-41718174D01*
X146129117Y-41718174D02*
X146557688Y-41718174D01*
X146557688Y-41718174D02*
X146700545Y-41622936D01*
X146700545Y-41622936D02*
X146771974Y-41527697D01*
X145271974Y-39908650D02*
X145200546Y-39813412D01*
X145200546Y-39813412D02*
X145057689Y-39718174D01*
X145057689Y-39718174D02*
X144700546Y-39718174D01*
X144700546Y-39718174D02*
X144557689Y-39813412D01*
X144557689Y-39813412D02*
X144486260Y-39908650D01*
X144486260Y-39908650D02*
X144414831Y-40099126D01*
X144414831Y-40099126D02*
X144414831Y-40289602D01*
X144414831Y-40289602D02*
X144486260Y-40575316D01*
X144486260Y-40575316D02*
X145343403Y-41718174D01*
X145343403Y-41718174D02*
X144414831Y-41718174D01*
X143557689Y-40575316D02*
X143700546Y-40480078D01*
X143700546Y-40480078D02*
X143771975Y-40384840D01*
X143771975Y-40384840D02*
X143843403Y-40194364D01*
X143843403Y-40194364D02*
X143843403Y-40099126D01*
X143843403Y-40099126D02*
X143771975Y-39908650D01*
X143771975Y-39908650D02*
X143700546Y-39813412D01*
X143700546Y-39813412D02*
X143557689Y-39718174D01*
X143557689Y-39718174D02*
X143271975Y-39718174D01*
X143271975Y-39718174D02*
X143129118Y-39813412D01*
X143129118Y-39813412D02*
X143057689Y-39908650D01*
X143057689Y-39908650D02*
X142986260Y-40099126D01*
X142986260Y-40099126D02*
X142986260Y-40194364D01*
X142986260Y-40194364D02*
X143057689Y-40384840D01*
X143057689Y-40384840D02*
X143129118Y-40480078D01*
X143129118Y-40480078D02*
X143271975Y-40575316D01*
X143271975Y-40575316D02*
X143557689Y-40575316D01*
X143557689Y-40575316D02*
X143700546Y-40670555D01*
X143700546Y-40670555D02*
X143771975Y-40765793D01*
X143771975Y-40765793D02*
X143843403Y-40956269D01*
X143843403Y-40956269D02*
X143843403Y-41337221D01*
X143843403Y-41337221D02*
X143771975Y-41527697D01*
X143771975Y-41527697D02*
X143700546Y-41622936D01*
X143700546Y-41622936D02*
X143557689Y-41718174D01*
X143557689Y-41718174D02*
X143271975Y-41718174D01*
X143271975Y-41718174D02*
X143129118Y-41622936D01*
X143129118Y-41622936D02*
X143057689Y-41527697D01*
X143057689Y-41527697D02*
X142986260Y-41337221D01*
X142986260Y-41337221D02*
X142986260Y-40956269D01*
X142986260Y-40956269D02*
X143057689Y-40765793D01*
X143057689Y-40765793D02*
X143129118Y-40670555D01*
X143129118Y-40670555D02*
X143271975Y-40575316D01*
X142343404Y-41718174D02*
X142343404Y-39718174D01*
X142343404Y-39718174D02*
X141771975Y-39718174D01*
X141771975Y-39718174D02*
X141629118Y-39813412D01*
X141629118Y-39813412D02*
X141557689Y-39908650D01*
X141557689Y-39908650D02*
X141486261Y-40099126D01*
X141486261Y-40099126D02*
X141486261Y-40384840D01*
X141486261Y-40384840D02*
X141557689Y-40575316D01*
X141557689Y-40575316D02*
X141629118Y-40670555D01*
X141629118Y-40670555D02*
X141771975Y-40765793D01*
X141771975Y-40765793D02*
X142343404Y-40765793D01*
X159414832Y-44176157D02*
X158271975Y-44176157D01*
X156486260Y-43128538D02*
X156414832Y-43033300D01*
X156414832Y-43033300D02*
X156271975Y-42938062D01*
X156271975Y-42938062D02*
X155914832Y-42938062D01*
X155914832Y-42938062D02*
X155771975Y-43033300D01*
X155771975Y-43033300D02*
X155700546Y-43128538D01*
X155700546Y-43128538D02*
X155629117Y-43319014D01*
X155629117Y-43319014D02*
X155629117Y-43509490D01*
X155629117Y-43509490D02*
X155700546Y-43795204D01*
X155700546Y-43795204D02*
X156557689Y-44938062D01*
X156557689Y-44938062D02*
X155629117Y-44938062D01*
X154986261Y-44938062D02*
X154986261Y-42938062D01*
X154986261Y-42938062D02*
X154486261Y-44366633D01*
X154486261Y-44366633D02*
X153986261Y-42938062D01*
X153986261Y-42938062D02*
X153986261Y-44938062D01*
X152771975Y-43890443D02*
X152557689Y-43985681D01*
X152557689Y-43985681D02*
X152486260Y-44080919D01*
X152486260Y-44080919D02*
X152414832Y-44271395D01*
X152414832Y-44271395D02*
X152414832Y-44557109D01*
X152414832Y-44557109D02*
X152486260Y-44747585D01*
X152486260Y-44747585D02*
X152557689Y-44842824D01*
X152557689Y-44842824D02*
X152700546Y-44938062D01*
X152700546Y-44938062D02*
X153271975Y-44938062D01*
X153271975Y-44938062D02*
X153271975Y-42938062D01*
X153271975Y-42938062D02*
X152771975Y-42938062D01*
X152771975Y-42938062D02*
X152629118Y-43033300D01*
X152629118Y-43033300D02*
X152557689Y-43128538D01*
X152557689Y-43128538D02*
X152486260Y-43319014D01*
X152486260Y-43319014D02*
X152486260Y-43509490D01*
X152486260Y-43509490D02*
X152557689Y-43699966D01*
X152557689Y-43699966D02*
X152629118Y-43795204D01*
X152629118Y-43795204D02*
X152771975Y-43890443D01*
X152771975Y-43890443D02*
X153271975Y-43890443D01*
X150629118Y-43890443D02*
X150129118Y-43890443D01*
X149914832Y-44938062D02*
X150629118Y-44938062D01*
X150629118Y-44938062D02*
X150629118Y-42938062D01*
X150629118Y-42938062D02*
X149914832Y-42938062D01*
X149271975Y-43890443D02*
X148771975Y-43890443D01*
X148557689Y-44938062D02*
X149271975Y-44938062D01*
X149271975Y-44938062D02*
X149271975Y-42938062D01*
X149271975Y-42938062D02*
X148557689Y-42938062D01*
X147914832Y-44938062D02*
X147914832Y-42938062D01*
X147914832Y-42938062D02*
X147343403Y-42938062D01*
X147343403Y-42938062D02*
X147200546Y-43033300D01*
X147200546Y-43033300D02*
X147129117Y-43128538D01*
X147129117Y-43128538D02*
X147057689Y-43319014D01*
X147057689Y-43319014D02*
X147057689Y-43604728D01*
X147057689Y-43604728D02*
X147129117Y-43795204D01*
X147129117Y-43795204D02*
X147200546Y-43890443D01*
X147200546Y-43890443D02*
X147343403Y-43985681D01*
X147343403Y-43985681D02*
X147914832Y-43985681D01*
X145557689Y-44938062D02*
X146057689Y-43985681D01*
X146414832Y-44938062D02*
X146414832Y-42938062D01*
X146414832Y-42938062D02*
X145843403Y-42938062D01*
X145843403Y-42938062D02*
X145700546Y-43033300D01*
X145700546Y-43033300D02*
X145629117Y-43128538D01*
X145629117Y-43128538D02*
X145557689Y-43319014D01*
X145557689Y-43319014D02*
X145557689Y-43604728D01*
X145557689Y-43604728D02*
X145629117Y-43795204D01*
X145629117Y-43795204D02*
X145700546Y-43890443D01*
X145700546Y-43890443D02*
X145843403Y-43985681D01*
X145843403Y-43985681D02*
X146414832Y-43985681D01*
X144629117Y-42938062D02*
X144343403Y-42938062D01*
X144343403Y-42938062D02*
X144200546Y-43033300D01*
X144200546Y-43033300D02*
X144057689Y-43223776D01*
X144057689Y-43223776D02*
X143986260Y-43604728D01*
X143986260Y-43604728D02*
X143986260Y-44271395D01*
X143986260Y-44271395D02*
X144057689Y-44652347D01*
X144057689Y-44652347D02*
X144200546Y-44842824D01*
X144200546Y-44842824D02*
X144343403Y-44938062D01*
X144343403Y-44938062D02*
X144629117Y-44938062D01*
X144629117Y-44938062D02*
X144771975Y-44842824D01*
X144771975Y-44842824D02*
X144914832Y-44652347D01*
X144914832Y-44652347D02*
X144986260Y-44271395D01*
X144986260Y-44271395D02*
X144986260Y-43604728D01*
X144986260Y-43604728D02*
X144914832Y-43223776D01*
X144914832Y-43223776D02*
X144771975Y-43033300D01*
X144771975Y-43033300D02*
X144629117Y-42938062D01*
X143343403Y-44938062D02*
X143343403Y-42938062D01*
X143343403Y-42938062D02*
X142843403Y-44366633D01*
X142843403Y-44366633D02*
X142343403Y-42938062D01*
X142343403Y-42938062D02*
X142343403Y-44938062D01*
X159414832Y-47396045D02*
X158271975Y-47396045D01*
X155557689Y-48157950D02*
X156057689Y-47205569D01*
X156414832Y-48157950D02*
X156414832Y-46157950D01*
X156414832Y-46157950D02*
X155843403Y-46157950D01*
X155843403Y-46157950D02*
X155700546Y-46253188D01*
X155700546Y-46253188D02*
X155629117Y-46348426D01*
X155629117Y-46348426D02*
X155557689Y-46538902D01*
X155557689Y-46538902D02*
X155557689Y-46824616D01*
X155557689Y-46824616D02*
X155629117Y-47015092D01*
X155629117Y-47015092D02*
X155700546Y-47110331D01*
X155700546Y-47110331D02*
X155843403Y-47205569D01*
X155843403Y-47205569D02*
X156414832Y-47205569D01*
X155129117Y-46157950D02*
X154271975Y-46157950D01*
X154700546Y-48157950D02*
X154700546Y-46157950D01*
X152914832Y-47967473D02*
X152986260Y-48062712D01*
X152986260Y-48062712D02*
X153200546Y-48157950D01*
X153200546Y-48157950D02*
X153343403Y-48157950D01*
X153343403Y-48157950D02*
X153557689Y-48062712D01*
X153557689Y-48062712D02*
X153700546Y-47872235D01*
X153700546Y-47872235D02*
X153771975Y-47681759D01*
X153771975Y-47681759D02*
X153843403Y-47300807D01*
X153843403Y-47300807D02*
X153843403Y-47015092D01*
X153843403Y-47015092D02*
X153771975Y-46634140D01*
X153771975Y-46634140D02*
X153700546Y-46443664D01*
X153700546Y-46443664D02*
X153557689Y-46253188D01*
X153557689Y-46253188D02*
X153343403Y-46157950D01*
X153343403Y-46157950D02*
X153200546Y-46157950D01*
X153200546Y-46157950D02*
X152986260Y-46253188D01*
X152986260Y-46253188D02*
X152914832Y-46348426D01*
X159414832Y-50615933D02*
X158271975Y-50615933D01*
X156414832Y-51377838D02*
X156414832Y-49377838D01*
X155771974Y-49568314D02*
X155700546Y-49473076D01*
X155700546Y-49473076D02*
X155557689Y-49377838D01*
X155557689Y-49377838D02*
X155200546Y-49377838D01*
X155200546Y-49377838D02*
X155057689Y-49473076D01*
X155057689Y-49473076D02*
X154986260Y-49568314D01*
X154986260Y-49568314D02*
X154914831Y-49758790D01*
X154914831Y-49758790D02*
X154914831Y-49949266D01*
X154914831Y-49949266D02*
X154986260Y-50234980D01*
X154986260Y-50234980D02*
X155843403Y-51377838D01*
X155843403Y-51377838D02*
X154914831Y-51377838D01*
X153414832Y-51187361D02*
X153486260Y-51282600D01*
X153486260Y-51282600D02*
X153700546Y-51377838D01*
X153700546Y-51377838D02*
X153843403Y-51377838D01*
X153843403Y-51377838D02*
X154057689Y-51282600D01*
X154057689Y-51282600D02*
X154200546Y-51092123D01*
X154200546Y-51092123D02*
X154271975Y-50901647D01*
X154271975Y-50901647D02*
X154343403Y-50520695D01*
X154343403Y-50520695D02*
X154343403Y-50234980D01*
X154343403Y-50234980D02*
X154271975Y-49854028D01*
X154271975Y-49854028D02*
X154200546Y-49663552D01*
X154200546Y-49663552D02*
X154057689Y-49473076D01*
X154057689Y-49473076D02*
X153843403Y-49377838D01*
X153843403Y-49377838D02*
X153700546Y-49377838D01*
X153700546Y-49377838D02*
X153486260Y-49473076D01*
X153486260Y-49473076D02*
X153414832Y-49568314D01*
X152700546Y-51282600D02*
X152700546Y-51377838D01*
X152700546Y-51377838D02*
X152771975Y-51568314D01*
X152771975Y-51568314D02*
X152843403Y-51663552D01*
X150986260Y-51282600D02*
X150771975Y-51377838D01*
X150771975Y-51377838D02*
X150414832Y-51377838D01*
X150414832Y-51377838D02*
X150271975Y-51282600D01*
X150271975Y-51282600D02*
X150200546Y-51187361D01*
X150200546Y-51187361D02*
X150129117Y-50996885D01*
X150129117Y-50996885D02*
X150129117Y-50806409D01*
X150129117Y-50806409D02*
X150200546Y-50615933D01*
X150200546Y-50615933D02*
X150271975Y-50520695D01*
X150271975Y-50520695D02*
X150414832Y-50425457D01*
X150414832Y-50425457D02*
X150700546Y-50330219D01*
X150700546Y-50330219D02*
X150843403Y-50234980D01*
X150843403Y-50234980D02*
X150914832Y-50139742D01*
X150914832Y-50139742D02*
X150986260Y-49949266D01*
X150986260Y-49949266D02*
X150986260Y-49758790D01*
X150986260Y-49758790D02*
X150914832Y-49568314D01*
X150914832Y-49568314D02*
X150843403Y-49473076D01*
X150843403Y-49473076D02*
X150700546Y-49377838D01*
X150700546Y-49377838D02*
X150343403Y-49377838D01*
X150343403Y-49377838D02*
X150129117Y-49473076D01*
X149486261Y-51377838D02*
X149486261Y-49377838D01*
X149486261Y-49377838D02*
X148914832Y-49377838D01*
X148914832Y-49377838D02*
X148771975Y-49473076D01*
X148771975Y-49473076D02*
X148700546Y-49568314D01*
X148700546Y-49568314D02*
X148629118Y-49758790D01*
X148629118Y-49758790D02*
X148629118Y-50044504D01*
X148629118Y-50044504D02*
X148700546Y-50234980D01*
X148700546Y-50234980D02*
X148771975Y-50330219D01*
X148771975Y-50330219D02*
X148914832Y-50425457D01*
X148914832Y-50425457D02*
X149486261Y-50425457D01*
X147986261Y-51377838D02*
X147986261Y-49377838D01*
X147200546Y-51282600D02*
X147200546Y-51377838D01*
X147200546Y-51377838D02*
X147271975Y-51568314D01*
X147271975Y-51568314D02*
X147343403Y-51663552D01*
X144629117Y-49473076D02*
X144771975Y-49377838D01*
X144771975Y-49377838D02*
X144986260Y-49377838D01*
X144986260Y-49377838D02*
X145200546Y-49473076D01*
X145200546Y-49473076D02*
X145343403Y-49663552D01*
X145343403Y-49663552D02*
X145414832Y-49854028D01*
X145414832Y-49854028D02*
X145486260Y-50234980D01*
X145486260Y-50234980D02*
X145486260Y-50520695D01*
X145486260Y-50520695D02*
X145414832Y-50901647D01*
X145414832Y-50901647D02*
X145343403Y-51092123D01*
X145343403Y-51092123D02*
X145200546Y-51282600D01*
X145200546Y-51282600D02*
X144986260Y-51377838D01*
X144986260Y-51377838D02*
X144843403Y-51377838D01*
X144843403Y-51377838D02*
X144629117Y-51282600D01*
X144629117Y-51282600D02*
X144557689Y-51187361D01*
X144557689Y-51187361D02*
X144557689Y-50520695D01*
X144557689Y-50520695D02*
X144843403Y-50520695D01*
X143914832Y-51377838D02*
X143914832Y-49377838D01*
X143914832Y-49377838D02*
X143343403Y-49377838D01*
X143343403Y-49377838D02*
X143200546Y-49473076D01*
X143200546Y-49473076D02*
X143129117Y-49568314D01*
X143129117Y-49568314D02*
X143057689Y-49758790D01*
X143057689Y-49758790D02*
X143057689Y-50044504D01*
X143057689Y-50044504D02*
X143129117Y-50234980D01*
X143129117Y-50234980D02*
X143200546Y-50330219D01*
X143200546Y-50330219D02*
X143343403Y-50425457D01*
X143343403Y-50425457D02*
X143914832Y-50425457D01*
X142414832Y-51377838D02*
X142414832Y-49377838D01*
X141414831Y-49377838D02*
X141129117Y-49377838D01*
X141129117Y-49377838D02*
X140986260Y-49473076D01*
X140986260Y-49473076D02*
X140843403Y-49663552D01*
X140843403Y-49663552D02*
X140771974Y-50044504D01*
X140771974Y-50044504D02*
X140771974Y-50711171D01*
X140771974Y-50711171D02*
X140843403Y-51092123D01*
X140843403Y-51092123D02*
X140986260Y-51282600D01*
X140986260Y-51282600D02*
X141129117Y-51377838D01*
X141129117Y-51377838D02*
X141414831Y-51377838D01*
X141414831Y-51377838D02*
X141557689Y-51282600D01*
X141557689Y-51282600D02*
X141700546Y-51092123D01*
X141700546Y-51092123D02*
X141771974Y-50711171D01*
X141771974Y-50711171D02*
X141771974Y-50044504D01*
X141771974Y-50044504D02*
X141700546Y-49663552D01*
X141700546Y-49663552D02*
X141557689Y-49473076D01*
X141557689Y-49473076D02*
X141414831Y-49377838D01*
D11*
X162799926Y-56598512D02*
X162799926Y-55098512D01*
X162799926Y-55098512D02*
X162561831Y-55098512D01*
X162561831Y-55098512D02*
X162418974Y-55169941D01*
X162418974Y-55169941D02*
X162323736Y-55312798D01*
X162323736Y-55312798D02*
X162276117Y-55455655D01*
X162276117Y-55455655D02*
X162228498Y-55741369D01*
X162228498Y-55741369D02*
X162228498Y-55955655D01*
X162228498Y-55955655D02*
X162276117Y-56241369D01*
X162276117Y-56241369D02*
X162323736Y-56384226D01*
X162323736Y-56384226D02*
X162418974Y-56527084D01*
X162418974Y-56527084D02*
X162561831Y-56598512D01*
X162561831Y-56598512D02*
X162799926Y-56598512D01*
X161418974Y-56527084D02*
X161514212Y-56598512D01*
X161514212Y-56598512D02*
X161704688Y-56598512D01*
X161704688Y-56598512D02*
X161799926Y-56527084D01*
X161799926Y-56527084D02*
X161847545Y-56384226D01*
X161847545Y-56384226D02*
X161847545Y-55812798D01*
X161847545Y-55812798D02*
X161799926Y-55669941D01*
X161799926Y-55669941D02*
X161704688Y-55598512D01*
X161704688Y-55598512D02*
X161514212Y-55598512D01*
X161514212Y-55598512D02*
X161418974Y-55669941D01*
X161418974Y-55669941D02*
X161371355Y-55812798D01*
X161371355Y-55812798D02*
X161371355Y-55955655D01*
X161371355Y-55955655D02*
X161847545Y-56098512D01*
X160990402Y-56527084D02*
X160895164Y-56598512D01*
X160895164Y-56598512D02*
X160704688Y-56598512D01*
X160704688Y-56598512D02*
X160609450Y-56527084D01*
X160609450Y-56527084D02*
X160561831Y-56384226D01*
X160561831Y-56384226D02*
X160561831Y-56312798D01*
X160561831Y-56312798D02*
X160609450Y-56169941D01*
X160609450Y-56169941D02*
X160704688Y-56098512D01*
X160704688Y-56098512D02*
X160847545Y-56098512D01*
X160847545Y-56098512D02*
X160942783Y-56027084D01*
X160942783Y-56027084D02*
X160990402Y-55884226D01*
X160990402Y-55884226D02*
X160990402Y-55812798D01*
X160990402Y-55812798D02*
X160942783Y-55669941D01*
X160942783Y-55669941D02*
X160847545Y-55598512D01*
X160847545Y-55598512D02*
X160704688Y-55598512D01*
X160704688Y-55598512D02*
X160609450Y-55669941D01*
X160133259Y-56598512D02*
X160133259Y-55598512D01*
X160133259Y-55098512D02*
X160180878Y-55169941D01*
X160180878Y-55169941D02*
X160133259Y-55241369D01*
X160133259Y-55241369D02*
X160085640Y-55169941D01*
X160085640Y-55169941D02*
X160133259Y-55098512D01*
X160133259Y-55098512D02*
X160133259Y-55241369D01*
X159228498Y-55598512D02*
X159228498Y-56812798D01*
X159228498Y-56812798D02*
X159276117Y-56955655D01*
X159276117Y-56955655D02*
X159323736Y-57027084D01*
X159323736Y-57027084D02*
X159418974Y-57098512D01*
X159418974Y-57098512D02*
X159561831Y-57098512D01*
X159561831Y-57098512D02*
X159657069Y-57027084D01*
X159228498Y-56527084D02*
X159323736Y-56598512D01*
X159323736Y-56598512D02*
X159514212Y-56598512D01*
X159514212Y-56598512D02*
X159609450Y-56527084D01*
X159609450Y-56527084D02*
X159657069Y-56455655D01*
X159657069Y-56455655D02*
X159704688Y-56312798D01*
X159704688Y-56312798D02*
X159704688Y-55884226D01*
X159704688Y-55884226D02*
X159657069Y-55741369D01*
X159657069Y-55741369D02*
X159609450Y-55669941D01*
X159609450Y-55669941D02*
X159514212Y-55598512D01*
X159514212Y-55598512D02*
X159323736Y-55598512D01*
X159323736Y-55598512D02*
X159228498Y-55669941D01*
X158752307Y-55598512D02*
X158752307Y-56598512D01*
X158752307Y-55741369D02*
X158704688Y-55669941D01*
X158704688Y-55669941D02*
X158609450Y-55598512D01*
X158609450Y-55598512D02*
X158466593Y-55598512D01*
X158466593Y-55598512D02*
X158371355Y-55669941D01*
X158371355Y-55669941D02*
X158323736Y-55812798D01*
X158323736Y-55812798D02*
X158323736Y-56598512D01*
X157466593Y-56527084D02*
X157561831Y-56598512D01*
X157561831Y-56598512D02*
X157752307Y-56598512D01*
X157752307Y-56598512D02*
X157847545Y-56527084D01*
X157847545Y-56527084D02*
X157895164Y-56384226D01*
X157895164Y-56384226D02*
X157895164Y-55812798D01*
X157895164Y-55812798D02*
X157847545Y-55669941D01*
X157847545Y-55669941D02*
X157752307Y-55598512D01*
X157752307Y-55598512D02*
X157561831Y-55598512D01*
X157561831Y-55598512D02*
X157466593Y-55669941D01*
X157466593Y-55669941D02*
X157418974Y-55812798D01*
X157418974Y-55812798D02*
X157418974Y-55955655D01*
X157418974Y-55955655D02*
X157895164Y-56098512D01*
X156561831Y-56598512D02*
X156561831Y-55098512D01*
X156561831Y-56527084D02*
X156657069Y-56598512D01*
X156657069Y-56598512D02*
X156847545Y-56598512D01*
X156847545Y-56598512D02*
X156942783Y-56527084D01*
X156942783Y-56527084D02*
X156990402Y-56455655D01*
X156990402Y-56455655D02*
X157038021Y-56312798D01*
X157038021Y-56312798D02*
X157038021Y-55884226D01*
X157038021Y-55884226D02*
X156990402Y-55741369D01*
X156990402Y-55741369D02*
X156942783Y-55669941D01*
X156942783Y-55669941D02*
X156847545Y-55598512D01*
X156847545Y-55598512D02*
X156657069Y-55598512D01*
X156657069Y-55598512D02*
X156561831Y-55669941D01*
X154990402Y-55812798D02*
X154847545Y-55884226D01*
X154847545Y-55884226D02*
X154799926Y-55955655D01*
X154799926Y-55955655D02*
X154752307Y-56098512D01*
X154752307Y-56098512D02*
X154752307Y-56312798D01*
X154752307Y-56312798D02*
X154799926Y-56455655D01*
X154799926Y-56455655D02*
X154847545Y-56527084D01*
X154847545Y-56527084D02*
X154942783Y-56598512D01*
X154942783Y-56598512D02*
X155323735Y-56598512D01*
X155323735Y-56598512D02*
X155323735Y-55098512D01*
X155323735Y-55098512D02*
X154990402Y-55098512D01*
X154990402Y-55098512D02*
X154895164Y-55169941D01*
X154895164Y-55169941D02*
X154847545Y-55241369D01*
X154847545Y-55241369D02*
X154799926Y-55384226D01*
X154799926Y-55384226D02*
X154799926Y-55527084D01*
X154799926Y-55527084D02*
X154847545Y-55669941D01*
X154847545Y-55669941D02*
X154895164Y-55741369D01*
X154895164Y-55741369D02*
X154990402Y-55812798D01*
X154990402Y-55812798D02*
X155323735Y-55812798D01*
X154418973Y-55598512D02*
X154180878Y-56598512D01*
X153942783Y-55598512D02*
X154180878Y-56598512D01*
X154180878Y-56598512D02*
X154276116Y-56955655D01*
X154276116Y-56955655D02*
X154323735Y-57027084D01*
X154323735Y-57027084D02*
X154418973Y-57098512D01*
X153561830Y-56455655D02*
X153514211Y-56527084D01*
X153514211Y-56527084D02*
X153561830Y-56598512D01*
X153561830Y-56598512D02*
X153609449Y-56527084D01*
X153609449Y-56527084D02*
X153561830Y-56455655D01*
X153561830Y-56455655D02*
X153561830Y-56598512D01*
X153561830Y-55669941D02*
X153514211Y-55741369D01*
X153514211Y-55741369D02*
X153561830Y-55812798D01*
X153561830Y-55812798D02*
X153609449Y-55741369D01*
X153609449Y-55741369D02*
X153561830Y-55669941D01*
X153561830Y-55669941D02*
X153561830Y-55812798D01*
X162799926Y-58227714D02*
X162466593Y-58227714D01*
X162323736Y-59013428D02*
X162799926Y-59013428D01*
X162799926Y-59013428D02*
X162799926Y-57513428D01*
X162799926Y-57513428D02*
X162323736Y-57513428D01*
X161895164Y-58013428D02*
X161895164Y-59013428D01*
X161895164Y-58156285D02*
X161847545Y-58084857D01*
X161847545Y-58084857D02*
X161752307Y-58013428D01*
X161752307Y-58013428D02*
X161609450Y-58013428D01*
X161609450Y-58013428D02*
X161514212Y-58084857D01*
X161514212Y-58084857D02*
X161466593Y-58227714D01*
X161466593Y-58227714D02*
X161466593Y-59013428D01*
X160561831Y-58013428D02*
X160561831Y-59227714D01*
X160561831Y-59227714D02*
X160609450Y-59370571D01*
X160609450Y-59370571D02*
X160657069Y-59442000D01*
X160657069Y-59442000D02*
X160752307Y-59513428D01*
X160752307Y-59513428D02*
X160895164Y-59513428D01*
X160895164Y-59513428D02*
X160990402Y-59442000D01*
X160561831Y-58942000D02*
X160657069Y-59013428D01*
X160657069Y-59013428D02*
X160847545Y-59013428D01*
X160847545Y-59013428D02*
X160942783Y-58942000D01*
X160942783Y-58942000D02*
X160990402Y-58870571D01*
X160990402Y-58870571D02*
X161038021Y-58727714D01*
X161038021Y-58727714D02*
X161038021Y-58299142D01*
X161038021Y-58299142D02*
X160990402Y-58156285D01*
X160990402Y-58156285D02*
X160942783Y-58084857D01*
X160942783Y-58084857D02*
X160847545Y-58013428D01*
X160847545Y-58013428D02*
X160657069Y-58013428D01*
X160657069Y-58013428D02*
X160561831Y-58084857D01*
X160085640Y-58870571D02*
X160038021Y-58942000D01*
X160038021Y-58942000D02*
X160085640Y-59013428D01*
X160085640Y-59013428D02*
X160133259Y-58942000D01*
X160133259Y-58942000D02*
X160085640Y-58870571D01*
X160085640Y-58870571D02*
X160085640Y-59013428D01*
X158942783Y-57513428D02*
X158276117Y-57513428D01*
X158276117Y-57513428D02*
X158942783Y-59013428D01*
X158942783Y-59013428D02*
X158276117Y-59013428D01*
X157514212Y-58942000D02*
X157609450Y-59013428D01*
X157609450Y-59013428D02*
X157799926Y-59013428D01*
X157799926Y-59013428D02*
X157895164Y-58942000D01*
X157895164Y-58942000D02*
X157942783Y-58799142D01*
X157942783Y-58799142D02*
X157942783Y-58227714D01*
X157942783Y-58227714D02*
X157895164Y-58084857D01*
X157895164Y-58084857D02*
X157799926Y-58013428D01*
X157799926Y-58013428D02*
X157609450Y-58013428D01*
X157609450Y-58013428D02*
X157514212Y-58084857D01*
X157514212Y-58084857D02*
X157466593Y-58227714D01*
X157466593Y-58227714D02*
X157466593Y-58370571D01*
X157466593Y-58370571D02*
X157942783Y-58513428D01*
X157133259Y-58013428D02*
X156895164Y-59013428D01*
X156657069Y-58013428D02*
X156895164Y-59013428D01*
X156895164Y-59013428D02*
X156990402Y-59370571D01*
X156990402Y-59370571D02*
X157038021Y-59442000D01*
X157038021Y-59442000D02*
X157133259Y-59513428D01*
X155847545Y-59013428D02*
X155847545Y-58227714D01*
X155847545Y-58227714D02*
X155895164Y-58084857D01*
X155895164Y-58084857D02*
X155990402Y-58013428D01*
X155990402Y-58013428D02*
X156180878Y-58013428D01*
X156180878Y-58013428D02*
X156276116Y-58084857D01*
X155847545Y-58942000D02*
X155942783Y-59013428D01*
X155942783Y-59013428D02*
X156180878Y-59013428D01*
X156180878Y-59013428D02*
X156276116Y-58942000D01*
X156276116Y-58942000D02*
X156323735Y-58799142D01*
X156323735Y-58799142D02*
X156323735Y-58656285D01*
X156323735Y-58656285D02*
X156276116Y-58513428D01*
X156276116Y-58513428D02*
X156180878Y-58442000D01*
X156180878Y-58442000D02*
X155942783Y-58442000D01*
X155942783Y-58442000D02*
X155847545Y-58370571D01*
X154942783Y-59013428D02*
X154942783Y-57513428D01*
X154942783Y-58942000D02*
X155038021Y-59013428D01*
X155038021Y-59013428D02*
X155228497Y-59013428D01*
X155228497Y-59013428D02*
X155323735Y-58942000D01*
X155323735Y-58942000D02*
X155371354Y-58870571D01*
X155371354Y-58870571D02*
X155418973Y-58727714D01*
X155418973Y-58727714D02*
X155418973Y-58299142D01*
X155418973Y-58299142D02*
X155371354Y-58156285D01*
X155371354Y-58156285D02*
X155323735Y-58084857D01*
X155323735Y-58084857D02*
X155228497Y-58013428D01*
X155228497Y-58013428D02*
X155038021Y-58013428D01*
X155038021Y-58013428D02*
X154942783Y-58084857D01*
X153704687Y-59013428D02*
X153704687Y-57513428D01*
X153704687Y-58227714D02*
X153133259Y-58227714D01*
X153133259Y-59013428D02*
X153133259Y-57513428D01*
X152657068Y-59013428D02*
X152657068Y-58013428D01*
X152657068Y-57513428D02*
X152704687Y-57584857D01*
X152704687Y-57584857D02*
X152657068Y-57656285D01*
X152657068Y-57656285D02*
X152609449Y-57584857D01*
X152609449Y-57584857D02*
X152657068Y-57513428D01*
X152657068Y-57513428D02*
X152657068Y-57656285D01*
X152228497Y-58942000D02*
X152133259Y-59013428D01*
X152133259Y-59013428D02*
X151942783Y-59013428D01*
X151942783Y-59013428D02*
X151847545Y-58942000D01*
X151847545Y-58942000D02*
X151799926Y-58799142D01*
X151799926Y-58799142D02*
X151799926Y-58727714D01*
X151799926Y-58727714D02*
X151847545Y-58584857D01*
X151847545Y-58584857D02*
X151942783Y-58513428D01*
X151942783Y-58513428D02*
X152085640Y-58513428D01*
X152085640Y-58513428D02*
X152180878Y-58442000D01*
X152180878Y-58442000D02*
X152228497Y-58299142D01*
X152228497Y-58299142D02*
X152228497Y-58227714D01*
X152228497Y-58227714D02*
X152180878Y-58084857D01*
X152180878Y-58084857D02*
X152085640Y-58013428D01*
X152085640Y-58013428D02*
X151942783Y-58013428D01*
X151942783Y-58013428D02*
X151847545Y-58084857D01*
X151371354Y-59013428D02*
X151371354Y-57513428D01*
X150942783Y-59013428D02*
X150942783Y-58227714D01*
X150942783Y-58227714D02*
X150990402Y-58084857D01*
X150990402Y-58084857D02*
X151085640Y-58013428D01*
X151085640Y-58013428D02*
X151228497Y-58013428D01*
X151228497Y-58013428D02*
X151323735Y-58084857D01*
X151323735Y-58084857D02*
X151371354Y-58156285D01*
X150038021Y-59013428D02*
X150038021Y-58227714D01*
X150038021Y-58227714D02*
X150085640Y-58084857D01*
X150085640Y-58084857D02*
X150180878Y-58013428D01*
X150180878Y-58013428D02*
X150371354Y-58013428D01*
X150371354Y-58013428D02*
X150466592Y-58084857D01*
X150038021Y-58942000D02*
X150133259Y-59013428D01*
X150133259Y-59013428D02*
X150371354Y-59013428D01*
X150371354Y-59013428D02*
X150466592Y-58942000D01*
X150466592Y-58942000D02*
X150514211Y-58799142D01*
X150514211Y-58799142D02*
X150514211Y-58656285D01*
X150514211Y-58656285D02*
X150466592Y-58513428D01*
X150466592Y-58513428D02*
X150371354Y-58442000D01*
X150371354Y-58442000D02*
X150133259Y-58442000D01*
X150133259Y-58442000D02*
X150038021Y-58370571D01*
X149561830Y-59013428D02*
X149561830Y-58013428D01*
X149561830Y-58156285D02*
X149514211Y-58084857D01*
X149514211Y-58084857D02*
X149418973Y-58013428D01*
X149418973Y-58013428D02*
X149276116Y-58013428D01*
X149276116Y-58013428D02*
X149180878Y-58084857D01*
X149180878Y-58084857D02*
X149133259Y-58227714D01*
X149133259Y-58227714D02*
X149133259Y-59013428D01*
X149133259Y-58227714D02*
X149085640Y-58084857D01*
X149085640Y-58084857D02*
X148990402Y-58013428D01*
X148990402Y-58013428D02*
X148847545Y-58013428D01*
X148847545Y-58013428D02*
X148752306Y-58084857D01*
X148752306Y-58084857D02*
X148704687Y-58227714D01*
X148704687Y-58227714D02*
X148704687Y-59013428D01*
M02*
