%TF.GenerationSoftware,KiCad,Pcbnew,9.0.2*%
%TF.CreationDate,2025-09-04T16:38:10+03:00*%
%TF.ProjectId,MCU Data Logger,4d435520-4461-4746-9120-4c6f67676572,rev?*%
%TF.SameCoordinates,Original*%
%TF.FileFunction,Legend,Top*%
%TF.FilePolarity,Positive*%
%FSLAX46Y46*%
G04 Gerber Fmt 4.6, Leading zero omitted, Abs format (unit mm)*
G04 Created by KiCad (PCBNEW 9.0.2) date 2025-09-04 16:38:10*
%MOMM*%
%LPD*%
G01*
G04 APERTURE LIST*
%ADD10C,0.100000*%
%ADD11C,0.300000*%
%ADD12C,0.120000*%
%ADD13C,0.127000*%
%ADD14C,0.200000*%
G04 APERTURE END LIST*
D10*
X133365657Y-59597695D02*
X133465657Y-58797695D01*
X133465657Y-58797695D02*
X133584705Y-58797695D01*
X133584705Y-58797695D02*
X133651372Y-58835790D01*
X133651372Y-58835790D02*
X133689467Y-58911980D01*
X133689467Y-58911980D02*
X133703752Y-58988171D01*
X133703752Y-58988171D02*
X133708514Y-59140552D01*
X133708514Y-59140552D02*
X133694229Y-59254838D01*
X133694229Y-59254838D02*
X133651372Y-59407219D01*
X133651372Y-59407219D02*
X133618038Y-59483409D01*
X133618038Y-59483409D02*
X133560895Y-59559600D01*
X133560895Y-59559600D02*
X133484705Y-59597695D01*
X133484705Y-59597695D02*
X133365657Y-59597695D01*
X133918038Y-58797695D02*
X134227562Y-58797695D01*
X134227562Y-58797695D02*
X134022800Y-59102457D01*
X134022800Y-59102457D02*
X134094229Y-59102457D01*
X134094229Y-59102457D02*
X134137086Y-59140552D01*
X134137086Y-59140552D02*
X134156133Y-59178647D01*
X134156133Y-59178647D02*
X134170419Y-59254838D01*
X134170419Y-59254838D02*
X134146610Y-59445314D01*
X134146610Y-59445314D02*
X134113276Y-59521504D01*
X134113276Y-59521504D02*
X134084705Y-59559600D01*
X134084705Y-59559600D02*
X134032324Y-59597695D01*
X134032324Y-59597695D02*
X133889467Y-59597695D01*
X133889467Y-59597695D02*
X133846610Y-59559600D01*
X133846610Y-59559600D02*
X133827562Y-59521504D01*
X162175695Y-54063827D02*
X162975695Y-53997161D01*
X162975695Y-53997161D02*
X162175695Y-53730494D01*
X162899504Y-53368590D02*
X162937600Y-53397161D01*
X162937600Y-53397161D02*
X162975695Y-53473352D01*
X162975695Y-53473352D02*
X162975695Y-53520971D01*
X162975695Y-53520971D02*
X162937600Y-53587637D01*
X162937600Y-53587637D02*
X162861409Y-53625733D01*
X162861409Y-53625733D02*
X162785219Y-53640018D01*
X162785219Y-53640018D02*
X162632838Y-53644780D01*
X162632838Y-53644780D02*
X162518552Y-53630494D01*
X162518552Y-53630494D02*
X162366171Y-53587637D01*
X162366171Y-53587637D02*
X162289980Y-53554304D01*
X162289980Y-53554304D02*
X162213790Y-53497161D01*
X162213790Y-53497161D02*
X162175695Y-53420971D01*
X162175695Y-53420971D02*
X162175695Y-53373352D01*
X162175695Y-53373352D02*
X162213790Y-53306685D01*
X162213790Y-53306685D02*
X162251885Y-53287637D01*
X162899504Y-52868590D02*
X162937600Y-52897161D01*
X162937600Y-52897161D02*
X162975695Y-52973352D01*
X162975695Y-52973352D02*
X162975695Y-53020971D01*
X162975695Y-53020971D02*
X162937600Y-53087637D01*
X162937600Y-53087637D02*
X162861409Y-53125733D01*
X162861409Y-53125733D02*
X162785219Y-53140018D01*
X162785219Y-53140018D02*
X162632838Y-53144780D01*
X162632838Y-53144780D02*
X162518552Y-53130494D01*
X162518552Y-53130494D02*
X162366171Y-53087637D01*
X162366171Y-53087637D02*
X162289980Y-53054304D01*
X162289980Y-53054304D02*
X162213790Y-52997161D01*
X162213790Y-52997161D02*
X162175695Y-52920971D01*
X162175695Y-52920971D02*
X162175695Y-52873352D01*
X162175695Y-52873352D02*
X162213790Y-52806685D01*
X162213790Y-52806685D02*
X162251885Y-52787637D01*
X162937600Y-51407142D02*
X162975695Y-51340476D01*
X162975695Y-51340476D02*
X162975695Y-51221428D01*
X162975695Y-51221428D02*
X162937600Y-51169047D01*
X162937600Y-51169047D02*
X162899504Y-51140476D01*
X162899504Y-51140476D02*
X162823314Y-51107142D01*
X162823314Y-51107142D02*
X162747123Y-51097619D01*
X162747123Y-51097619D02*
X162670933Y-51111904D01*
X162670933Y-51111904D02*
X162632838Y-51130952D01*
X162632838Y-51130952D02*
X162594742Y-51173809D01*
X162594742Y-51173809D02*
X162556647Y-51264285D01*
X162556647Y-51264285D02*
X162518552Y-51307142D01*
X162518552Y-51307142D02*
X162480457Y-51326190D01*
X162480457Y-51326190D02*
X162404266Y-51340476D01*
X162404266Y-51340476D02*
X162328076Y-51330952D01*
X162328076Y-51330952D02*
X162251885Y-51297619D01*
X162251885Y-51297619D02*
X162213790Y-51269047D01*
X162213790Y-51269047D02*
X162175695Y-51216666D01*
X162175695Y-51216666D02*
X162175695Y-51097619D01*
X162175695Y-51097619D02*
X162213790Y-51030952D01*
X162975695Y-50911905D02*
X162175695Y-50811905D01*
X162175695Y-50811905D02*
X162175695Y-50692857D01*
X162175695Y-50692857D02*
X162213790Y-50626191D01*
X162213790Y-50626191D02*
X162289980Y-50588095D01*
X162289980Y-50588095D02*
X162366171Y-50573810D01*
X162366171Y-50573810D02*
X162518552Y-50569048D01*
X162518552Y-50569048D02*
X162632838Y-50583333D01*
X162632838Y-50583333D02*
X162785219Y-50626191D01*
X162785219Y-50626191D02*
X162861409Y-50659524D01*
X162861409Y-50659524D02*
X162937600Y-50716667D01*
X162937600Y-50716667D02*
X162975695Y-50792857D01*
X162975695Y-50792857D02*
X162975695Y-50911905D01*
X162747123Y-50407143D02*
X162747123Y-50169048D01*
X162975695Y-50483333D02*
X162175695Y-50216667D01*
X162175695Y-50216667D02*
X162975695Y-50150000D01*
X166836590Y-43165676D02*
X166798495Y-43208533D01*
X166798495Y-43208533D02*
X166798495Y-43279962D01*
X166798495Y-43279962D02*
X166836590Y-43356152D01*
X166836590Y-43356152D02*
X166912780Y-43413295D01*
X166912780Y-43413295D02*
X166988971Y-43446628D01*
X166988971Y-43446628D02*
X167141352Y-43489485D01*
X167141352Y-43489485D02*
X167255638Y-43503771D01*
X167255638Y-43503771D02*
X167408019Y-43499009D01*
X167408019Y-43499009D02*
X167484209Y-43484724D01*
X167484209Y-43484724D02*
X167560400Y-43446628D01*
X167560400Y-43446628D02*
X167598495Y-43379962D01*
X167598495Y-43379962D02*
X167598495Y-43332343D01*
X167598495Y-43332343D02*
X167560400Y-43256152D01*
X167560400Y-43256152D02*
X167522304Y-43227581D01*
X167522304Y-43227581D02*
X167255638Y-43194247D01*
X167255638Y-43194247D02*
X167255638Y-43289485D01*
X167598495Y-43022819D02*
X166798495Y-42922819D01*
X166798495Y-42922819D02*
X167598495Y-42737105D01*
X167598495Y-42737105D02*
X166798495Y-42637105D01*
X167598495Y-42499009D02*
X166798495Y-42399009D01*
X166798495Y-42399009D02*
X166798495Y-42279961D01*
X166798495Y-42279961D02*
X166836590Y-42213295D01*
X166836590Y-42213295D02*
X166912780Y-42175199D01*
X166912780Y-42175199D02*
X166988971Y-42160914D01*
X166988971Y-42160914D02*
X167141352Y-42156152D01*
X167141352Y-42156152D02*
X167255638Y-42170437D01*
X167255638Y-42170437D02*
X167408019Y-42213295D01*
X167408019Y-42213295D02*
X167484209Y-42246628D01*
X167484209Y-42246628D02*
X167560400Y-42303771D01*
X167560400Y-42303771D02*
X167598495Y-42379961D01*
X167598495Y-42379961D02*
X167598495Y-42499009D01*
D11*
X157719494Y-52835714D02*
X155719494Y-52835714D01*
X155719494Y-52835714D02*
X157148065Y-52335714D01*
X157148065Y-52335714D02*
X155719494Y-51835714D01*
X155719494Y-51835714D02*
X157719494Y-51835714D01*
X157529017Y-50264285D02*
X157624256Y-50335713D01*
X157624256Y-50335713D02*
X157719494Y-50549999D01*
X157719494Y-50549999D02*
X157719494Y-50692856D01*
X157719494Y-50692856D02*
X157624256Y-50907142D01*
X157624256Y-50907142D02*
X157433779Y-51049999D01*
X157433779Y-51049999D02*
X157243303Y-51121428D01*
X157243303Y-51121428D02*
X156862351Y-51192856D01*
X156862351Y-51192856D02*
X156576636Y-51192856D01*
X156576636Y-51192856D02*
X156195684Y-51121428D01*
X156195684Y-51121428D02*
X156005208Y-51049999D01*
X156005208Y-51049999D02*
X155814732Y-50907142D01*
X155814732Y-50907142D02*
X155719494Y-50692856D01*
X155719494Y-50692856D02*
X155719494Y-50549999D01*
X155719494Y-50549999D02*
X155814732Y-50335713D01*
X155814732Y-50335713D02*
X155909970Y-50264285D01*
X155719494Y-49621428D02*
X157338541Y-49621428D01*
X157338541Y-49621428D02*
X157529017Y-49549999D01*
X157529017Y-49549999D02*
X157624256Y-49478571D01*
X157624256Y-49478571D02*
X157719494Y-49335713D01*
X157719494Y-49335713D02*
X157719494Y-49049999D01*
X157719494Y-49049999D02*
X157624256Y-48907142D01*
X157624256Y-48907142D02*
X157529017Y-48835713D01*
X157529017Y-48835713D02*
X157338541Y-48764285D01*
X157338541Y-48764285D02*
X155719494Y-48764285D01*
X160939382Y-57300000D02*
X158939382Y-57300000D01*
X158939382Y-57300000D02*
X158939382Y-56942857D01*
X158939382Y-56942857D02*
X159034620Y-56728571D01*
X159034620Y-56728571D02*
X159225096Y-56585714D01*
X159225096Y-56585714D02*
X159415572Y-56514285D01*
X159415572Y-56514285D02*
X159796524Y-56442857D01*
X159796524Y-56442857D02*
X160082239Y-56442857D01*
X160082239Y-56442857D02*
X160463191Y-56514285D01*
X160463191Y-56514285D02*
X160653667Y-56585714D01*
X160653667Y-56585714D02*
X160844144Y-56728571D01*
X160844144Y-56728571D02*
X160939382Y-56942857D01*
X160939382Y-56942857D02*
X160939382Y-57300000D01*
X160939382Y-55157143D02*
X159891763Y-55157143D01*
X159891763Y-55157143D02*
X159701286Y-55228571D01*
X159701286Y-55228571D02*
X159606048Y-55371428D01*
X159606048Y-55371428D02*
X159606048Y-55657143D01*
X159606048Y-55657143D02*
X159701286Y-55800000D01*
X160844144Y-55157143D02*
X160939382Y-55300000D01*
X160939382Y-55300000D02*
X160939382Y-55657143D01*
X160939382Y-55657143D02*
X160844144Y-55800000D01*
X160844144Y-55800000D02*
X160653667Y-55871428D01*
X160653667Y-55871428D02*
X160463191Y-55871428D01*
X160463191Y-55871428D02*
X160272715Y-55800000D01*
X160272715Y-55800000D02*
X160177477Y-55657143D01*
X160177477Y-55657143D02*
X160177477Y-55300000D01*
X160177477Y-55300000D02*
X160082239Y-55157143D01*
X159606048Y-54657142D02*
X159606048Y-54085714D01*
X158939382Y-54442857D02*
X160653667Y-54442857D01*
X160653667Y-54442857D02*
X160844144Y-54371428D01*
X160844144Y-54371428D02*
X160939382Y-54228571D01*
X160939382Y-54228571D02*
X160939382Y-54085714D01*
X160939382Y-52942857D02*
X159891763Y-52942857D01*
X159891763Y-52942857D02*
X159701286Y-53014285D01*
X159701286Y-53014285D02*
X159606048Y-53157142D01*
X159606048Y-53157142D02*
X159606048Y-53442857D01*
X159606048Y-53442857D02*
X159701286Y-53585714D01*
X160844144Y-52942857D02*
X160939382Y-53085714D01*
X160939382Y-53085714D02*
X160939382Y-53442857D01*
X160939382Y-53442857D02*
X160844144Y-53585714D01*
X160844144Y-53585714D02*
X160653667Y-53657142D01*
X160653667Y-53657142D02*
X160463191Y-53657142D01*
X160463191Y-53657142D02*
X160272715Y-53585714D01*
X160272715Y-53585714D02*
X160177477Y-53442857D01*
X160177477Y-53442857D02*
X160177477Y-53085714D01*
X160177477Y-53085714D02*
X160082239Y-52942857D01*
X160939382Y-50371428D02*
X160939382Y-51085714D01*
X160939382Y-51085714D02*
X158939382Y-51085714D01*
X160939382Y-49657142D02*
X160844144Y-49799999D01*
X160844144Y-49799999D02*
X160748905Y-49871428D01*
X160748905Y-49871428D02*
X160558429Y-49942856D01*
X160558429Y-49942856D02*
X159987001Y-49942856D01*
X159987001Y-49942856D02*
X159796524Y-49871428D01*
X159796524Y-49871428D02*
X159701286Y-49799999D01*
X159701286Y-49799999D02*
X159606048Y-49657142D01*
X159606048Y-49657142D02*
X159606048Y-49442856D01*
X159606048Y-49442856D02*
X159701286Y-49299999D01*
X159701286Y-49299999D02*
X159796524Y-49228571D01*
X159796524Y-49228571D02*
X159987001Y-49157142D01*
X159987001Y-49157142D02*
X160558429Y-49157142D01*
X160558429Y-49157142D02*
X160748905Y-49228571D01*
X160748905Y-49228571D02*
X160844144Y-49299999D01*
X160844144Y-49299999D02*
X160939382Y-49442856D01*
X160939382Y-49442856D02*
X160939382Y-49657142D01*
X159606048Y-47871428D02*
X161225096Y-47871428D01*
X161225096Y-47871428D02*
X161415572Y-47942856D01*
X161415572Y-47942856D02*
X161510810Y-48014285D01*
X161510810Y-48014285D02*
X161606048Y-48157142D01*
X161606048Y-48157142D02*
X161606048Y-48371428D01*
X161606048Y-48371428D02*
X161510810Y-48514285D01*
X160844144Y-47871428D02*
X160939382Y-48014285D01*
X160939382Y-48014285D02*
X160939382Y-48299999D01*
X160939382Y-48299999D02*
X160844144Y-48442856D01*
X160844144Y-48442856D02*
X160748905Y-48514285D01*
X160748905Y-48514285D02*
X160558429Y-48585713D01*
X160558429Y-48585713D02*
X159987001Y-48585713D01*
X159987001Y-48585713D02*
X159796524Y-48514285D01*
X159796524Y-48514285D02*
X159701286Y-48442856D01*
X159701286Y-48442856D02*
X159606048Y-48299999D01*
X159606048Y-48299999D02*
X159606048Y-48014285D01*
X159606048Y-48014285D02*
X159701286Y-47871428D01*
X159606048Y-46514285D02*
X161225096Y-46514285D01*
X161225096Y-46514285D02*
X161415572Y-46585713D01*
X161415572Y-46585713D02*
X161510810Y-46657142D01*
X161510810Y-46657142D02*
X161606048Y-46799999D01*
X161606048Y-46799999D02*
X161606048Y-47014285D01*
X161606048Y-47014285D02*
X161510810Y-47157142D01*
X160844144Y-46514285D02*
X160939382Y-46657142D01*
X160939382Y-46657142D02*
X160939382Y-46942856D01*
X160939382Y-46942856D02*
X160844144Y-47085713D01*
X160844144Y-47085713D02*
X160748905Y-47157142D01*
X160748905Y-47157142D02*
X160558429Y-47228570D01*
X160558429Y-47228570D02*
X159987001Y-47228570D01*
X159987001Y-47228570D02*
X159796524Y-47157142D01*
X159796524Y-47157142D02*
X159701286Y-47085713D01*
X159701286Y-47085713D02*
X159606048Y-46942856D01*
X159606048Y-46942856D02*
X159606048Y-46657142D01*
X159606048Y-46657142D02*
X159701286Y-46514285D01*
X160844144Y-45228570D02*
X160939382Y-45371427D01*
X160939382Y-45371427D02*
X160939382Y-45657142D01*
X160939382Y-45657142D02*
X160844144Y-45799999D01*
X160844144Y-45799999D02*
X160653667Y-45871427D01*
X160653667Y-45871427D02*
X159891763Y-45871427D01*
X159891763Y-45871427D02*
X159701286Y-45799999D01*
X159701286Y-45799999D02*
X159606048Y-45657142D01*
X159606048Y-45657142D02*
X159606048Y-45371427D01*
X159606048Y-45371427D02*
X159701286Y-45228570D01*
X159701286Y-45228570D02*
X159891763Y-45157142D01*
X159891763Y-45157142D02*
X160082239Y-45157142D01*
X160082239Y-45157142D02*
X160272715Y-45871427D01*
X160939382Y-44514285D02*
X159606048Y-44514285D01*
X159987001Y-44514285D02*
X159796524Y-44442856D01*
X159796524Y-44442856D02*
X159701286Y-44371428D01*
X159701286Y-44371428D02*
X159606048Y-44228570D01*
X159606048Y-44228570D02*
X159606048Y-44085713D01*
D10*
X158611105Y-59292895D02*
X158492057Y-58911942D01*
X158325390Y-59292895D02*
X158425390Y-58492895D01*
X158425390Y-58492895D02*
X158615866Y-58492895D01*
X158615866Y-58492895D02*
X158658724Y-58530990D01*
X158658724Y-58530990D02*
X158677771Y-58569085D01*
X158677771Y-58569085D02*
X158692057Y-58645276D01*
X158692057Y-58645276D02*
X158677771Y-58759561D01*
X158677771Y-58759561D02*
X158644438Y-58835752D01*
X158644438Y-58835752D02*
X158615866Y-58873847D01*
X158615866Y-58873847D02*
X158563485Y-58911942D01*
X158563485Y-58911942D02*
X158373009Y-58911942D01*
X158877771Y-58492895D02*
X159111105Y-59292895D01*
X159211105Y-58492895D02*
X158777771Y-59292895D01*
X129097123Y-47405790D02*
X129054266Y-47367695D01*
X129054266Y-47367695D02*
X128982837Y-47367695D01*
X128982837Y-47367695D02*
X128906647Y-47405790D01*
X128906647Y-47405790D02*
X128849504Y-47481980D01*
X128849504Y-47481980D02*
X128816171Y-47558171D01*
X128816171Y-47558171D02*
X128773314Y-47710552D01*
X128773314Y-47710552D02*
X128759028Y-47824838D01*
X128759028Y-47824838D02*
X128763790Y-47977219D01*
X128763790Y-47977219D02*
X128778075Y-48053409D01*
X128778075Y-48053409D02*
X128816171Y-48129600D01*
X128816171Y-48129600D02*
X128882837Y-48167695D01*
X128882837Y-48167695D02*
X128930456Y-48167695D01*
X128930456Y-48167695D02*
X129006647Y-48129600D01*
X129006647Y-48129600D02*
X129035218Y-48091504D01*
X129035218Y-48091504D02*
X129068552Y-47824838D01*
X129068552Y-47824838D02*
X128973314Y-47824838D01*
X129239980Y-48167695D02*
X129339980Y-47367695D01*
X129339980Y-47367695D02*
X129525695Y-48167695D01*
X129525695Y-48167695D02*
X129625695Y-47367695D01*
X129763790Y-48167695D02*
X129863790Y-47367695D01*
X129863790Y-47367695D02*
X129982838Y-47367695D01*
X129982838Y-47367695D02*
X130049505Y-47405790D01*
X130049505Y-47405790D02*
X130087600Y-47481980D01*
X130087600Y-47481980D02*
X130101885Y-47558171D01*
X130101885Y-47558171D02*
X130106647Y-47710552D01*
X130106647Y-47710552D02*
X130092362Y-47824838D01*
X130092362Y-47824838D02*
X130049505Y-47977219D01*
X130049505Y-47977219D02*
X130016171Y-48053409D01*
X130016171Y-48053409D02*
X129959028Y-48129600D01*
X129959028Y-48129600D02*
X129882838Y-48167695D01*
X129882838Y-48167695D02*
X129763790Y-48167695D01*
X148604323Y-58784990D02*
X148561466Y-58746895D01*
X148561466Y-58746895D02*
X148490037Y-58746895D01*
X148490037Y-58746895D02*
X148413847Y-58784990D01*
X148413847Y-58784990D02*
X148356704Y-58861180D01*
X148356704Y-58861180D02*
X148323371Y-58937371D01*
X148323371Y-58937371D02*
X148280514Y-59089752D01*
X148280514Y-59089752D02*
X148266228Y-59204038D01*
X148266228Y-59204038D02*
X148270990Y-59356419D01*
X148270990Y-59356419D02*
X148285275Y-59432609D01*
X148285275Y-59432609D02*
X148323371Y-59508800D01*
X148323371Y-59508800D02*
X148390037Y-59546895D01*
X148390037Y-59546895D02*
X148437656Y-59546895D01*
X148437656Y-59546895D02*
X148513847Y-59508800D01*
X148513847Y-59508800D02*
X148542418Y-59470704D01*
X148542418Y-59470704D02*
X148575752Y-59204038D01*
X148575752Y-59204038D02*
X148480514Y-59204038D01*
X148747180Y-59546895D02*
X148847180Y-58746895D01*
X148847180Y-58746895D02*
X149032895Y-59546895D01*
X149032895Y-59546895D02*
X149132895Y-58746895D01*
X149270990Y-59546895D02*
X149370990Y-58746895D01*
X149370990Y-58746895D02*
X149490038Y-58746895D01*
X149490038Y-58746895D02*
X149556705Y-58784990D01*
X149556705Y-58784990D02*
X149594800Y-58861180D01*
X149594800Y-58861180D02*
X149609085Y-58937371D01*
X149609085Y-58937371D02*
X149613847Y-59089752D01*
X149613847Y-59089752D02*
X149599562Y-59204038D01*
X149599562Y-59204038D02*
X149556705Y-59356419D01*
X149556705Y-59356419D02*
X149523371Y-59432609D01*
X149523371Y-59432609D02*
X149466228Y-59508800D01*
X149466228Y-59508800D02*
X149390038Y-59546895D01*
X149390038Y-59546895D02*
X149270990Y-59546895D01*
X160753200Y-40865837D02*
X160791295Y-40799171D01*
X160791295Y-40799171D02*
X160791295Y-40680123D01*
X160791295Y-40680123D02*
X160753200Y-40627742D01*
X160753200Y-40627742D02*
X160715104Y-40599171D01*
X160715104Y-40599171D02*
X160638914Y-40565837D01*
X160638914Y-40565837D02*
X160562723Y-40556314D01*
X160562723Y-40556314D02*
X160486533Y-40570599D01*
X160486533Y-40570599D02*
X160448438Y-40589647D01*
X160448438Y-40589647D02*
X160410342Y-40632504D01*
X160410342Y-40632504D02*
X160372247Y-40722980D01*
X160372247Y-40722980D02*
X160334152Y-40765837D01*
X160334152Y-40765837D02*
X160296057Y-40784885D01*
X160296057Y-40784885D02*
X160219866Y-40799171D01*
X160219866Y-40799171D02*
X160143676Y-40789647D01*
X160143676Y-40789647D02*
X160067485Y-40756314D01*
X160067485Y-40756314D02*
X160029390Y-40727742D01*
X160029390Y-40727742D02*
X159991295Y-40675361D01*
X159991295Y-40675361D02*
X159991295Y-40556314D01*
X159991295Y-40556314D02*
X160029390Y-40489647D01*
X160715104Y-40075362D02*
X160753200Y-40103933D01*
X160753200Y-40103933D02*
X160791295Y-40180124D01*
X160791295Y-40180124D02*
X160791295Y-40227743D01*
X160791295Y-40227743D02*
X160753200Y-40294409D01*
X160753200Y-40294409D02*
X160677009Y-40332505D01*
X160677009Y-40332505D02*
X160600819Y-40346790D01*
X160600819Y-40346790D02*
X160448438Y-40351552D01*
X160448438Y-40351552D02*
X160334152Y-40337266D01*
X160334152Y-40337266D02*
X160181771Y-40294409D01*
X160181771Y-40294409D02*
X160105580Y-40261076D01*
X160105580Y-40261076D02*
X160029390Y-40203933D01*
X160029390Y-40203933D02*
X159991295Y-40127743D01*
X159991295Y-40127743D02*
X159991295Y-40080124D01*
X159991295Y-40080124D02*
X160029390Y-40013457D01*
X160029390Y-40013457D02*
X160067485Y-39994409D01*
X160791295Y-39632505D02*
X160791295Y-39870600D01*
X160791295Y-39870600D02*
X159991295Y-39770600D01*
X163691923Y-58530990D02*
X163649066Y-58492895D01*
X163649066Y-58492895D02*
X163577637Y-58492895D01*
X163577637Y-58492895D02*
X163501447Y-58530990D01*
X163501447Y-58530990D02*
X163444304Y-58607180D01*
X163444304Y-58607180D02*
X163410971Y-58683371D01*
X163410971Y-58683371D02*
X163368114Y-58835752D01*
X163368114Y-58835752D02*
X163353828Y-58950038D01*
X163353828Y-58950038D02*
X163358590Y-59102419D01*
X163358590Y-59102419D02*
X163372875Y-59178609D01*
X163372875Y-59178609D02*
X163410971Y-59254800D01*
X163410971Y-59254800D02*
X163477637Y-59292895D01*
X163477637Y-59292895D02*
X163525256Y-59292895D01*
X163525256Y-59292895D02*
X163601447Y-59254800D01*
X163601447Y-59254800D02*
X163630018Y-59216704D01*
X163630018Y-59216704D02*
X163663352Y-58950038D01*
X163663352Y-58950038D02*
X163568114Y-58950038D01*
X163834780Y-59292895D02*
X163934780Y-58492895D01*
X163934780Y-58492895D02*
X164120495Y-59292895D01*
X164120495Y-59292895D02*
X164220495Y-58492895D01*
X164358590Y-59292895D02*
X164458590Y-58492895D01*
X164458590Y-58492895D02*
X164577638Y-58492895D01*
X164577638Y-58492895D02*
X164644305Y-58530990D01*
X164644305Y-58530990D02*
X164682400Y-58607180D01*
X164682400Y-58607180D02*
X164696685Y-58683371D01*
X164696685Y-58683371D02*
X164701447Y-58835752D01*
X164701447Y-58835752D02*
X164687162Y-58950038D01*
X164687162Y-58950038D02*
X164644305Y-59102419D01*
X164644305Y-59102419D02*
X164610971Y-59178609D01*
X164610971Y-59178609D02*
X164553828Y-59254800D01*
X164553828Y-59254800D02*
X164477638Y-59292895D01*
X164477638Y-59292895D02*
X164358590Y-59292895D01*
X138462590Y-59597695D02*
X138562590Y-58797695D01*
X138562590Y-58797695D02*
X138681638Y-58797695D01*
X138681638Y-58797695D02*
X138748305Y-58835790D01*
X138748305Y-58835790D02*
X138786400Y-58911980D01*
X138786400Y-58911980D02*
X138800685Y-58988171D01*
X138800685Y-58988171D02*
X138805447Y-59140552D01*
X138805447Y-59140552D02*
X138791162Y-59254838D01*
X138791162Y-59254838D02*
X138748305Y-59407219D01*
X138748305Y-59407219D02*
X138714971Y-59483409D01*
X138714971Y-59483409D02*
X138657828Y-59559600D01*
X138657828Y-59559600D02*
X138581638Y-59597695D01*
X138581638Y-59597695D02*
X138462590Y-59597695D01*
X139300685Y-58797695D02*
X139062590Y-58797695D01*
X139062590Y-58797695D02*
X138991162Y-59178647D01*
X138991162Y-59178647D02*
X139019733Y-59140552D01*
X139019733Y-59140552D02*
X139072114Y-59102457D01*
X139072114Y-59102457D02*
X139191162Y-59102457D01*
X139191162Y-59102457D02*
X139234019Y-59140552D01*
X139234019Y-59140552D02*
X139253066Y-59178647D01*
X139253066Y-59178647D02*
X139267352Y-59254838D01*
X139267352Y-59254838D02*
X139243543Y-59445314D01*
X139243543Y-59445314D02*
X139210209Y-59521504D01*
X139210209Y-59521504D02*
X139181638Y-59559600D01*
X139181638Y-59559600D02*
X139129257Y-59597695D01*
X139129257Y-59597695D02*
X139010209Y-59597695D01*
X139010209Y-59597695D02*
X138967352Y-59559600D01*
X138967352Y-59559600D02*
X138948305Y-59521504D01*
X167598495Y-41024076D02*
X166798495Y-40924076D01*
X166798495Y-40924076D02*
X167369923Y-40828838D01*
X167369923Y-40828838D02*
X166798495Y-40590742D01*
X166798495Y-40590742D02*
X167598495Y-40690742D01*
X166798495Y-40257409D02*
X166798495Y-40162171D01*
X166798495Y-40162171D02*
X166836590Y-40119313D01*
X166836590Y-40119313D02*
X166912780Y-40081218D01*
X166912780Y-40081218D02*
X167065161Y-40076456D01*
X167065161Y-40076456D02*
X167331828Y-40109790D01*
X167331828Y-40109790D02*
X167484209Y-40152647D01*
X167484209Y-40152647D02*
X167560400Y-40209790D01*
X167560400Y-40209790D02*
X167598495Y-40262171D01*
X167598495Y-40262171D02*
X167598495Y-40357409D01*
X167598495Y-40357409D02*
X167560400Y-40400266D01*
X167560400Y-40400266D02*
X167484209Y-40438361D01*
X167484209Y-40438361D02*
X167331828Y-40443123D01*
X167331828Y-40443123D02*
X167065161Y-40409790D01*
X167065161Y-40409790D02*
X166912780Y-40366933D01*
X166912780Y-40366933D02*
X166836590Y-40309790D01*
X166836590Y-40309790D02*
X166798495Y-40257409D01*
X167560400Y-39947884D02*
X167598495Y-39881218D01*
X167598495Y-39881218D02*
X167598495Y-39762170D01*
X167598495Y-39762170D02*
X167560400Y-39709789D01*
X167560400Y-39709789D02*
X167522304Y-39681218D01*
X167522304Y-39681218D02*
X167446114Y-39647884D01*
X167446114Y-39647884D02*
X167369923Y-39638361D01*
X167369923Y-39638361D02*
X167293733Y-39652646D01*
X167293733Y-39652646D02*
X167255638Y-39671694D01*
X167255638Y-39671694D02*
X167217542Y-39714551D01*
X167217542Y-39714551D02*
X167179447Y-39805027D01*
X167179447Y-39805027D02*
X167141352Y-39847884D01*
X167141352Y-39847884D02*
X167103257Y-39866932D01*
X167103257Y-39866932D02*
X167027066Y-39881218D01*
X167027066Y-39881218D02*
X166950876Y-39871694D01*
X166950876Y-39871694D02*
X166874685Y-39838361D01*
X166874685Y-39838361D02*
X166836590Y-39809789D01*
X166836590Y-39809789D02*
X166798495Y-39757408D01*
X166798495Y-39757408D02*
X166798495Y-39638361D01*
X166798495Y-39638361D02*
X166836590Y-39571694D01*
X167598495Y-39452647D02*
X166798495Y-39352647D01*
X130817190Y-59597695D02*
X130917190Y-58797695D01*
X130917190Y-58797695D02*
X131036238Y-58797695D01*
X131036238Y-58797695D02*
X131102905Y-58835790D01*
X131102905Y-58835790D02*
X131141000Y-58911980D01*
X131141000Y-58911980D02*
X131155285Y-58988171D01*
X131155285Y-58988171D02*
X131160047Y-59140552D01*
X131160047Y-59140552D02*
X131145762Y-59254838D01*
X131145762Y-59254838D02*
X131102905Y-59407219D01*
X131102905Y-59407219D02*
X131069571Y-59483409D01*
X131069571Y-59483409D02*
X131012428Y-59559600D01*
X131012428Y-59559600D02*
X130936238Y-59597695D01*
X130936238Y-59597695D02*
X130817190Y-59597695D01*
X131383857Y-58873885D02*
X131412428Y-58835790D01*
X131412428Y-58835790D02*
X131464809Y-58797695D01*
X131464809Y-58797695D02*
X131583857Y-58797695D01*
X131583857Y-58797695D02*
X131626714Y-58835790D01*
X131626714Y-58835790D02*
X131645762Y-58873885D01*
X131645762Y-58873885D02*
X131660047Y-58950076D01*
X131660047Y-58950076D02*
X131650524Y-59026266D01*
X131650524Y-59026266D02*
X131612428Y-59140552D01*
X131612428Y-59140552D02*
X131269571Y-59597695D01*
X131269571Y-59597695D02*
X131579095Y-59597695D01*
X162213790Y-56221276D02*
X162175695Y-56264133D01*
X162175695Y-56264133D02*
X162175695Y-56335562D01*
X162175695Y-56335562D02*
X162213790Y-56411752D01*
X162213790Y-56411752D02*
X162289980Y-56468895D01*
X162289980Y-56468895D02*
X162366171Y-56502228D01*
X162366171Y-56502228D02*
X162518552Y-56545085D01*
X162518552Y-56545085D02*
X162632838Y-56559371D01*
X162632838Y-56559371D02*
X162785219Y-56554609D01*
X162785219Y-56554609D02*
X162861409Y-56540324D01*
X162861409Y-56540324D02*
X162937600Y-56502228D01*
X162937600Y-56502228D02*
X162975695Y-56435562D01*
X162975695Y-56435562D02*
X162975695Y-56387943D01*
X162975695Y-56387943D02*
X162937600Y-56311752D01*
X162937600Y-56311752D02*
X162899504Y-56283181D01*
X162899504Y-56283181D02*
X162632838Y-56249847D01*
X162632838Y-56249847D02*
X162632838Y-56345085D01*
X162975695Y-56078419D02*
X162175695Y-55978419D01*
X162175695Y-55978419D02*
X162975695Y-55792705D01*
X162975695Y-55792705D02*
X162175695Y-55692705D01*
X162975695Y-55554609D02*
X162175695Y-55454609D01*
X162175695Y-55454609D02*
X162175695Y-55335561D01*
X162175695Y-55335561D02*
X162213790Y-55268895D01*
X162213790Y-55268895D02*
X162289980Y-55230799D01*
X162289980Y-55230799D02*
X162366171Y-55216514D01*
X162366171Y-55216514D02*
X162518552Y-55211752D01*
X162518552Y-55211752D02*
X162632838Y-55226037D01*
X162632838Y-55226037D02*
X162785219Y-55268895D01*
X162785219Y-55268895D02*
X162861409Y-55302228D01*
X162861409Y-55302228D02*
X162937600Y-55359371D01*
X162937600Y-55359371D02*
X162975695Y-55435561D01*
X162975695Y-55435561D02*
X162975695Y-55554609D01*
X160740495Y-38484076D02*
X159940495Y-38384076D01*
X159940495Y-38384076D02*
X160511923Y-38288838D01*
X160511923Y-38288838D02*
X159940495Y-38050742D01*
X159940495Y-38050742D02*
X160740495Y-38150742D01*
X160740495Y-37912647D02*
X159940495Y-37812647D01*
X160702400Y-37693599D02*
X160740495Y-37626933D01*
X160740495Y-37626933D02*
X160740495Y-37507885D01*
X160740495Y-37507885D02*
X160702400Y-37455504D01*
X160702400Y-37455504D02*
X160664304Y-37426933D01*
X160664304Y-37426933D02*
X160588114Y-37393599D01*
X160588114Y-37393599D02*
X160511923Y-37384076D01*
X160511923Y-37384076D02*
X160435733Y-37398361D01*
X160435733Y-37398361D02*
X160397638Y-37417409D01*
X160397638Y-37417409D02*
X160359542Y-37460266D01*
X160359542Y-37460266D02*
X160321447Y-37550742D01*
X160321447Y-37550742D02*
X160283352Y-37593599D01*
X160283352Y-37593599D02*
X160245257Y-37612647D01*
X160245257Y-37612647D02*
X160169066Y-37626933D01*
X160169066Y-37626933D02*
X160092876Y-37617409D01*
X160092876Y-37617409D02*
X160016685Y-37584076D01*
X160016685Y-37584076D02*
X159978590Y-37555504D01*
X159978590Y-37555504D02*
X159940495Y-37503123D01*
X159940495Y-37503123D02*
X159940495Y-37384076D01*
X159940495Y-37384076D02*
X159978590Y-37317409D01*
X159940495Y-37003124D02*
X159940495Y-36907886D01*
X159940495Y-36907886D02*
X159978590Y-36865028D01*
X159978590Y-36865028D02*
X160054780Y-36826933D01*
X160054780Y-36826933D02*
X160207161Y-36822171D01*
X160207161Y-36822171D02*
X160473828Y-36855505D01*
X160473828Y-36855505D02*
X160626209Y-36898362D01*
X160626209Y-36898362D02*
X160702400Y-36955505D01*
X160702400Y-36955505D02*
X160740495Y-37007886D01*
X160740495Y-37007886D02*
X160740495Y-37103124D01*
X160740495Y-37103124D02*
X160702400Y-37145981D01*
X160702400Y-37145981D02*
X160626209Y-37184076D01*
X160626209Y-37184076D02*
X160473828Y-37188838D01*
X160473828Y-37188838D02*
X160207161Y-37155505D01*
X160207161Y-37155505D02*
X160054780Y-37112648D01*
X160054780Y-37112648D02*
X159978590Y-37055505D01*
X159978590Y-37055505D02*
X159940495Y-37003124D01*
X141011057Y-59597695D02*
X141111057Y-58797695D01*
X141111057Y-58797695D02*
X141230105Y-58797695D01*
X141230105Y-58797695D02*
X141296772Y-58835790D01*
X141296772Y-58835790D02*
X141334867Y-58911980D01*
X141334867Y-58911980D02*
X141349152Y-58988171D01*
X141349152Y-58988171D02*
X141353914Y-59140552D01*
X141353914Y-59140552D02*
X141339629Y-59254838D01*
X141339629Y-59254838D02*
X141296772Y-59407219D01*
X141296772Y-59407219D02*
X141263438Y-59483409D01*
X141263438Y-59483409D02*
X141206295Y-59559600D01*
X141206295Y-59559600D02*
X141130105Y-59597695D01*
X141130105Y-59597695D02*
X141011057Y-59597695D01*
X141825343Y-58797695D02*
X141730105Y-58797695D01*
X141730105Y-58797695D02*
X141677724Y-58835790D01*
X141677724Y-58835790D02*
X141649152Y-58873885D01*
X141649152Y-58873885D02*
X141587248Y-58988171D01*
X141587248Y-58988171D02*
X141544391Y-59140552D01*
X141544391Y-59140552D02*
X141506295Y-59445314D01*
X141506295Y-59445314D02*
X141520581Y-59521504D01*
X141520581Y-59521504D02*
X141539629Y-59559600D01*
X141539629Y-59559600D02*
X141582486Y-59597695D01*
X141582486Y-59597695D02*
X141677724Y-59597695D01*
X141677724Y-59597695D02*
X141730105Y-59559600D01*
X141730105Y-59559600D02*
X141758676Y-59521504D01*
X141758676Y-59521504D02*
X141792010Y-59445314D01*
X141792010Y-59445314D02*
X141815819Y-59254838D01*
X141815819Y-59254838D02*
X141801533Y-59178647D01*
X141801533Y-59178647D02*
X141782486Y-59140552D01*
X141782486Y-59140552D02*
X141739629Y-59102457D01*
X141739629Y-59102457D02*
X141644391Y-59102457D01*
X141644391Y-59102457D02*
X141592010Y-59140552D01*
X141592010Y-59140552D02*
X141563438Y-59178647D01*
X141563438Y-59178647D02*
X141530105Y-59254838D01*
X160820172Y-58492895D02*
X160886838Y-59292895D01*
X160886838Y-59292895D02*
X161153505Y-58492895D01*
X161515409Y-59216704D02*
X161486838Y-59254800D01*
X161486838Y-59254800D02*
X161410647Y-59292895D01*
X161410647Y-59292895D02*
X161363028Y-59292895D01*
X161363028Y-59292895D02*
X161296362Y-59254800D01*
X161296362Y-59254800D02*
X161258266Y-59178609D01*
X161258266Y-59178609D02*
X161243981Y-59102419D01*
X161243981Y-59102419D02*
X161239219Y-58950038D01*
X161239219Y-58950038D02*
X161253505Y-58835752D01*
X161253505Y-58835752D02*
X161296362Y-58683371D01*
X161296362Y-58683371D02*
X161329695Y-58607180D01*
X161329695Y-58607180D02*
X161386838Y-58530990D01*
X161386838Y-58530990D02*
X161463028Y-58492895D01*
X161463028Y-58492895D02*
X161510647Y-58492895D01*
X161510647Y-58492895D02*
X161577314Y-58530990D01*
X161577314Y-58530990D02*
X161596362Y-58569085D01*
X162015409Y-59216704D02*
X161986838Y-59254800D01*
X161986838Y-59254800D02*
X161910647Y-59292895D01*
X161910647Y-59292895D02*
X161863028Y-59292895D01*
X161863028Y-59292895D02*
X161796362Y-59254800D01*
X161796362Y-59254800D02*
X161758266Y-59178609D01*
X161758266Y-59178609D02*
X161743981Y-59102419D01*
X161743981Y-59102419D02*
X161739219Y-58950038D01*
X161739219Y-58950038D02*
X161753505Y-58835752D01*
X161753505Y-58835752D02*
X161796362Y-58683371D01*
X161796362Y-58683371D02*
X161829695Y-58607180D01*
X161829695Y-58607180D02*
X161886838Y-58530990D01*
X161886838Y-58530990D02*
X161963028Y-58492895D01*
X161963028Y-58492895D02*
X162010647Y-58492895D01*
X162010647Y-58492895D02*
X162077314Y-58530990D01*
X162077314Y-58530990D02*
X162096362Y-58569085D01*
X166798495Y-38061827D02*
X167598495Y-37995161D01*
X167598495Y-37995161D02*
X166798495Y-37728494D01*
X167522304Y-37366590D02*
X167560400Y-37395161D01*
X167560400Y-37395161D02*
X167598495Y-37471352D01*
X167598495Y-37471352D02*
X167598495Y-37518971D01*
X167598495Y-37518971D02*
X167560400Y-37585637D01*
X167560400Y-37585637D02*
X167484209Y-37623733D01*
X167484209Y-37623733D02*
X167408019Y-37638018D01*
X167408019Y-37638018D02*
X167255638Y-37642780D01*
X167255638Y-37642780D02*
X167141352Y-37628494D01*
X167141352Y-37628494D02*
X166988971Y-37585637D01*
X166988971Y-37585637D02*
X166912780Y-37552304D01*
X166912780Y-37552304D02*
X166836590Y-37495161D01*
X166836590Y-37495161D02*
X166798495Y-37418971D01*
X166798495Y-37418971D02*
X166798495Y-37371352D01*
X166798495Y-37371352D02*
X166836590Y-37304685D01*
X166836590Y-37304685D02*
X166874685Y-37285637D01*
X167522304Y-36866590D02*
X167560400Y-36895161D01*
X167560400Y-36895161D02*
X167598495Y-36971352D01*
X167598495Y-36971352D02*
X167598495Y-37018971D01*
X167598495Y-37018971D02*
X167560400Y-37085637D01*
X167560400Y-37085637D02*
X167484209Y-37123733D01*
X167484209Y-37123733D02*
X167408019Y-37138018D01*
X167408019Y-37138018D02*
X167255638Y-37142780D01*
X167255638Y-37142780D02*
X167141352Y-37128494D01*
X167141352Y-37128494D02*
X166988971Y-37085637D01*
X166988971Y-37085637D02*
X166912780Y-37052304D01*
X166912780Y-37052304D02*
X166836590Y-36995161D01*
X166836590Y-36995161D02*
X166798495Y-36918971D01*
X166798495Y-36918971D02*
X166798495Y-36871352D01*
X166798495Y-36871352D02*
X166836590Y-36804685D01*
X166836590Y-36804685D02*
X166874685Y-36785637D01*
X162937600Y-48804437D02*
X162975695Y-48737771D01*
X162975695Y-48737771D02*
X162975695Y-48618723D01*
X162975695Y-48618723D02*
X162937600Y-48566342D01*
X162937600Y-48566342D02*
X162899504Y-48537771D01*
X162899504Y-48537771D02*
X162823314Y-48504437D01*
X162823314Y-48504437D02*
X162747123Y-48494914D01*
X162747123Y-48494914D02*
X162670933Y-48509199D01*
X162670933Y-48509199D02*
X162632838Y-48528247D01*
X162632838Y-48528247D02*
X162594742Y-48571104D01*
X162594742Y-48571104D02*
X162556647Y-48661580D01*
X162556647Y-48661580D02*
X162518552Y-48704437D01*
X162518552Y-48704437D02*
X162480457Y-48723485D01*
X162480457Y-48723485D02*
X162404266Y-48737771D01*
X162404266Y-48737771D02*
X162328076Y-48728247D01*
X162328076Y-48728247D02*
X162251885Y-48694914D01*
X162251885Y-48694914D02*
X162213790Y-48666342D01*
X162213790Y-48666342D02*
X162175695Y-48613961D01*
X162175695Y-48613961D02*
X162175695Y-48494914D01*
X162175695Y-48494914D02*
X162213790Y-48428247D01*
X162899504Y-48013962D02*
X162937600Y-48042533D01*
X162937600Y-48042533D02*
X162975695Y-48118724D01*
X162975695Y-48118724D02*
X162975695Y-48166343D01*
X162975695Y-48166343D02*
X162937600Y-48233009D01*
X162937600Y-48233009D02*
X162861409Y-48271105D01*
X162861409Y-48271105D02*
X162785219Y-48285390D01*
X162785219Y-48285390D02*
X162632838Y-48290152D01*
X162632838Y-48290152D02*
X162518552Y-48275866D01*
X162518552Y-48275866D02*
X162366171Y-48233009D01*
X162366171Y-48233009D02*
X162289980Y-48199676D01*
X162289980Y-48199676D02*
X162213790Y-48142533D01*
X162213790Y-48142533D02*
X162175695Y-48066343D01*
X162175695Y-48066343D02*
X162175695Y-48018724D01*
X162175695Y-48018724D02*
X162213790Y-47952057D01*
X162213790Y-47952057D02*
X162251885Y-47933009D01*
X162975695Y-47571105D02*
X162975695Y-47809200D01*
X162975695Y-47809200D02*
X162175695Y-47709200D01*
X146107990Y-59597695D02*
X146207990Y-58797695D01*
X146207990Y-58797695D02*
X146327038Y-58797695D01*
X146327038Y-58797695D02*
X146393705Y-58835790D01*
X146393705Y-58835790D02*
X146431800Y-58911980D01*
X146431800Y-58911980D02*
X146446085Y-58988171D01*
X146446085Y-58988171D02*
X146450847Y-59140552D01*
X146450847Y-59140552D02*
X146436562Y-59254838D01*
X146436562Y-59254838D02*
X146393705Y-59407219D01*
X146393705Y-59407219D02*
X146360371Y-59483409D01*
X146360371Y-59483409D02*
X146303228Y-59559600D01*
X146303228Y-59559600D02*
X146227038Y-59597695D01*
X146227038Y-59597695D02*
X146107990Y-59597695D01*
X146736562Y-59140552D02*
X146693705Y-59102457D01*
X146693705Y-59102457D02*
X146674657Y-59064361D01*
X146674657Y-59064361D02*
X146660371Y-58988171D01*
X146660371Y-58988171D02*
X146665133Y-58950076D01*
X146665133Y-58950076D02*
X146698466Y-58873885D01*
X146698466Y-58873885D02*
X146727038Y-58835790D01*
X146727038Y-58835790D02*
X146779419Y-58797695D01*
X146779419Y-58797695D02*
X146874657Y-58797695D01*
X146874657Y-58797695D02*
X146917514Y-58835790D01*
X146917514Y-58835790D02*
X146936562Y-58873885D01*
X146936562Y-58873885D02*
X146950847Y-58950076D01*
X146950847Y-58950076D02*
X146946085Y-58988171D01*
X146946085Y-58988171D02*
X146912752Y-59064361D01*
X146912752Y-59064361D02*
X146884181Y-59102457D01*
X146884181Y-59102457D02*
X146831800Y-59140552D01*
X146831800Y-59140552D02*
X146736562Y-59140552D01*
X146736562Y-59140552D02*
X146684181Y-59178647D01*
X146684181Y-59178647D02*
X146655609Y-59216742D01*
X146655609Y-59216742D02*
X146622276Y-59292933D01*
X146622276Y-59292933D02*
X146603228Y-59445314D01*
X146603228Y-59445314D02*
X146617514Y-59521504D01*
X146617514Y-59521504D02*
X146636562Y-59559600D01*
X146636562Y-59559600D02*
X146679419Y-59597695D01*
X146679419Y-59597695D02*
X146774657Y-59597695D01*
X146774657Y-59597695D02*
X146827038Y-59559600D01*
X146827038Y-59559600D02*
X146855609Y-59521504D01*
X146855609Y-59521504D02*
X146888943Y-59445314D01*
X146888943Y-59445314D02*
X146907990Y-59292933D01*
X146907990Y-59292933D02*
X146893705Y-59216742D01*
X146893705Y-59216742D02*
X146874657Y-59178647D01*
X146874657Y-59178647D02*
X146831800Y-59140552D01*
X160791295Y-43555352D02*
X160410342Y-43674399D01*
X160791295Y-43841066D02*
X159991295Y-43741066D01*
X159991295Y-43741066D02*
X159991295Y-43550590D01*
X159991295Y-43550590D02*
X160029390Y-43507732D01*
X160029390Y-43507732D02*
X160067485Y-43488685D01*
X160067485Y-43488685D02*
X160143676Y-43474399D01*
X160143676Y-43474399D02*
X160257961Y-43488685D01*
X160257961Y-43488685D02*
X160334152Y-43522018D01*
X160334152Y-43522018D02*
X160372247Y-43550590D01*
X160372247Y-43550590D02*
X160410342Y-43602971D01*
X160410342Y-43602971D02*
X160410342Y-43793447D01*
X160372247Y-43288685D02*
X160372247Y-43122018D01*
X160791295Y-43102971D02*
X160791295Y-43341066D01*
X160791295Y-43341066D02*
X159991295Y-43241066D01*
X159991295Y-43241066D02*
X159991295Y-43002971D01*
X160753200Y-42907732D02*
X160791295Y-42841066D01*
X160791295Y-42841066D02*
X160791295Y-42722018D01*
X160791295Y-42722018D02*
X160753200Y-42669637D01*
X160753200Y-42669637D02*
X160715104Y-42641066D01*
X160715104Y-42641066D02*
X160638914Y-42607732D01*
X160638914Y-42607732D02*
X160562723Y-42598209D01*
X160562723Y-42598209D02*
X160486533Y-42612494D01*
X160486533Y-42612494D02*
X160448438Y-42631542D01*
X160448438Y-42631542D02*
X160410342Y-42674399D01*
X160410342Y-42674399D02*
X160372247Y-42764875D01*
X160372247Y-42764875D02*
X160334152Y-42807732D01*
X160334152Y-42807732D02*
X160296057Y-42826780D01*
X160296057Y-42826780D02*
X160219866Y-42841066D01*
X160219866Y-42841066D02*
X160143676Y-42831542D01*
X160143676Y-42831542D02*
X160067485Y-42798209D01*
X160067485Y-42798209D02*
X160029390Y-42769637D01*
X160029390Y-42769637D02*
X159991295Y-42717256D01*
X159991295Y-42717256D02*
X159991295Y-42598209D01*
X159991295Y-42598209D02*
X160029390Y-42531542D01*
X160372247Y-42360114D02*
X160372247Y-42193447D01*
X160791295Y-42174400D02*
X160791295Y-42412495D01*
X160791295Y-42412495D02*
X159991295Y-42312495D01*
X159991295Y-42312495D02*
X159991295Y-42074400D01*
X159991295Y-41931542D02*
X159991295Y-41645828D01*
X160791295Y-41888685D02*
X159991295Y-41788685D01*
X155975086Y-58492895D02*
X156260800Y-58492895D01*
X156017943Y-59292895D02*
X156117943Y-58492895D01*
X156379847Y-58492895D02*
X156613181Y-59292895D01*
X156713181Y-58492895D02*
X156279847Y-59292895D01*
X135914123Y-59597695D02*
X136014123Y-58797695D01*
X136014123Y-58797695D02*
X136133171Y-58797695D01*
X136133171Y-58797695D02*
X136199838Y-58835790D01*
X136199838Y-58835790D02*
X136237933Y-58911980D01*
X136237933Y-58911980D02*
X136252218Y-58988171D01*
X136252218Y-58988171D02*
X136256980Y-59140552D01*
X136256980Y-59140552D02*
X136242695Y-59254838D01*
X136242695Y-59254838D02*
X136199838Y-59407219D01*
X136199838Y-59407219D02*
X136166504Y-59483409D01*
X136166504Y-59483409D02*
X136109361Y-59559600D01*
X136109361Y-59559600D02*
X136033171Y-59597695D01*
X136033171Y-59597695D02*
X135914123Y-59597695D01*
X136695076Y-59064361D02*
X136628409Y-59597695D01*
X136614123Y-58759600D02*
X136423647Y-59331028D01*
X136423647Y-59331028D02*
X136733171Y-59331028D01*
X150539571Y-58746895D02*
X150706238Y-59546895D01*
X150706238Y-59546895D02*
X151072904Y-58746895D01*
X151706237Y-59470704D02*
X151663380Y-59508800D01*
X151663380Y-59508800D02*
X151544333Y-59546895D01*
X151544333Y-59546895D02*
X151468142Y-59546895D01*
X151468142Y-59546895D02*
X151358618Y-59508800D01*
X151358618Y-59508800D02*
X151291952Y-59432609D01*
X151291952Y-59432609D02*
X151263380Y-59356419D01*
X151263380Y-59356419D02*
X151244333Y-59204038D01*
X151244333Y-59204038D02*
X151258618Y-59089752D01*
X151258618Y-59089752D02*
X151315761Y-58937371D01*
X151315761Y-58937371D02*
X151363380Y-58861180D01*
X151363380Y-58861180D02*
X151449095Y-58784990D01*
X151449095Y-58784990D02*
X151568142Y-58746895D01*
X151568142Y-58746895D02*
X151644333Y-58746895D01*
X151644333Y-58746895D02*
X151753857Y-58784990D01*
X151753857Y-58784990D02*
X151787190Y-58823085D01*
X152506237Y-59470704D02*
X152463380Y-59508800D01*
X152463380Y-59508800D02*
X152344333Y-59546895D01*
X152344333Y-59546895D02*
X152268142Y-59546895D01*
X152268142Y-59546895D02*
X152158618Y-59508800D01*
X152158618Y-59508800D02*
X152091952Y-59432609D01*
X152091952Y-59432609D02*
X152063380Y-59356419D01*
X152063380Y-59356419D02*
X152044333Y-59204038D01*
X152044333Y-59204038D02*
X152058618Y-59089752D01*
X152058618Y-59089752D02*
X152115761Y-58937371D01*
X152115761Y-58937371D02*
X152163380Y-58861180D01*
X152163380Y-58861180D02*
X152249095Y-58784990D01*
X152249095Y-58784990D02*
X152368142Y-58746895D01*
X152368142Y-58746895D02*
X152444333Y-58746895D01*
X152444333Y-58746895D02*
X152553857Y-58784990D01*
X152553857Y-58784990D02*
X152587190Y-58823085D01*
X143559523Y-59597695D02*
X143659523Y-58797695D01*
X143659523Y-58797695D02*
X143778571Y-58797695D01*
X143778571Y-58797695D02*
X143845238Y-58835790D01*
X143845238Y-58835790D02*
X143883333Y-58911980D01*
X143883333Y-58911980D02*
X143897618Y-58988171D01*
X143897618Y-58988171D02*
X143902380Y-59140552D01*
X143902380Y-59140552D02*
X143888095Y-59254838D01*
X143888095Y-59254838D02*
X143845238Y-59407219D01*
X143845238Y-59407219D02*
X143811904Y-59483409D01*
X143811904Y-59483409D02*
X143754761Y-59559600D01*
X143754761Y-59559600D02*
X143678571Y-59597695D01*
X143678571Y-59597695D02*
X143559523Y-59597695D01*
X144111904Y-58797695D02*
X144445238Y-58797695D01*
X144445238Y-58797695D02*
X144130952Y-59597695D01*
X133516705Y-55990895D02*
X133297657Y-55609942D01*
X133059562Y-55990895D02*
X133159562Y-55190895D01*
X133159562Y-55190895D02*
X133464324Y-55190895D01*
X133464324Y-55190895D02*
X133535752Y-55228990D01*
X133535752Y-55228990D02*
X133569086Y-55267085D01*
X133569086Y-55267085D02*
X133597657Y-55343276D01*
X133597657Y-55343276D02*
X133583371Y-55457561D01*
X133583371Y-55457561D02*
X133535752Y-55533752D01*
X133535752Y-55533752D02*
X133492895Y-55571847D01*
X133492895Y-55571847D02*
X133411943Y-55609942D01*
X133411943Y-55609942D02*
X133107181Y-55609942D01*
X134340514Y-55190895D02*
X133959562Y-55190895D01*
X133959562Y-55190895D02*
X133873848Y-55571847D01*
X133873848Y-55571847D02*
X133916705Y-55533752D01*
X133916705Y-55533752D02*
X133997657Y-55495657D01*
X133997657Y-55495657D02*
X134188133Y-55495657D01*
X134188133Y-55495657D02*
X134259562Y-55533752D01*
X134259562Y-55533752D02*
X134292895Y-55571847D01*
X134292895Y-55571847D02*
X134321467Y-55648038D01*
X134321467Y-55648038D02*
X134297657Y-55838514D01*
X134297657Y-55838514D02*
X134250038Y-55914704D01*
X134250038Y-55914704D02*
X134207181Y-55952800D01*
X134207181Y-55952800D02*
X134126228Y-55990895D01*
X134126228Y-55990895D02*
X133935752Y-55990895D01*
X133935752Y-55990895D02*
X133864324Y-55952800D01*
X133864324Y-55952800D02*
X133830990Y-55914704D01*
X135490781Y-55990895D02*
X135205067Y-55990895D01*
X135347924Y-55990895D02*
X135347924Y-55190895D01*
X135347924Y-55190895D02*
X135300305Y-55305180D01*
X135300305Y-55305180D02*
X135252686Y-55381371D01*
X135252686Y-55381371D02*
X135205067Y-55419466D01*
X135800304Y-55190895D02*
X135847923Y-55190895D01*
X135847923Y-55190895D02*
X135895542Y-55228990D01*
X135895542Y-55228990D02*
X135919352Y-55267085D01*
X135919352Y-55267085D02*
X135943161Y-55343276D01*
X135943161Y-55343276D02*
X135966971Y-55495657D01*
X135966971Y-55495657D02*
X135966971Y-55686133D01*
X135966971Y-55686133D02*
X135943161Y-55838514D01*
X135943161Y-55838514D02*
X135919352Y-55914704D01*
X135919352Y-55914704D02*
X135895542Y-55952800D01*
X135895542Y-55952800D02*
X135847923Y-55990895D01*
X135847923Y-55990895D02*
X135800304Y-55990895D01*
X135800304Y-55990895D02*
X135752685Y-55952800D01*
X135752685Y-55952800D02*
X135728876Y-55914704D01*
X135728876Y-55914704D02*
X135705066Y-55838514D01*
X135705066Y-55838514D02*
X135681257Y-55686133D01*
X135681257Y-55686133D02*
X135681257Y-55495657D01*
X135681257Y-55495657D02*
X135705066Y-55343276D01*
X135705066Y-55343276D02*
X135728876Y-55267085D01*
X135728876Y-55267085D02*
X135752685Y-55228990D01*
X135752685Y-55228990D02*
X135800304Y-55190895D01*
X136181256Y-55990895D02*
X136181256Y-55190895D01*
X136228875Y-55686133D02*
X136371732Y-55990895D01*
X136371732Y-55457561D02*
X136181256Y-55762323D01*
X144006905Y-36562895D02*
X143787857Y-36181942D01*
X143549762Y-36562895D02*
X143649762Y-35762895D01*
X143649762Y-35762895D02*
X143954524Y-35762895D01*
X143954524Y-35762895D02*
X144025952Y-35800990D01*
X144025952Y-35800990D02*
X144059286Y-35839085D01*
X144059286Y-35839085D02*
X144087857Y-35915276D01*
X144087857Y-35915276D02*
X144073571Y-36029561D01*
X144073571Y-36029561D02*
X144025952Y-36105752D01*
X144025952Y-36105752D02*
X143983095Y-36143847D01*
X143983095Y-36143847D02*
X143902143Y-36181942D01*
X143902143Y-36181942D02*
X143597381Y-36181942D01*
X144768809Y-36562895D02*
X144311667Y-36562895D01*
X144540238Y-36562895D02*
X144640238Y-35762895D01*
X144640238Y-35762895D02*
X144549762Y-35877180D01*
X144549762Y-35877180D02*
X144464048Y-35953371D01*
X144464048Y-35953371D02*
X144383095Y-35991466D01*
X145730162Y-36562895D02*
X145444448Y-36562895D01*
X145587305Y-36562895D02*
X145587305Y-35762895D01*
X145587305Y-35762895D02*
X145539686Y-35877180D01*
X145539686Y-35877180D02*
X145492067Y-35953371D01*
X145492067Y-35953371D02*
X145444448Y-35991466D01*
X146039685Y-35762895D02*
X146087304Y-35762895D01*
X146087304Y-35762895D02*
X146134923Y-35800990D01*
X146134923Y-35800990D02*
X146158733Y-35839085D01*
X146158733Y-35839085D02*
X146182542Y-35915276D01*
X146182542Y-35915276D02*
X146206352Y-36067657D01*
X146206352Y-36067657D02*
X146206352Y-36258133D01*
X146206352Y-36258133D02*
X146182542Y-36410514D01*
X146182542Y-36410514D02*
X146158733Y-36486704D01*
X146158733Y-36486704D02*
X146134923Y-36524800D01*
X146134923Y-36524800D02*
X146087304Y-36562895D01*
X146087304Y-36562895D02*
X146039685Y-36562895D01*
X146039685Y-36562895D02*
X145992066Y-36524800D01*
X145992066Y-36524800D02*
X145968257Y-36486704D01*
X145968257Y-36486704D02*
X145944447Y-36410514D01*
X145944447Y-36410514D02*
X145920638Y-36258133D01*
X145920638Y-36258133D02*
X145920638Y-36067657D01*
X145920638Y-36067657D02*
X145944447Y-35915276D01*
X145944447Y-35915276D02*
X145968257Y-35839085D01*
X145968257Y-35839085D02*
X145992066Y-35800990D01*
X145992066Y-35800990D02*
X146039685Y-35762895D01*
X146420637Y-36562895D02*
X146420637Y-35762895D01*
X146706351Y-36562895D02*
X146492066Y-36105752D01*
X146706351Y-35762895D02*
X146420637Y-36220038D01*
X132622704Y-43475171D02*
X132660800Y-43518028D01*
X132660800Y-43518028D02*
X132698895Y-43637075D01*
X132698895Y-43637075D02*
X132698895Y-43713266D01*
X132698895Y-43713266D02*
X132660800Y-43822790D01*
X132660800Y-43822790D02*
X132584609Y-43889456D01*
X132584609Y-43889456D02*
X132508419Y-43918028D01*
X132508419Y-43918028D02*
X132356038Y-43937075D01*
X132356038Y-43937075D02*
X132241752Y-43922790D01*
X132241752Y-43922790D02*
X132089371Y-43865647D01*
X132089371Y-43865647D02*
X132013180Y-43818028D01*
X132013180Y-43818028D02*
X131936990Y-43732313D01*
X131936990Y-43732313D02*
X131898895Y-43613266D01*
X131898895Y-43613266D02*
X131898895Y-43537075D01*
X131898895Y-43537075D02*
X131936990Y-43427552D01*
X131936990Y-43427552D02*
X131975085Y-43394218D01*
X131898895Y-42660885D02*
X131898895Y-43041837D01*
X131898895Y-43041837D02*
X132279847Y-43127552D01*
X132279847Y-43127552D02*
X132241752Y-43084694D01*
X132241752Y-43084694D02*
X132203657Y-43003742D01*
X132203657Y-43003742D02*
X132203657Y-42813266D01*
X132203657Y-42813266D02*
X132241752Y-42741837D01*
X132241752Y-42741837D02*
X132279847Y-42708504D01*
X132279847Y-42708504D02*
X132356038Y-42679932D01*
X132356038Y-42679932D02*
X132546514Y-42703742D01*
X132546514Y-42703742D02*
X132622704Y-42751361D01*
X132622704Y-42751361D02*
X132660800Y-42794218D01*
X132660800Y-42794218D02*
X132698895Y-42875171D01*
X132698895Y-42875171D02*
X132698895Y-43065647D01*
X132698895Y-43065647D02*
X132660800Y-43137075D01*
X132660800Y-43137075D02*
X132622704Y-43170409D01*
X132698895Y-46050808D02*
X132698895Y-46336522D01*
X132698895Y-46193665D02*
X131898895Y-46193665D01*
X131898895Y-46193665D02*
X132013180Y-46241284D01*
X132013180Y-46241284D02*
X132089371Y-46288903D01*
X132089371Y-46288903D02*
X132127466Y-46336522D01*
X131898895Y-45741285D02*
X131898895Y-45693666D01*
X131898895Y-45693666D02*
X131936990Y-45646047D01*
X131936990Y-45646047D02*
X131975085Y-45622237D01*
X131975085Y-45622237D02*
X132051276Y-45598428D01*
X132051276Y-45598428D02*
X132203657Y-45574618D01*
X132203657Y-45574618D02*
X132394133Y-45574618D01*
X132394133Y-45574618D02*
X132546514Y-45598428D01*
X132546514Y-45598428D02*
X132622704Y-45622237D01*
X132622704Y-45622237D02*
X132660800Y-45646047D01*
X132660800Y-45646047D02*
X132698895Y-45693666D01*
X132698895Y-45693666D02*
X132698895Y-45741285D01*
X132698895Y-45741285D02*
X132660800Y-45788904D01*
X132660800Y-45788904D02*
X132622704Y-45812713D01*
X132622704Y-45812713D02*
X132546514Y-45836523D01*
X132546514Y-45836523D02*
X132394133Y-45860332D01*
X132394133Y-45860332D02*
X132203657Y-45860332D01*
X132203657Y-45860332D02*
X132051276Y-45836523D01*
X132051276Y-45836523D02*
X131975085Y-45812713D01*
X131975085Y-45812713D02*
X131936990Y-45788904D01*
X131936990Y-45788904D02*
X131898895Y-45741285D01*
X131898895Y-45265095D02*
X131898895Y-45217476D01*
X131898895Y-45217476D02*
X131936990Y-45169857D01*
X131936990Y-45169857D02*
X131975085Y-45146047D01*
X131975085Y-45146047D02*
X132051276Y-45122238D01*
X132051276Y-45122238D02*
X132203657Y-45098428D01*
X132203657Y-45098428D02*
X132394133Y-45098428D01*
X132394133Y-45098428D02*
X132546514Y-45122238D01*
X132546514Y-45122238D02*
X132622704Y-45146047D01*
X132622704Y-45146047D02*
X132660800Y-45169857D01*
X132660800Y-45169857D02*
X132698895Y-45217476D01*
X132698895Y-45217476D02*
X132698895Y-45265095D01*
X132698895Y-45265095D02*
X132660800Y-45312714D01*
X132660800Y-45312714D02*
X132622704Y-45336523D01*
X132622704Y-45336523D02*
X132546514Y-45360333D01*
X132546514Y-45360333D02*
X132394133Y-45384142D01*
X132394133Y-45384142D02*
X132203657Y-45384142D01*
X132203657Y-45384142D02*
X132051276Y-45360333D01*
X132051276Y-45360333D02*
X131975085Y-45336523D01*
X131975085Y-45336523D02*
X131936990Y-45312714D01*
X131936990Y-45312714D02*
X131898895Y-45265095D01*
X132165561Y-44884143D02*
X132698895Y-44884143D01*
X132241752Y-44884143D02*
X132203657Y-44860333D01*
X132203657Y-44860333D02*
X132165561Y-44812714D01*
X132165561Y-44812714D02*
X132165561Y-44741286D01*
X132165561Y-44741286D02*
X132203657Y-44693667D01*
X132203657Y-44693667D02*
X132279847Y-44669857D01*
X132279847Y-44669857D02*
X132698895Y-44669857D01*
X132279847Y-44265095D02*
X132279847Y-44431762D01*
X132698895Y-44431762D02*
X131898895Y-44431762D01*
X131898895Y-44431762D02*
X131898895Y-44193667D01*
X142568628Y-55914704D02*
X142525771Y-55952800D01*
X142525771Y-55952800D02*
X142406724Y-55990895D01*
X142406724Y-55990895D02*
X142330533Y-55990895D01*
X142330533Y-55990895D02*
X142221009Y-55952800D01*
X142221009Y-55952800D02*
X142154343Y-55876609D01*
X142154343Y-55876609D02*
X142125771Y-55800419D01*
X142125771Y-55800419D02*
X142106724Y-55648038D01*
X142106724Y-55648038D02*
X142121009Y-55533752D01*
X142121009Y-55533752D02*
X142178152Y-55381371D01*
X142178152Y-55381371D02*
X142225771Y-55305180D01*
X142225771Y-55305180D02*
X142311486Y-55228990D01*
X142311486Y-55228990D02*
X142430533Y-55190895D01*
X142430533Y-55190895D02*
X142506724Y-55190895D01*
X142506724Y-55190895D02*
X142616248Y-55228990D01*
X142616248Y-55228990D02*
X142649581Y-55267085D01*
X143321009Y-55990895D02*
X142863867Y-55990895D01*
X143092438Y-55990895D02*
X143192438Y-55190895D01*
X143192438Y-55190895D02*
X143101962Y-55305180D01*
X143101962Y-55305180D02*
X143016248Y-55381371D01*
X143016248Y-55381371D02*
X142935295Y-55419466D01*
X144110972Y-55190895D02*
X144158591Y-55190895D01*
X144158591Y-55190895D02*
X144206210Y-55228990D01*
X144206210Y-55228990D02*
X144230020Y-55267085D01*
X144230020Y-55267085D02*
X144253829Y-55343276D01*
X144253829Y-55343276D02*
X144277639Y-55495657D01*
X144277639Y-55495657D02*
X144277639Y-55686133D01*
X144277639Y-55686133D02*
X144253829Y-55838514D01*
X144253829Y-55838514D02*
X144230020Y-55914704D01*
X144230020Y-55914704D02*
X144206210Y-55952800D01*
X144206210Y-55952800D02*
X144158591Y-55990895D01*
X144158591Y-55990895D02*
X144110972Y-55990895D01*
X144110972Y-55990895D02*
X144063353Y-55952800D01*
X144063353Y-55952800D02*
X144039544Y-55914704D01*
X144039544Y-55914704D02*
X144015734Y-55838514D01*
X144015734Y-55838514D02*
X143991925Y-55686133D01*
X143991925Y-55686133D02*
X143991925Y-55495657D01*
X143991925Y-55495657D02*
X144015734Y-55343276D01*
X144015734Y-55343276D02*
X144039544Y-55267085D01*
X144039544Y-55267085D02*
X144063353Y-55228990D01*
X144063353Y-55228990D02*
X144110972Y-55190895D01*
X144491924Y-55914704D02*
X144515734Y-55952800D01*
X144515734Y-55952800D02*
X144491924Y-55990895D01*
X144491924Y-55990895D02*
X144468115Y-55952800D01*
X144468115Y-55952800D02*
X144491924Y-55914704D01*
X144491924Y-55914704D02*
X144491924Y-55990895D01*
X144991924Y-55990895D02*
X144706210Y-55990895D01*
X144849067Y-55990895D02*
X144849067Y-55190895D01*
X144849067Y-55190895D02*
X144801448Y-55305180D01*
X144801448Y-55305180D02*
X144753829Y-55381371D01*
X144753829Y-55381371D02*
X144706210Y-55419466D01*
X145420495Y-55457561D02*
X145420495Y-55990895D01*
X145206209Y-55457561D02*
X145206209Y-55876609D01*
X145206209Y-55876609D02*
X145230019Y-55952800D01*
X145230019Y-55952800D02*
X145277638Y-55990895D01*
X145277638Y-55990895D02*
X145349066Y-55990895D01*
X145349066Y-55990895D02*
X145396685Y-55952800D01*
X145396685Y-55952800D02*
X145420495Y-55914704D01*
X145825257Y-55571847D02*
X145658590Y-55571847D01*
X145658590Y-55990895D02*
X145658590Y-55190895D01*
X145658590Y-55190895D02*
X145896685Y-55190895D01*
X162639286Y-35678495D02*
X162739286Y-34878495D01*
X163486904Y-35602304D02*
X163444047Y-35640400D01*
X163444047Y-35640400D02*
X163325000Y-35678495D01*
X163325000Y-35678495D02*
X163248809Y-35678495D01*
X163248809Y-35678495D02*
X163139285Y-35640400D01*
X163139285Y-35640400D02*
X163072619Y-35564209D01*
X163072619Y-35564209D02*
X163044047Y-35488019D01*
X163044047Y-35488019D02*
X163025000Y-35335638D01*
X163025000Y-35335638D02*
X163039285Y-35221352D01*
X163039285Y-35221352D02*
X163096428Y-35068971D01*
X163096428Y-35068971D02*
X163144047Y-34992780D01*
X163144047Y-34992780D02*
X163229762Y-34916590D01*
X163229762Y-34916590D02*
X163348809Y-34878495D01*
X163348809Y-34878495D02*
X163425000Y-34878495D01*
X163425000Y-34878495D02*
X163534524Y-34916590D01*
X163534524Y-34916590D02*
X163567857Y-34954685D01*
X163786904Y-35640400D02*
X163896428Y-35678495D01*
X163896428Y-35678495D02*
X164086904Y-35678495D01*
X164086904Y-35678495D02*
X164167857Y-35640400D01*
X164167857Y-35640400D02*
X164210714Y-35602304D01*
X164210714Y-35602304D02*
X164258333Y-35526114D01*
X164258333Y-35526114D02*
X164267857Y-35449923D01*
X164267857Y-35449923D02*
X164239285Y-35373733D01*
X164239285Y-35373733D02*
X164205952Y-35335638D01*
X164205952Y-35335638D02*
X164134524Y-35297542D01*
X164134524Y-35297542D02*
X163986904Y-35259447D01*
X163986904Y-35259447D02*
X163915476Y-35221352D01*
X163915476Y-35221352D02*
X163882143Y-35183257D01*
X163882143Y-35183257D02*
X163853571Y-35107066D01*
X163853571Y-35107066D02*
X163863095Y-35030876D01*
X163863095Y-35030876D02*
X163910714Y-34954685D01*
X163910714Y-34954685D02*
X163953571Y-34916590D01*
X163953571Y-34916590D02*
X164034524Y-34878495D01*
X164034524Y-34878495D02*
X164225000Y-34878495D01*
X164225000Y-34878495D02*
X164334524Y-34916590D01*
X164582143Y-35678495D02*
X164682143Y-34878495D01*
X164682143Y-34878495D02*
X164986905Y-34878495D01*
X164986905Y-34878495D02*
X165058333Y-34916590D01*
X165058333Y-34916590D02*
X165091667Y-34954685D01*
X165091667Y-34954685D02*
X165120238Y-35030876D01*
X165120238Y-35030876D02*
X165105952Y-35145161D01*
X165105952Y-35145161D02*
X165058333Y-35221352D01*
X165058333Y-35221352D02*
X165015476Y-35259447D01*
X165015476Y-35259447D02*
X164934524Y-35297542D01*
X164934524Y-35297542D02*
X164629762Y-35297542D01*
X138139505Y-55990895D02*
X137920457Y-55609942D01*
X137682362Y-55990895D02*
X137782362Y-55190895D01*
X137782362Y-55190895D02*
X138087124Y-55190895D01*
X138087124Y-55190895D02*
X138158552Y-55228990D01*
X138158552Y-55228990D02*
X138191886Y-55267085D01*
X138191886Y-55267085D02*
X138220457Y-55343276D01*
X138220457Y-55343276D02*
X138206171Y-55457561D01*
X138206171Y-55457561D02*
X138158552Y-55533752D01*
X138158552Y-55533752D02*
X138115695Y-55571847D01*
X138115695Y-55571847D02*
X138034743Y-55609942D01*
X138034743Y-55609942D02*
X137729981Y-55609942D01*
X138891886Y-55457561D02*
X138825219Y-55990895D01*
X138739505Y-55152800D02*
X138477600Y-55724228D01*
X138477600Y-55724228D02*
X138972838Y-55724228D01*
X140113581Y-55990895D02*
X139827867Y-55990895D01*
X139970724Y-55990895D02*
X139970724Y-55190895D01*
X139970724Y-55190895D02*
X139923105Y-55305180D01*
X139923105Y-55305180D02*
X139875486Y-55381371D01*
X139875486Y-55381371D02*
X139827867Y-55419466D01*
X140423104Y-55190895D02*
X140470723Y-55190895D01*
X140470723Y-55190895D02*
X140518342Y-55228990D01*
X140518342Y-55228990D02*
X140542152Y-55267085D01*
X140542152Y-55267085D02*
X140565961Y-55343276D01*
X140565961Y-55343276D02*
X140589771Y-55495657D01*
X140589771Y-55495657D02*
X140589771Y-55686133D01*
X140589771Y-55686133D02*
X140565961Y-55838514D01*
X140565961Y-55838514D02*
X140542152Y-55914704D01*
X140542152Y-55914704D02*
X140518342Y-55952800D01*
X140518342Y-55952800D02*
X140470723Y-55990895D01*
X140470723Y-55990895D02*
X140423104Y-55990895D01*
X140423104Y-55990895D02*
X140375485Y-55952800D01*
X140375485Y-55952800D02*
X140351676Y-55914704D01*
X140351676Y-55914704D02*
X140327866Y-55838514D01*
X140327866Y-55838514D02*
X140304057Y-55686133D01*
X140304057Y-55686133D02*
X140304057Y-55495657D01*
X140304057Y-55495657D02*
X140327866Y-55343276D01*
X140327866Y-55343276D02*
X140351676Y-55267085D01*
X140351676Y-55267085D02*
X140375485Y-55228990D01*
X140375485Y-55228990D02*
X140423104Y-55190895D01*
X140804056Y-55990895D02*
X140804056Y-55190895D01*
X140851675Y-55686133D02*
X140994532Y-55990895D01*
X140994532Y-55457561D02*
X140804056Y-55762323D01*
X132000495Y-55381255D02*
X132000495Y-55071731D01*
X132000495Y-55071731D02*
X132305257Y-55238398D01*
X132305257Y-55238398D02*
X132305257Y-55166969D01*
X132305257Y-55166969D02*
X132343352Y-55119350D01*
X132343352Y-55119350D02*
X132381447Y-55095541D01*
X132381447Y-55095541D02*
X132457638Y-55071731D01*
X132457638Y-55071731D02*
X132648114Y-55071731D01*
X132648114Y-55071731D02*
X132724304Y-55095541D01*
X132724304Y-55095541D02*
X132762400Y-55119350D01*
X132762400Y-55119350D02*
X132800495Y-55166969D01*
X132800495Y-55166969D02*
X132800495Y-55309826D01*
X132800495Y-55309826D02*
X132762400Y-55357445D01*
X132762400Y-55357445D02*
X132724304Y-55381255D01*
X132076685Y-54881255D02*
X132038590Y-54857446D01*
X132038590Y-54857446D02*
X132000495Y-54809827D01*
X132000495Y-54809827D02*
X132000495Y-54690779D01*
X132000495Y-54690779D02*
X132038590Y-54643160D01*
X132038590Y-54643160D02*
X132076685Y-54619351D01*
X132076685Y-54619351D02*
X132152876Y-54595541D01*
X132152876Y-54595541D02*
X132229066Y-54595541D01*
X132229066Y-54595541D02*
X132343352Y-54619351D01*
X132343352Y-54619351D02*
X132800495Y-54905065D01*
X132800495Y-54905065D02*
X132800495Y-54595541D01*
X132724304Y-54381256D02*
X132762400Y-54357446D01*
X132762400Y-54357446D02*
X132800495Y-54381256D01*
X132800495Y-54381256D02*
X132762400Y-54405065D01*
X132762400Y-54405065D02*
X132724304Y-54381256D01*
X132724304Y-54381256D02*
X132800495Y-54381256D01*
X132000495Y-54190780D02*
X132000495Y-53857447D01*
X132000495Y-53857447D02*
X132800495Y-54071732D01*
X132000495Y-53452685D02*
X132000495Y-53547923D01*
X132000495Y-53547923D02*
X132038590Y-53595542D01*
X132038590Y-53595542D02*
X132076685Y-53619352D01*
X132076685Y-53619352D02*
X132190971Y-53666971D01*
X132190971Y-53666971D02*
X132343352Y-53690780D01*
X132343352Y-53690780D02*
X132648114Y-53690780D01*
X132648114Y-53690780D02*
X132724304Y-53666971D01*
X132724304Y-53666971D02*
X132762400Y-53643161D01*
X132762400Y-53643161D02*
X132800495Y-53595542D01*
X132800495Y-53595542D02*
X132800495Y-53500304D01*
X132800495Y-53500304D02*
X132762400Y-53452685D01*
X132762400Y-53452685D02*
X132724304Y-53428876D01*
X132724304Y-53428876D02*
X132648114Y-53405066D01*
X132648114Y-53405066D02*
X132457638Y-53405066D01*
X132457638Y-53405066D02*
X132381447Y-53428876D01*
X132381447Y-53428876D02*
X132343352Y-53452685D01*
X132343352Y-53452685D02*
X132305257Y-53500304D01*
X132305257Y-53500304D02*
X132305257Y-53595542D01*
X132305257Y-53595542D02*
X132343352Y-53643161D01*
X132343352Y-53643161D02*
X132381447Y-53666971D01*
X132381447Y-53666971D02*
X132457638Y-53690780D01*
X132343352Y-53119352D02*
X132305257Y-53166971D01*
X132305257Y-53166971D02*
X132267161Y-53190781D01*
X132267161Y-53190781D02*
X132190971Y-53214590D01*
X132190971Y-53214590D02*
X132152876Y-53214590D01*
X132152876Y-53214590D02*
X132076685Y-53190781D01*
X132076685Y-53190781D02*
X132038590Y-53166971D01*
X132038590Y-53166971D02*
X132000495Y-53119352D01*
X132000495Y-53119352D02*
X132000495Y-53024114D01*
X132000495Y-53024114D02*
X132038590Y-52976495D01*
X132038590Y-52976495D02*
X132076685Y-52952686D01*
X132076685Y-52952686D02*
X132152876Y-52928876D01*
X132152876Y-52928876D02*
X132190971Y-52928876D01*
X132190971Y-52928876D02*
X132267161Y-52952686D01*
X132267161Y-52952686D02*
X132305257Y-52976495D01*
X132305257Y-52976495D02*
X132343352Y-53024114D01*
X132343352Y-53024114D02*
X132343352Y-53119352D01*
X132343352Y-53119352D02*
X132381447Y-53166971D01*
X132381447Y-53166971D02*
X132419542Y-53190781D01*
X132419542Y-53190781D02*
X132495733Y-53214590D01*
X132495733Y-53214590D02*
X132648114Y-53214590D01*
X132648114Y-53214590D02*
X132724304Y-53190781D01*
X132724304Y-53190781D02*
X132762400Y-53166971D01*
X132762400Y-53166971D02*
X132800495Y-53119352D01*
X132800495Y-53119352D02*
X132800495Y-53024114D01*
X132800495Y-53024114D02*
X132762400Y-52976495D01*
X132762400Y-52976495D02*
X132724304Y-52952686D01*
X132724304Y-52952686D02*
X132648114Y-52928876D01*
X132648114Y-52928876D02*
X132495733Y-52928876D01*
X132495733Y-52928876D02*
X132419542Y-52952686D01*
X132419542Y-52952686D02*
X132381447Y-52976495D01*
X132381447Y-52976495D02*
X132343352Y-53024114D01*
X132800495Y-52333639D02*
X132000495Y-52333639D01*
X132800495Y-52047925D02*
X132343352Y-52262210D01*
X132000495Y-52047925D02*
X132457638Y-52333639D01*
X132800495Y-51833639D02*
X132000495Y-51833639D01*
X132381447Y-51833639D02*
X132381447Y-51547925D01*
X132800495Y-51547925D02*
X132000495Y-51547925D01*
X132267161Y-51357448D02*
X132267161Y-51095543D01*
X132267161Y-51095543D02*
X132800495Y-51357448D01*
X132800495Y-51357448D02*
X132800495Y-51095543D01*
X139489087Y-47339585D02*
X139512896Y-47301490D01*
X139512896Y-47301490D02*
X139560515Y-47263395D01*
X139560515Y-47263395D02*
X139679563Y-47263395D01*
X139679563Y-47263395D02*
X139727182Y-47301490D01*
X139727182Y-47301490D02*
X139750991Y-47339585D01*
X139750991Y-47339585D02*
X139774801Y-47415776D01*
X139774801Y-47415776D02*
X139774801Y-47491966D01*
X139774801Y-47491966D02*
X139750991Y-47606252D01*
X139750991Y-47606252D02*
X139465277Y-48063395D01*
X139465277Y-48063395D02*
X139774801Y-48063395D01*
X140203372Y-47530061D02*
X140203372Y-48063395D01*
X140084324Y-47225300D02*
X139965277Y-47796728D01*
X139965277Y-47796728D02*
X140274800Y-47796728D01*
X140703371Y-48063395D02*
X140465276Y-48063395D01*
X140465276Y-48063395D02*
X140465276Y-47263395D01*
X141155752Y-47987204D02*
X141131943Y-48025300D01*
X141131943Y-48025300D02*
X141060514Y-48063395D01*
X141060514Y-48063395D02*
X141012895Y-48063395D01*
X141012895Y-48063395D02*
X140941467Y-48025300D01*
X140941467Y-48025300D02*
X140893848Y-47949109D01*
X140893848Y-47949109D02*
X140870038Y-47872919D01*
X140870038Y-47872919D02*
X140846229Y-47720538D01*
X140846229Y-47720538D02*
X140846229Y-47606252D01*
X140846229Y-47606252D02*
X140870038Y-47453871D01*
X140870038Y-47453871D02*
X140893848Y-47377680D01*
X140893848Y-47377680D02*
X140941467Y-47301490D01*
X140941467Y-47301490D02*
X141012895Y-47263395D01*
X141012895Y-47263395D02*
X141060514Y-47263395D01*
X141060514Y-47263395D02*
X141131943Y-47301490D01*
X141131943Y-47301490D02*
X141155752Y-47339585D01*
X141631943Y-48063395D02*
X141346229Y-48063395D01*
X141489086Y-48063395D02*
X141489086Y-47263395D01*
X141489086Y-47263395D02*
X141441467Y-47377680D01*
X141441467Y-47377680D02*
X141393848Y-47453871D01*
X141393848Y-47453871D02*
X141346229Y-47491966D01*
X141941466Y-47263395D02*
X141989085Y-47263395D01*
X141989085Y-47263395D02*
X142036704Y-47301490D01*
X142036704Y-47301490D02*
X142060514Y-47339585D01*
X142060514Y-47339585D02*
X142084323Y-47415776D01*
X142084323Y-47415776D02*
X142108133Y-47568157D01*
X142108133Y-47568157D02*
X142108133Y-47758633D01*
X142108133Y-47758633D02*
X142084323Y-47911014D01*
X142084323Y-47911014D02*
X142060514Y-47987204D01*
X142060514Y-47987204D02*
X142036704Y-48025300D01*
X142036704Y-48025300D02*
X141989085Y-48063395D01*
X141989085Y-48063395D02*
X141941466Y-48063395D01*
X141941466Y-48063395D02*
X141893847Y-48025300D01*
X141893847Y-48025300D02*
X141870038Y-47987204D01*
X141870038Y-47987204D02*
X141846228Y-47911014D01*
X141846228Y-47911014D02*
X141822419Y-47758633D01*
X141822419Y-47758633D02*
X141822419Y-47568157D01*
X141822419Y-47568157D02*
X141846228Y-47415776D01*
X141846228Y-47415776D02*
X141870038Y-47339585D01*
X141870038Y-47339585D02*
X141893847Y-47301490D01*
X141893847Y-47301490D02*
X141941466Y-47263395D01*
X142298609Y-47339585D02*
X142322418Y-47301490D01*
X142322418Y-47301490D02*
X142370037Y-47263395D01*
X142370037Y-47263395D02*
X142489085Y-47263395D01*
X142489085Y-47263395D02*
X142536704Y-47301490D01*
X142536704Y-47301490D02*
X142560513Y-47339585D01*
X142560513Y-47339585D02*
X142584323Y-47415776D01*
X142584323Y-47415776D02*
X142584323Y-47491966D01*
X142584323Y-47491966D02*
X142560513Y-47606252D01*
X142560513Y-47606252D02*
X142274799Y-48063395D01*
X142274799Y-48063395D02*
X142584323Y-48063395D01*
X143036703Y-47263395D02*
X142798608Y-47263395D01*
X142798608Y-47263395D02*
X142774799Y-47644347D01*
X142774799Y-47644347D02*
X142798608Y-47606252D01*
X142798608Y-47606252D02*
X142846227Y-47568157D01*
X142846227Y-47568157D02*
X142965275Y-47568157D01*
X142965275Y-47568157D02*
X143012894Y-47606252D01*
X143012894Y-47606252D02*
X143036703Y-47644347D01*
X143036703Y-47644347D02*
X143060513Y-47720538D01*
X143060513Y-47720538D02*
X143060513Y-47911014D01*
X143060513Y-47911014D02*
X143036703Y-47987204D01*
X143036703Y-47987204D02*
X143012894Y-48025300D01*
X143012894Y-48025300D02*
X142965275Y-48063395D01*
X142965275Y-48063395D02*
X142846227Y-48063395D01*
X142846227Y-48063395D02*
X142798608Y-48025300D01*
X142798608Y-48025300D02*
X142774799Y-47987204D01*
X139590687Y-39417485D02*
X139614496Y-39379390D01*
X139614496Y-39379390D02*
X139662115Y-39341295D01*
X139662115Y-39341295D02*
X139781163Y-39341295D01*
X139781163Y-39341295D02*
X139828782Y-39379390D01*
X139828782Y-39379390D02*
X139852591Y-39417485D01*
X139852591Y-39417485D02*
X139876401Y-39493676D01*
X139876401Y-39493676D02*
X139876401Y-39569866D01*
X139876401Y-39569866D02*
X139852591Y-39684152D01*
X139852591Y-39684152D02*
X139566877Y-40141295D01*
X139566877Y-40141295D02*
X139876401Y-40141295D01*
X140304972Y-39607961D02*
X140304972Y-40141295D01*
X140185924Y-39303200D02*
X140066877Y-39874628D01*
X140066877Y-39874628D02*
X140376400Y-39874628D01*
X140804971Y-40141295D02*
X140566876Y-40141295D01*
X140566876Y-40141295D02*
X140566876Y-39341295D01*
X141257352Y-40065104D02*
X141233543Y-40103200D01*
X141233543Y-40103200D02*
X141162114Y-40141295D01*
X141162114Y-40141295D02*
X141114495Y-40141295D01*
X141114495Y-40141295D02*
X141043067Y-40103200D01*
X141043067Y-40103200D02*
X140995448Y-40027009D01*
X140995448Y-40027009D02*
X140971638Y-39950819D01*
X140971638Y-39950819D02*
X140947829Y-39798438D01*
X140947829Y-39798438D02*
X140947829Y-39684152D01*
X140947829Y-39684152D02*
X140971638Y-39531771D01*
X140971638Y-39531771D02*
X140995448Y-39455580D01*
X140995448Y-39455580D02*
X141043067Y-39379390D01*
X141043067Y-39379390D02*
X141114495Y-39341295D01*
X141114495Y-39341295D02*
X141162114Y-39341295D01*
X141162114Y-39341295D02*
X141233543Y-39379390D01*
X141233543Y-39379390D02*
X141257352Y-39417485D01*
X141733543Y-40141295D02*
X141447829Y-40141295D01*
X141590686Y-40141295D02*
X141590686Y-39341295D01*
X141590686Y-39341295D02*
X141543067Y-39455580D01*
X141543067Y-39455580D02*
X141495448Y-39531771D01*
X141495448Y-39531771D02*
X141447829Y-39569866D01*
X142043066Y-39341295D02*
X142090685Y-39341295D01*
X142090685Y-39341295D02*
X142138304Y-39379390D01*
X142138304Y-39379390D02*
X142162114Y-39417485D01*
X142162114Y-39417485D02*
X142185923Y-39493676D01*
X142185923Y-39493676D02*
X142209733Y-39646057D01*
X142209733Y-39646057D02*
X142209733Y-39836533D01*
X142209733Y-39836533D02*
X142185923Y-39988914D01*
X142185923Y-39988914D02*
X142162114Y-40065104D01*
X142162114Y-40065104D02*
X142138304Y-40103200D01*
X142138304Y-40103200D02*
X142090685Y-40141295D01*
X142090685Y-40141295D02*
X142043066Y-40141295D01*
X142043066Y-40141295D02*
X141995447Y-40103200D01*
X141995447Y-40103200D02*
X141971638Y-40065104D01*
X141971638Y-40065104D02*
X141947828Y-39988914D01*
X141947828Y-39988914D02*
X141924019Y-39836533D01*
X141924019Y-39836533D02*
X141924019Y-39646057D01*
X141924019Y-39646057D02*
X141947828Y-39493676D01*
X141947828Y-39493676D02*
X141971638Y-39417485D01*
X141971638Y-39417485D02*
X141995447Y-39379390D01*
X141995447Y-39379390D02*
X142043066Y-39341295D01*
X142400209Y-39417485D02*
X142424018Y-39379390D01*
X142424018Y-39379390D02*
X142471637Y-39341295D01*
X142471637Y-39341295D02*
X142590685Y-39341295D01*
X142590685Y-39341295D02*
X142638304Y-39379390D01*
X142638304Y-39379390D02*
X142662113Y-39417485D01*
X142662113Y-39417485D02*
X142685923Y-39493676D01*
X142685923Y-39493676D02*
X142685923Y-39569866D01*
X142685923Y-39569866D02*
X142662113Y-39684152D01*
X142662113Y-39684152D02*
X142376399Y-40141295D01*
X142376399Y-40141295D02*
X142685923Y-40141295D01*
X143138303Y-39341295D02*
X142900208Y-39341295D01*
X142900208Y-39341295D02*
X142876399Y-39722247D01*
X142876399Y-39722247D02*
X142900208Y-39684152D01*
X142900208Y-39684152D02*
X142947827Y-39646057D01*
X142947827Y-39646057D02*
X143066875Y-39646057D01*
X143066875Y-39646057D02*
X143114494Y-39684152D01*
X143114494Y-39684152D02*
X143138303Y-39722247D01*
X143138303Y-39722247D02*
X143162113Y-39798438D01*
X143162113Y-39798438D02*
X143162113Y-39988914D01*
X143162113Y-39988914D02*
X143138303Y-40065104D01*
X143138303Y-40065104D02*
X143114494Y-40103200D01*
X143114494Y-40103200D02*
X143066875Y-40141295D01*
X143066875Y-40141295D02*
X142947827Y-40141295D01*
X142947827Y-40141295D02*
X142900208Y-40103200D01*
X142900208Y-40103200D02*
X142876399Y-40065104D01*
X150583392Y-38134723D02*
X150821487Y-38134723D01*
X150535773Y-38363295D02*
X150702439Y-37563295D01*
X150702439Y-37563295D02*
X150869106Y-38363295D01*
X150964344Y-37563295D02*
X151250058Y-37563295D01*
X151107201Y-38363295D02*
X151107201Y-37563295D01*
X151416724Y-38363295D02*
X151416724Y-37829961D01*
X151416724Y-37906152D02*
X151440534Y-37868057D01*
X151440534Y-37868057D02*
X151488153Y-37829961D01*
X151488153Y-37829961D02*
X151559581Y-37829961D01*
X151559581Y-37829961D02*
X151607200Y-37868057D01*
X151607200Y-37868057D02*
X151631010Y-37944247D01*
X151631010Y-37944247D02*
X151631010Y-38363295D01*
X151631010Y-37944247D02*
X151654819Y-37868057D01*
X151654819Y-37868057D02*
X151702438Y-37829961D01*
X151702438Y-37829961D02*
X151773867Y-37829961D01*
X151773867Y-37829961D02*
X151821486Y-37868057D01*
X151821486Y-37868057D02*
X151845296Y-37944247D01*
X151845296Y-37944247D02*
X151845296Y-38363295D01*
X152273867Y-38325200D02*
X152226248Y-38363295D01*
X152226248Y-38363295D02*
X152131010Y-38363295D01*
X152131010Y-38363295D02*
X152083391Y-38325200D01*
X152083391Y-38325200D02*
X152059582Y-38249009D01*
X152059582Y-38249009D02*
X152059582Y-37944247D01*
X152059582Y-37944247D02*
X152083391Y-37868057D01*
X152083391Y-37868057D02*
X152131010Y-37829961D01*
X152131010Y-37829961D02*
X152226248Y-37829961D01*
X152226248Y-37829961D02*
X152273867Y-37868057D01*
X152273867Y-37868057D02*
X152297677Y-37944247D01*
X152297677Y-37944247D02*
X152297677Y-38020438D01*
X152297677Y-38020438D02*
X152059582Y-38096628D01*
X152726248Y-37829961D02*
X152726248Y-38477580D01*
X152726248Y-38477580D02*
X152702438Y-38553771D01*
X152702438Y-38553771D02*
X152678629Y-38591866D01*
X152678629Y-38591866D02*
X152631010Y-38629961D01*
X152631010Y-38629961D02*
X152559581Y-38629961D01*
X152559581Y-38629961D02*
X152511962Y-38591866D01*
X152726248Y-38325200D02*
X152678629Y-38363295D01*
X152678629Y-38363295D02*
X152583391Y-38363295D01*
X152583391Y-38363295D02*
X152535772Y-38325200D01*
X152535772Y-38325200D02*
X152511962Y-38287104D01*
X152511962Y-38287104D02*
X152488153Y-38210914D01*
X152488153Y-38210914D02*
X152488153Y-37982342D01*
X152488153Y-37982342D02*
X152511962Y-37906152D01*
X152511962Y-37906152D02*
X152535772Y-37868057D01*
X152535772Y-37868057D02*
X152583391Y-37829961D01*
X152583391Y-37829961D02*
X152678629Y-37829961D01*
X152678629Y-37829961D02*
X152726248Y-37868057D01*
X153178629Y-38363295D02*
X153178629Y-37944247D01*
X153178629Y-37944247D02*
X153154819Y-37868057D01*
X153154819Y-37868057D02*
X153107200Y-37829961D01*
X153107200Y-37829961D02*
X153011962Y-37829961D01*
X153011962Y-37829961D02*
X152964343Y-37868057D01*
X153178629Y-38325200D02*
X153131010Y-38363295D01*
X153131010Y-38363295D02*
X153011962Y-38363295D01*
X153011962Y-38363295D02*
X152964343Y-38325200D01*
X152964343Y-38325200D02*
X152940534Y-38249009D01*
X152940534Y-38249009D02*
X152940534Y-38172819D01*
X152940534Y-38172819D02*
X152964343Y-38096628D01*
X152964343Y-38096628D02*
X153011962Y-38058533D01*
X153011962Y-38058533D02*
X153131010Y-38058533D01*
X153131010Y-38058533D02*
X153178629Y-38020438D01*
X153369105Y-37563295D02*
X153678629Y-37563295D01*
X153678629Y-37563295D02*
X153511962Y-37868057D01*
X153511962Y-37868057D02*
X153583391Y-37868057D01*
X153583391Y-37868057D02*
X153631010Y-37906152D01*
X153631010Y-37906152D02*
X153654819Y-37944247D01*
X153654819Y-37944247D02*
X153678629Y-38020438D01*
X153678629Y-38020438D02*
X153678629Y-38210914D01*
X153678629Y-38210914D02*
X153654819Y-38287104D01*
X153654819Y-38287104D02*
X153631010Y-38325200D01*
X153631010Y-38325200D02*
X153583391Y-38363295D01*
X153583391Y-38363295D02*
X153440534Y-38363295D01*
X153440534Y-38363295D02*
X153392915Y-38325200D01*
X153392915Y-38325200D02*
X153369105Y-38287104D01*
X153869105Y-37639485D02*
X153892914Y-37601390D01*
X153892914Y-37601390D02*
X153940533Y-37563295D01*
X153940533Y-37563295D02*
X154059581Y-37563295D01*
X154059581Y-37563295D02*
X154107200Y-37601390D01*
X154107200Y-37601390D02*
X154131009Y-37639485D01*
X154131009Y-37639485D02*
X154154819Y-37715676D01*
X154154819Y-37715676D02*
X154154819Y-37791866D01*
X154154819Y-37791866D02*
X154131009Y-37906152D01*
X154131009Y-37906152D02*
X153845295Y-38363295D01*
X153845295Y-38363295D02*
X154154819Y-38363295D01*
X154440533Y-37906152D02*
X154392914Y-37868057D01*
X154392914Y-37868057D02*
X154369104Y-37829961D01*
X154369104Y-37829961D02*
X154345295Y-37753771D01*
X154345295Y-37753771D02*
X154345295Y-37715676D01*
X154345295Y-37715676D02*
X154369104Y-37639485D01*
X154369104Y-37639485D02*
X154392914Y-37601390D01*
X154392914Y-37601390D02*
X154440533Y-37563295D01*
X154440533Y-37563295D02*
X154535771Y-37563295D01*
X154535771Y-37563295D02*
X154583390Y-37601390D01*
X154583390Y-37601390D02*
X154607199Y-37639485D01*
X154607199Y-37639485D02*
X154631009Y-37715676D01*
X154631009Y-37715676D02*
X154631009Y-37753771D01*
X154631009Y-37753771D02*
X154607199Y-37829961D01*
X154607199Y-37829961D02*
X154583390Y-37868057D01*
X154583390Y-37868057D02*
X154535771Y-37906152D01*
X154535771Y-37906152D02*
X154440533Y-37906152D01*
X154440533Y-37906152D02*
X154392914Y-37944247D01*
X154392914Y-37944247D02*
X154369104Y-37982342D01*
X154369104Y-37982342D02*
X154345295Y-38058533D01*
X154345295Y-38058533D02*
X154345295Y-38210914D01*
X154345295Y-38210914D02*
X154369104Y-38287104D01*
X154369104Y-38287104D02*
X154392914Y-38325200D01*
X154392914Y-38325200D02*
X154440533Y-38363295D01*
X154440533Y-38363295D02*
X154535771Y-38363295D01*
X154535771Y-38363295D02*
X154583390Y-38325200D01*
X154583390Y-38325200D02*
X154607199Y-38287104D01*
X154607199Y-38287104D02*
X154631009Y-38210914D01*
X154631009Y-38210914D02*
X154631009Y-38058533D01*
X154631009Y-38058533D02*
X154607199Y-37982342D01*
X154607199Y-37982342D02*
X154583390Y-37944247D01*
X154583390Y-37944247D02*
X154535771Y-37906152D01*
X154845294Y-38363295D02*
X154845294Y-37563295D01*
X154845294Y-37563295D02*
X155035770Y-37563295D01*
X155035770Y-37563295D02*
X155083389Y-37601390D01*
X155083389Y-37601390D02*
X155107199Y-37639485D01*
X155107199Y-37639485D02*
X155131008Y-37715676D01*
X155131008Y-37715676D02*
X155131008Y-37829961D01*
X155131008Y-37829961D02*
X155107199Y-37906152D01*
X155107199Y-37906152D02*
X155083389Y-37944247D01*
X155083389Y-37944247D02*
X155035770Y-37982342D01*
X155035770Y-37982342D02*
X154845294Y-37982342D01*
X153590495Y-62384951D02*
X154238114Y-62465904D01*
X154238114Y-62465904D02*
X154314304Y-62437332D01*
X154314304Y-62437332D02*
X154352400Y-62403999D01*
X154352400Y-62403999D02*
X154390495Y-62332570D01*
X154390495Y-62332570D02*
X154390495Y-62180189D01*
X154390495Y-62180189D02*
X154352400Y-62099237D01*
X154352400Y-62099237D02*
X154314304Y-62056380D01*
X154314304Y-62056380D02*
X154238114Y-62008761D01*
X154238114Y-62008761D02*
X153590495Y-61927808D01*
X154161923Y-61656380D02*
X154161923Y-61275428D01*
X154390495Y-61761142D02*
X153590495Y-61394475D01*
X153590495Y-61394475D02*
X154390495Y-61227809D01*
X154390495Y-60503999D02*
X154009542Y-60723047D01*
X154390495Y-60961142D02*
X153590495Y-60861142D01*
X153590495Y-60861142D02*
X153590495Y-60556380D01*
X153590495Y-60556380D02*
X153628590Y-60484952D01*
X153628590Y-60484952D02*
X153666685Y-60451618D01*
X153666685Y-60451618D02*
X153742876Y-60423047D01*
X153742876Y-60423047D02*
X153857161Y-60437333D01*
X153857161Y-60437333D02*
X153933352Y-60484952D01*
X153933352Y-60484952D02*
X153971447Y-60527809D01*
X153971447Y-60527809D02*
X154009542Y-60608761D01*
X154009542Y-60608761D02*
X154009542Y-60913523D01*
X153590495Y-60175428D02*
X153590495Y-59718285D01*
X154390495Y-60046857D02*
X153590495Y-59946857D01*
X156675571Y-36788495D02*
X156437476Y-36788495D01*
X156437476Y-36788495D02*
X156437476Y-35988495D01*
X156842238Y-36369447D02*
X157008905Y-36369447D01*
X157080333Y-36788495D02*
X156842238Y-36788495D01*
X156842238Y-36788495D02*
X156842238Y-35988495D01*
X156842238Y-35988495D02*
X157080333Y-35988495D01*
X157294619Y-36788495D02*
X157294619Y-35988495D01*
X157294619Y-35988495D02*
X157413667Y-35988495D01*
X157413667Y-35988495D02*
X157485095Y-36026590D01*
X157485095Y-36026590D02*
X157532714Y-36102780D01*
X157532714Y-36102780D02*
X157556524Y-36178971D01*
X157556524Y-36178971D02*
X157580333Y-36331352D01*
X157580333Y-36331352D02*
X157580333Y-36445638D01*
X157580333Y-36445638D02*
X157556524Y-36598019D01*
X157556524Y-36598019D02*
X157532714Y-36674209D01*
X157532714Y-36674209D02*
X157485095Y-36750400D01*
X157485095Y-36750400D02*
X157413667Y-36788495D01*
X157413667Y-36788495D02*
X157294619Y-36788495D01*
X164161886Y-46288095D02*
X164261886Y-45488095D01*
X164595219Y-45564285D02*
X164638076Y-45526190D01*
X164638076Y-45526190D02*
X164719028Y-45488095D01*
X164719028Y-45488095D02*
X164909504Y-45488095D01*
X164909504Y-45488095D02*
X164980933Y-45526190D01*
X164980933Y-45526190D02*
X165014266Y-45564285D01*
X165014266Y-45564285D02*
X165042838Y-45640476D01*
X165042838Y-45640476D02*
X165033314Y-45716666D01*
X165033314Y-45716666D02*
X164980933Y-45830952D01*
X164980933Y-45830952D02*
X164466647Y-46288095D01*
X164466647Y-46288095D02*
X164961885Y-46288095D01*
X165771409Y-46211904D02*
X165728552Y-46250000D01*
X165728552Y-46250000D02*
X165609505Y-46288095D01*
X165609505Y-46288095D02*
X165533314Y-46288095D01*
X165533314Y-46288095D02*
X165423790Y-46250000D01*
X165423790Y-46250000D02*
X165357124Y-46173809D01*
X165357124Y-46173809D02*
X165328552Y-46097619D01*
X165328552Y-46097619D02*
X165309505Y-45945238D01*
X165309505Y-45945238D02*
X165323790Y-45830952D01*
X165323790Y-45830952D02*
X165380933Y-45678571D01*
X165380933Y-45678571D02*
X165428552Y-45602380D01*
X165428552Y-45602380D02*
X165514267Y-45526190D01*
X165514267Y-45526190D02*
X165633314Y-45488095D01*
X165633314Y-45488095D02*
X165709505Y-45488095D01*
X165709505Y-45488095D02*
X165819029Y-45526190D01*
X165819029Y-45526190D02*
X165852362Y-45564285D01*
X151865028Y-55914704D02*
X151822171Y-55952800D01*
X151822171Y-55952800D02*
X151703124Y-55990895D01*
X151703124Y-55990895D02*
X151626933Y-55990895D01*
X151626933Y-55990895D02*
X151517409Y-55952800D01*
X151517409Y-55952800D02*
X151450743Y-55876609D01*
X151450743Y-55876609D02*
X151422171Y-55800419D01*
X151422171Y-55800419D02*
X151403124Y-55648038D01*
X151403124Y-55648038D02*
X151417409Y-55533752D01*
X151417409Y-55533752D02*
X151474552Y-55381371D01*
X151474552Y-55381371D02*
X151522171Y-55305180D01*
X151522171Y-55305180D02*
X151607886Y-55228990D01*
X151607886Y-55228990D02*
X151726933Y-55190895D01*
X151726933Y-55190895D02*
X151803124Y-55190895D01*
X151803124Y-55190895D02*
X151912648Y-55228990D01*
X151912648Y-55228990D02*
X151945981Y-55267085D01*
X152222171Y-55190895D02*
X152717409Y-55190895D01*
X152717409Y-55190895D02*
X152412648Y-55495657D01*
X152412648Y-55495657D02*
X152526933Y-55495657D01*
X152526933Y-55495657D02*
X152598362Y-55533752D01*
X152598362Y-55533752D02*
X152631695Y-55571847D01*
X152631695Y-55571847D02*
X152660267Y-55648038D01*
X152660267Y-55648038D02*
X152636457Y-55838514D01*
X152636457Y-55838514D02*
X152588838Y-55914704D01*
X152588838Y-55914704D02*
X152545981Y-55952800D01*
X152545981Y-55952800D02*
X152465028Y-55990895D01*
X152465028Y-55990895D02*
X152236457Y-55990895D01*
X152236457Y-55990895D02*
X152165028Y-55952800D01*
X152165028Y-55952800D02*
X152131695Y-55914704D01*
X153407372Y-55267085D02*
X153431181Y-55228990D01*
X153431181Y-55228990D02*
X153478800Y-55190895D01*
X153478800Y-55190895D02*
X153597848Y-55190895D01*
X153597848Y-55190895D02*
X153645467Y-55228990D01*
X153645467Y-55228990D02*
X153669276Y-55267085D01*
X153669276Y-55267085D02*
X153693086Y-55343276D01*
X153693086Y-55343276D02*
X153693086Y-55419466D01*
X153693086Y-55419466D02*
X153669276Y-55533752D01*
X153669276Y-55533752D02*
X153383562Y-55990895D01*
X153383562Y-55990895D02*
X153693086Y-55990895D01*
X153883562Y-55267085D02*
X153907371Y-55228990D01*
X153907371Y-55228990D02*
X153954990Y-55190895D01*
X153954990Y-55190895D02*
X154074038Y-55190895D01*
X154074038Y-55190895D02*
X154121657Y-55228990D01*
X154121657Y-55228990D02*
X154145466Y-55267085D01*
X154145466Y-55267085D02*
X154169276Y-55343276D01*
X154169276Y-55343276D02*
X154169276Y-55419466D01*
X154169276Y-55419466D02*
X154145466Y-55533752D01*
X154145466Y-55533752D02*
X153859752Y-55990895D01*
X153859752Y-55990895D02*
X154169276Y-55990895D01*
X154383561Y-55457561D02*
X154383561Y-56257561D01*
X154383561Y-55495657D02*
X154431180Y-55457561D01*
X154431180Y-55457561D02*
X154526418Y-55457561D01*
X154526418Y-55457561D02*
X154574037Y-55495657D01*
X154574037Y-55495657D02*
X154597847Y-55533752D01*
X154597847Y-55533752D02*
X154621656Y-55609942D01*
X154621656Y-55609942D02*
X154621656Y-55838514D01*
X154621656Y-55838514D02*
X154597847Y-55914704D01*
X154597847Y-55914704D02*
X154574037Y-55952800D01*
X154574037Y-55952800D02*
X154526418Y-55990895D01*
X154526418Y-55990895D02*
X154431180Y-55990895D01*
X154431180Y-55990895D02*
X154383561Y-55952800D01*
X155002609Y-55571847D02*
X154835942Y-55571847D01*
X154835942Y-55990895D02*
X154835942Y-55190895D01*
X154835942Y-55190895D02*
X155074037Y-55190895D01*
X129244495Y-61072608D02*
X128444495Y-60972608D01*
X128444495Y-60972608D02*
X128444495Y-60782132D01*
X128444495Y-60782132D02*
X128482590Y-60672608D01*
X128482590Y-60672608D02*
X128558780Y-60605942D01*
X128558780Y-60605942D02*
X128634971Y-60577370D01*
X128634971Y-60577370D02*
X128787352Y-60558323D01*
X128787352Y-60558323D02*
X128901638Y-60572608D01*
X128901638Y-60572608D02*
X129054019Y-60629751D01*
X129054019Y-60629751D02*
X129130209Y-60677370D01*
X129130209Y-60677370D02*
X129206400Y-60763084D01*
X129206400Y-60763084D02*
X129244495Y-60882132D01*
X129244495Y-60882132D02*
X129244495Y-61072608D01*
X129244495Y-60272608D02*
X128444495Y-60172608D01*
X128444495Y-59639275D02*
X128444495Y-59486894D01*
X128444495Y-59486894D02*
X128482590Y-59415466D01*
X128482590Y-59415466D02*
X128558780Y-59348799D01*
X128558780Y-59348799D02*
X128711161Y-59329751D01*
X128711161Y-59329751D02*
X128977828Y-59363085D01*
X128977828Y-59363085D02*
X129130209Y-59420228D01*
X129130209Y-59420228D02*
X129206400Y-59505942D01*
X129206400Y-59505942D02*
X129244495Y-59586894D01*
X129244495Y-59586894D02*
X129244495Y-59739275D01*
X129244495Y-59739275D02*
X129206400Y-59810704D01*
X129206400Y-59810704D02*
X129130209Y-59877371D01*
X129130209Y-59877371D02*
X128977828Y-59896418D01*
X128977828Y-59896418D02*
X128711161Y-59863085D01*
X128711161Y-59863085D02*
X128558780Y-59805942D01*
X128558780Y-59805942D02*
X128482590Y-59720228D01*
X128482590Y-59720228D02*
X128444495Y-59639275D01*
X156583228Y-42909904D02*
X156554657Y-42948000D01*
X156554657Y-42948000D02*
X156478466Y-42986095D01*
X156478466Y-42986095D02*
X156430847Y-42986095D01*
X156430847Y-42986095D02*
X156364181Y-42948000D01*
X156364181Y-42948000D02*
X156326085Y-42871809D01*
X156326085Y-42871809D02*
X156311800Y-42795619D01*
X156311800Y-42795619D02*
X156307038Y-42643238D01*
X156307038Y-42643238D02*
X156321324Y-42528952D01*
X156321324Y-42528952D02*
X156364181Y-42376571D01*
X156364181Y-42376571D02*
X156397514Y-42300380D01*
X156397514Y-42300380D02*
X156454657Y-42224190D01*
X156454657Y-42224190D02*
X156530847Y-42186095D01*
X156530847Y-42186095D02*
X156578466Y-42186095D01*
X156578466Y-42186095D02*
X156645133Y-42224190D01*
X156645133Y-42224190D02*
X156664181Y-42262285D01*
X157068943Y-42452761D02*
X157002276Y-42986095D01*
X156987990Y-42148000D02*
X156797514Y-42719428D01*
X156797514Y-42719428D02*
X157107038Y-42719428D01*
X157923172Y-42186095D02*
X157970791Y-42186095D01*
X157970791Y-42186095D02*
X158018410Y-42224190D01*
X158018410Y-42224190D02*
X158042220Y-42262285D01*
X158042220Y-42262285D02*
X158066029Y-42338476D01*
X158066029Y-42338476D02*
X158089839Y-42490857D01*
X158089839Y-42490857D02*
X158089839Y-42681333D01*
X158089839Y-42681333D02*
X158066029Y-42833714D01*
X158066029Y-42833714D02*
X158042220Y-42909904D01*
X158042220Y-42909904D02*
X158018410Y-42948000D01*
X158018410Y-42948000D02*
X157970791Y-42986095D01*
X157970791Y-42986095D02*
X157923172Y-42986095D01*
X157923172Y-42986095D02*
X157875553Y-42948000D01*
X157875553Y-42948000D02*
X157851744Y-42909904D01*
X157851744Y-42909904D02*
X157827934Y-42833714D01*
X157827934Y-42833714D02*
X157804125Y-42681333D01*
X157804125Y-42681333D02*
X157804125Y-42490857D01*
X157804125Y-42490857D02*
X157827934Y-42338476D01*
X157827934Y-42338476D02*
X157851744Y-42262285D01*
X157851744Y-42262285D02*
X157875553Y-42224190D01*
X157875553Y-42224190D02*
X157923172Y-42186095D01*
X158304124Y-42909904D02*
X158327934Y-42948000D01*
X158327934Y-42948000D02*
X158304124Y-42986095D01*
X158304124Y-42986095D02*
X158280315Y-42948000D01*
X158280315Y-42948000D02*
X158304124Y-42909904D01*
X158304124Y-42909904D02*
X158304124Y-42986095D01*
X158804124Y-42986095D02*
X158518410Y-42986095D01*
X158661267Y-42986095D02*
X158661267Y-42186095D01*
X158661267Y-42186095D02*
X158613648Y-42300380D01*
X158613648Y-42300380D02*
X158566029Y-42376571D01*
X158566029Y-42376571D02*
X158518410Y-42414666D01*
X159232695Y-42452761D02*
X159232695Y-42986095D01*
X159018409Y-42452761D02*
X159018409Y-42871809D01*
X159018409Y-42871809D02*
X159042219Y-42948000D01*
X159042219Y-42948000D02*
X159089838Y-42986095D01*
X159089838Y-42986095D02*
X159161266Y-42986095D01*
X159161266Y-42986095D02*
X159208885Y-42948000D01*
X159208885Y-42948000D02*
X159232695Y-42909904D01*
X159637457Y-42567047D02*
X159470790Y-42567047D01*
X159470790Y-42986095D02*
X159470790Y-42186095D01*
X159470790Y-42186095D02*
X159708885Y-42186095D01*
X151855505Y-36585295D02*
X151636457Y-36204342D01*
X151398362Y-36585295D02*
X151498362Y-35785295D01*
X151498362Y-35785295D02*
X151803124Y-35785295D01*
X151803124Y-35785295D02*
X151874552Y-35823390D01*
X151874552Y-35823390D02*
X151907886Y-35861485D01*
X151907886Y-35861485D02*
X151936457Y-35937676D01*
X151936457Y-35937676D02*
X151922171Y-36051961D01*
X151922171Y-36051961D02*
X151874552Y-36128152D01*
X151874552Y-36128152D02*
X151831695Y-36166247D01*
X151831695Y-36166247D02*
X151750743Y-36204342D01*
X151750743Y-36204342D02*
X151445981Y-36204342D01*
X152222171Y-35785295D02*
X152717409Y-35785295D01*
X152717409Y-35785295D02*
X152412648Y-36090057D01*
X152412648Y-36090057D02*
X152526933Y-36090057D01*
X152526933Y-36090057D02*
X152598362Y-36128152D01*
X152598362Y-36128152D02*
X152631695Y-36166247D01*
X152631695Y-36166247D02*
X152660267Y-36242438D01*
X152660267Y-36242438D02*
X152636457Y-36432914D01*
X152636457Y-36432914D02*
X152588838Y-36509104D01*
X152588838Y-36509104D02*
X152545981Y-36547200D01*
X152545981Y-36547200D02*
X152465028Y-36585295D01*
X152465028Y-36585295D02*
X152236457Y-36585295D01*
X152236457Y-36585295D02*
X152165028Y-36547200D01*
X152165028Y-36547200D02*
X152131695Y-36509104D01*
X153815315Y-36051961D02*
X153815315Y-36585295D01*
X153696267Y-35747200D02*
X153577220Y-36318628D01*
X153577220Y-36318628D02*
X153886743Y-36318628D01*
X154077219Y-36509104D02*
X154101029Y-36547200D01*
X154101029Y-36547200D02*
X154077219Y-36585295D01*
X154077219Y-36585295D02*
X154053410Y-36547200D01*
X154053410Y-36547200D02*
X154077219Y-36509104D01*
X154077219Y-36509104D02*
X154077219Y-36585295D01*
X154267695Y-35785295D02*
X154601028Y-35785295D01*
X154601028Y-35785295D02*
X154386743Y-36585295D01*
X154791504Y-36585295D02*
X154791504Y-35785295D01*
X154839123Y-36280533D02*
X154981980Y-36585295D01*
X154981980Y-36051961D02*
X154791504Y-36356723D01*
X149370362Y-49990495D02*
X149084648Y-49990495D01*
X149227505Y-49990495D02*
X149227505Y-49190495D01*
X149227505Y-49190495D02*
X149179886Y-49304780D01*
X149179886Y-49304780D02*
X149132267Y-49380971D01*
X149132267Y-49380971D02*
X149084648Y-49419066D01*
X149798933Y-49190495D02*
X149703695Y-49190495D01*
X149703695Y-49190495D02*
X149656076Y-49228590D01*
X149656076Y-49228590D02*
X149632266Y-49266685D01*
X149632266Y-49266685D02*
X149584647Y-49380971D01*
X149584647Y-49380971D02*
X149560838Y-49533352D01*
X149560838Y-49533352D02*
X149560838Y-49838114D01*
X149560838Y-49838114D02*
X149584647Y-49914304D01*
X149584647Y-49914304D02*
X149608457Y-49952400D01*
X149608457Y-49952400D02*
X149656076Y-49990495D01*
X149656076Y-49990495D02*
X149751314Y-49990495D01*
X149751314Y-49990495D02*
X149798933Y-49952400D01*
X149798933Y-49952400D02*
X149822742Y-49914304D01*
X149822742Y-49914304D02*
X149846552Y-49838114D01*
X149846552Y-49838114D02*
X149846552Y-49647638D01*
X149846552Y-49647638D02*
X149822742Y-49571447D01*
X149822742Y-49571447D02*
X149798933Y-49533352D01*
X149798933Y-49533352D02*
X149751314Y-49495257D01*
X149751314Y-49495257D02*
X149656076Y-49495257D01*
X149656076Y-49495257D02*
X149608457Y-49533352D01*
X149608457Y-49533352D02*
X149584647Y-49571447D01*
X149584647Y-49571447D02*
X149560838Y-49647638D01*
X150060837Y-49990495D02*
X150060837Y-49190495D01*
X150060837Y-49190495D02*
X150227504Y-49761923D01*
X150227504Y-49761923D02*
X150394170Y-49190495D01*
X150394170Y-49190495D02*
X150394170Y-49990495D01*
X150632266Y-49990495D02*
X150632266Y-49190495D01*
X150632266Y-49571447D02*
X150917980Y-49571447D01*
X150917980Y-49990495D02*
X150917980Y-49190495D01*
X151108457Y-49457161D02*
X151370362Y-49457161D01*
X151370362Y-49457161D02*
X151108457Y-49990495D01*
X151108457Y-49990495D02*
X151370362Y-49990495D01*
X156643429Y-39836495D02*
X156524381Y-39455542D01*
X156357714Y-39836495D02*
X156457714Y-39036495D01*
X156457714Y-39036495D02*
X156648190Y-39036495D01*
X156648190Y-39036495D02*
X156691048Y-39074590D01*
X156691048Y-39074590D02*
X156710095Y-39112685D01*
X156710095Y-39112685D02*
X156724381Y-39188876D01*
X156724381Y-39188876D02*
X156710095Y-39303161D01*
X156710095Y-39303161D02*
X156676762Y-39379352D01*
X156676762Y-39379352D02*
X156648190Y-39417447D01*
X156648190Y-39417447D02*
X156595809Y-39455542D01*
X156595809Y-39455542D02*
X156405333Y-39455542D01*
X156910095Y-39036495D02*
X157243429Y-39036495D01*
X157243429Y-39036495D02*
X156929143Y-39836495D01*
X158462743Y-39036495D02*
X158772267Y-39036495D01*
X158772267Y-39036495D02*
X158605600Y-39341257D01*
X158605600Y-39341257D02*
X158677029Y-39341257D01*
X158677029Y-39341257D02*
X158724648Y-39379352D01*
X158724648Y-39379352D02*
X158748457Y-39417447D01*
X158748457Y-39417447D02*
X158772267Y-39493638D01*
X158772267Y-39493638D02*
X158772267Y-39684114D01*
X158772267Y-39684114D02*
X158748457Y-39760304D01*
X158748457Y-39760304D02*
X158724648Y-39798400D01*
X158724648Y-39798400D02*
X158677029Y-39836495D01*
X158677029Y-39836495D02*
X158534172Y-39836495D01*
X158534172Y-39836495D02*
X158486553Y-39798400D01*
X158486553Y-39798400D02*
X158462743Y-39760304D01*
X158938933Y-39036495D02*
X159248457Y-39036495D01*
X159248457Y-39036495D02*
X159081790Y-39341257D01*
X159081790Y-39341257D02*
X159153219Y-39341257D01*
X159153219Y-39341257D02*
X159200838Y-39379352D01*
X159200838Y-39379352D02*
X159224647Y-39417447D01*
X159224647Y-39417447D02*
X159248457Y-39493638D01*
X159248457Y-39493638D02*
X159248457Y-39684114D01*
X159248457Y-39684114D02*
X159224647Y-39760304D01*
X159224647Y-39760304D02*
X159200838Y-39798400D01*
X159200838Y-39798400D02*
X159153219Y-39836495D01*
X159153219Y-39836495D02*
X159010362Y-39836495D01*
X159010362Y-39836495D02*
X158962743Y-39798400D01*
X158962743Y-39798400D02*
X158938933Y-39760304D01*
X159557980Y-39036495D02*
X159605599Y-39036495D01*
X159605599Y-39036495D02*
X159653218Y-39074590D01*
X159653218Y-39074590D02*
X159677028Y-39112685D01*
X159677028Y-39112685D02*
X159700837Y-39188876D01*
X159700837Y-39188876D02*
X159724647Y-39341257D01*
X159724647Y-39341257D02*
X159724647Y-39531733D01*
X159724647Y-39531733D02*
X159700837Y-39684114D01*
X159700837Y-39684114D02*
X159677028Y-39760304D01*
X159677028Y-39760304D02*
X159653218Y-39798400D01*
X159653218Y-39798400D02*
X159605599Y-39836495D01*
X159605599Y-39836495D02*
X159557980Y-39836495D01*
X159557980Y-39836495D02*
X159510361Y-39798400D01*
X159510361Y-39798400D02*
X159486552Y-39760304D01*
X159486552Y-39760304D02*
X159462742Y-39684114D01*
X159462742Y-39684114D02*
X159438933Y-39531733D01*
X159438933Y-39531733D02*
X159438933Y-39341257D01*
X159438933Y-39341257D02*
X159462742Y-39188876D01*
X159462742Y-39188876D02*
X159486552Y-39112685D01*
X159486552Y-39112685D02*
X159510361Y-39074590D01*
X159510361Y-39074590D02*
X159557980Y-39036495D01*
X147943905Y-36512095D02*
X147724857Y-36131142D01*
X147486762Y-36512095D02*
X147586762Y-35712095D01*
X147586762Y-35712095D02*
X147891524Y-35712095D01*
X147891524Y-35712095D02*
X147962952Y-35750190D01*
X147962952Y-35750190D02*
X147996286Y-35788285D01*
X147996286Y-35788285D02*
X148024857Y-35864476D01*
X148024857Y-35864476D02*
X148010571Y-35978761D01*
X148010571Y-35978761D02*
X147962952Y-36054952D01*
X147962952Y-36054952D02*
X147920095Y-36093047D01*
X147920095Y-36093047D02*
X147839143Y-36131142D01*
X147839143Y-36131142D02*
X147534381Y-36131142D01*
X148339143Y-35788285D02*
X148382000Y-35750190D01*
X148382000Y-35750190D02*
X148462952Y-35712095D01*
X148462952Y-35712095D02*
X148653428Y-35712095D01*
X148653428Y-35712095D02*
X148724857Y-35750190D01*
X148724857Y-35750190D02*
X148758190Y-35788285D01*
X148758190Y-35788285D02*
X148786762Y-35864476D01*
X148786762Y-35864476D02*
X148777238Y-35940666D01*
X148777238Y-35940666D02*
X148724857Y-36054952D01*
X148724857Y-36054952D02*
X148210571Y-36512095D01*
X148210571Y-36512095D02*
X148705809Y-36512095D01*
X149698615Y-36029561D02*
X149698615Y-36562895D01*
X149579567Y-35724800D02*
X149460520Y-36296228D01*
X149460520Y-36296228D02*
X149770043Y-36296228D01*
X149960519Y-36486704D02*
X149984329Y-36524800D01*
X149984329Y-36524800D02*
X149960519Y-36562895D01*
X149960519Y-36562895D02*
X149936710Y-36524800D01*
X149936710Y-36524800D02*
X149960519Y-36486704D01*
X149960519Y-36486704D02*
X149960519Y-36562895D01*
X150150995Y-35762895D02*
X150484328Y-35762895D01*
X150484328Y-35762895D02*
X150270043Y-36562895D01*
X150674804Y-36562895D02*
X150674804Y-35762895D01*
X150722423Y-36258133D02*
X150865280Y-36562895D01*
X150865280Y-36029561D02*
X150674804Y-36334323D01*
X128431171Y-36218495D02*
X128193076Y-36218495D01*
X128193076Y-36218495D02*
X128193076Y-35418495D01*
X128597838Y-35799447D02*
X128764505Y-35799447D01*
X128835933Y-36218495D02*
X128597838Y-36218495D01*
X128597838Y-36218495D02*
X128597838Y-35418495D01*
X128597838Y-35418495D02*
X128835933Y-35418495D01*
X129050219Y-36218495D02*
X129050219Y-35418495D01*
X129050219Y-35418495D02*
X129169267Y-35418495D01*
X129169267Y-35418495D02*
X129240695Y-35456590D01*
X129240695Y-35456590D02*
X129288314Y-35532780D01*
X129288314Y-35532780D02*
X129312124Y-35608971D01*
X129312124Y-35608971D02*
X129335933Y-35761352D01*
X129335933Y-35761352D02*
X129335933Y-35875638D01*
X129335933Y-35875638D02*
X129312124Y-36028019D01*
X129312124Y-36028019D02*
X129288314Y-36104209D01*
X129288314Y-36104209D02*
X129240695Y-36180400D01*
X129240695Y-36180400D02*
X129169267Y-36218495D01*
X129169267Y-36218495D02*
X129050219Y-36218495D01*
X135664001Y-48980495D02*
X135664001Y-48180495D01*
X135664001Y-48180495D02*
X135783049Y-48180495D01*
X135783049Y-48180495D02*
X135854477Y-48218590D01*
X135854477Y-48218590D02*
X135902096Y-48294780D01*
X135902096Y-48294780D02*
X135925906Y-48370971D01*
X135925906Y-48370971D02*
X135949715Y-48523352D01*
X135949715Y-48523352D02*
X135949715Y-48637638D01*
X135949715Y-48637638D02*
X135925906Y-48790019D01*
X135925906Y-48790019D02*
X135902096Y-48866209D01*
X135902096Y-48866209D02*
X135854477Y-48942400D01*
X135854477Y-48942400D02*
X135783049Y-48980495D01*
X135783049Y-48980495D02*
X135664001Y-48980495D01*
X136140192Y-48942400D02*
X136211620Y-48980495D01*
X136211620Y-48980495D02*
X136330668Y-48980495D01*
X136330668Y-48980495D02*
X136378287Y-48942400D01*
X136378287Y-48942400D02*
X136402096Y-48904304D01*
X136402096Y-48904304D02*
X136425906Y-48828114D01*
X136425906Y-48828114D02*
X136425906Y-48751923D01*
X136425906Y-48751923D02*
X136402096Y-48675733D01*
X136402096Y-48675733D02*
X136378287Y-48637638D01*
X136378287Y-48637638D02*
X136330668Y-48599542D01*
X136330668Y-48599542D02*
X136235430Y-48561447D01*
X136235430Y-48561447D02*
X136187811Y-48523352D01*
X136187811Y-48523352D02*
X136164001Y-48485257D01*
X136164001Y-48485257D02*
X136140192Y-48409066D01*
X136140192Y-48409066D02*
X136140192Y-48332876D01*
X136140192Y-48332876D02*
X136164001Y-48256685D01*
X136164001Y-48256685D02*
X136187811Y-48218590D01*
X136187811Y-48218590D02*
X136235430Y-48180495D01*
X136235430Y-48180495D02*
X136354477Y-48180495D01*
X136354477Y-48180495D02*
X136425906Y-48218590D01*
X136902096Y-48980495D02*
X136616382Y-48980495D01*
X136759239Y-48980495D02*
X136759239Y-48180495D01*
X136759239Y-48180495D02*
X136711620Y-48294780D01*
X136711620Y-48294780D02*
X136664001Y-48370971D01*
X136664001Y-48370971D02*
X136616382Y-48409066D01*
X137068762Y-48180495D02*
X137378286Y-48180495D01*
X137378286Y-48180495D02*
X137211619Y-48485257D01*
X137211619Y-48485257D02*
X137283048Y-48485257D01*
X137283048Y-48485257D02*
X137330667Y-48523352D01*
X137330667Y-48523352D02*
X137354476Y-48561447D01*
X137354476Y-48561447D02*
X137378286Y-48637638D01*
X137378286Y-48637638D02*
X137378286Y-48828114D01*
X137378286Y-48828114D02*
X137354476Y-48904304D01*
X137354476Y-48904304D02*
X137330667Y-48942400D01*
X137330667Y-48942400D02*
X137283048Y-48980495D01*
X137283048Y-48980495D02*
X137140191Y-48980495D01*
X137140191Y-48980495D02*
X137092572Y-48942400D01*
X137092572Y-48942400D02*
X137068762Y-48904304D01*
X137544952Y-48180495D02*
X137854476Y-48180495D01*
X137854476Y-48180495D02*
X137687809Y-48485257D01*
X137687809Y-48485257D02*
X137759238Y-48485257D01*
X137759238Y-48485257D02*
X137806857Y-48523352D01*
X137806857Y-48523352D02*
X137830666Y-48561447D01*
X137830666Y-48561447D02*
X137854476Y-48637638D01*
X137854476Y-48637638D02*
X137854476Y-48828114D01*
X137854476Y-48828114D02*
X137830666Y-48904304D01*
X137830666Y-48904304D02*
X137806857Y-48942400D01*
X137806857Y-48942400D02*
X137759238Y-48980495D01*
X137759238Y-48980495D02*
X137616381Y-48980495D01*
X137616381Y-48980495D02*
X137568762Y-48942400D01*
X137568762Y-48942400D02*
X137544952Y-48904304D01*
X138021142Y-48180495D02*
X138354475Y-48180495D01*
X138354475Y-48180495D02*
X138140190Y-48980495D01*
X138521142Y-48942400D02*
X138592570Y-48980495D01*
X138592570Y-48980495D02*
X138711618Y-48980495D01*
X138711618Y-48980495D02*
X138759237Y-48942400D01*
X138759237Y-48942400D02*
X138783046Y-48904304D01*
X138783046Y-48904304D02*
X138806856Y-48828114D01*
X138806856Y-48828114D02*
X138806856Y-48751923D01*
X138806856Y-48751923D02*
X138783046Y-48675733D01*
X138783046Y-48675733D02*
X138759237Y-48637638D01*
X138759237Y-48637638D02*
X138711618Y-48599542D01*
X138711618Y-48599542D02*
X138616380Y-48561447D01*
X138616380Y-48561447D02*
X138568761Y-48523352D01*
X138568761Y-48523352D02*
X138544951Y-48485257D01*
X138544951Y-48485257D02*
X138521142Y-48409066D01*
X138521142Y-48409066D02*
X138521142Y-48332876D01*
X138521142Y-48332876D02*
X138544951Y-48256685D01*
X138544951Y-48256685D02*
X138568761Y-48218590D01*
X138568761Y-48218590D02*
X138616380Y-48180495D01*
X138616380Y-48180495D02*
X138735427Y-48180495D01*
X138735427Y-48180495D02*
X138806856Y-48218590D01*
X138902094Y-49056685D02*
X139283046Y-49056685D01*
X128466971Y-40154095D02*
X128633638Y-40954095D01*
X128633638Y-40954095D02*
X129000304Y-40154095D01*
X129633637Y-40877904D02*
X129590780Y-40916000D01*
X129590780Y-40916000D02*
X129471733Y-40954095D01*
X129471733Y-40954095D02*
X129395542Y-40954095D01*
X129395542Y-40954095D02*
X129286018Y-40916000D01*
X129286018Y-40916000D02*
X129219352Y-40839809D01*
X129219352Y-40839809D02*
X129190780Y-40763619D01*
X129190780Y-40763619D02*
X129171733Y-40611238D01*
X129171733Y-40611238D02*
X129186018Y-40496952D01*
X129186018Y-40496952D02*
X129243161Y-40344571D01*
X129243161Y-40344571D02*
X129290780Y-40268380D01*
X129290780Y-40268380D02*
X129376495Y-40192190D01*
X129376495Y-40192190D02*
X129495542Y-40154095D01*
X129495542Y-40154095D02*
X129571733Y-40154095D01*
X129571733Y-40154095D02*
X129681257Y-40192190D01*
X129681257Y-40192190D02*
X129714590Y-40230285D01*
X130433637Y-40877904D02*
X130390780Y-40916000D01*
X130390780Y-40916000D02*
X130271733Y-40954095D01*
X130271733Y-40954095D02*
X130195542Y-40954095D01*
X130195542Y-40954095D02*
X130086018Y-40916000D01*
X130086018Y-40916000D02*
X130019352Y-40839809D01*
X130019352Y-40839809D02*
X129990780Y-40763619D01*
X129990780Y-40763619D02*
X129971733Y-40611238D01*
X129971733Y-40611238D02*
X129986018Y-40496952D01*
X129986018Y-40496952D02*
X130043161Y-40344571D01*
X130043161Y-40344571D02*
X130090780Y-40268380D01*
X130090780Y-40268380D02*
X130176495Y-40192190D01*
X130176495Y-40192190D02*
X130295542Y-40154095D01*
X130295542Y-40154095D02*
X130371733Y-40154095D01*
X130371733Y-40154095D02*
X130481257Y-40192190D01*
X130481257Y-40192190D02*
X130514590Y-40230285D01*
X147293028Y-55914704D02*
X147250171Y-55952800D01*
X147250171Y-55952800D02*
X147131124Y-55990895D01*
X147131124Y-55990895D02*
X147054933Y-55990895D01*
X147054933Y-55990895D02*
X146945409Y-55952800D01*
X146945409Y-55952800D02*
X146878743Y-55876609D01*
X146878743Y-55876609D02*
X146850171Y-55800419D01*
X146850171Y-55800419D02*
X146831124Y-55648038D01*
X146831124Y-55648038D02*
X146845409Y-55533752D01*
X146845409Y-55533752D02*
X146902552Y-55381371D01*
X146902552Y-55381371D02*
X146950171Y-55305180D01*
X146950171Y-55305180D02*
X147035886Y-55228990D01*
X147035886Y-55228990D02*
X147154933Y-55190895D01*
X147154933Y-55190895D02*
X147231124Y-55190895D01*
X147231124Y-55190895D02*
X147340648Y-55228990D01*
X147340648Y-55228990D02*
X147373981Y-55267085D01*
X147678743Y-55267085D02*
X147721600Y-55228990D01*
X147721600Y-55228990D02*
X147802552Y-55190895D01*
X147802552Y-55190895D02*
X147993028Y-55190895D01*
X147993028Y-55190895D02*
X148064457Y-55228990D01*
X148064457Y-55228990D02*
X148097790Y-55267085D01*
X148097790Y-55267085D02*
X148126362Y-55343276D01*
X148126362Y-55343276D02*
X148116838Y-55419466D01*
X148116838Y-55419466D02*
X148064457Y-55533752D01*
X148064457Y-55533752D02*
X147550171Y-55990895D01*
X147550171Y-55990895D02*
X148045409Y-55990895D01*
X148784572Y-55267085D02*
X148808381Y-55228990D01*
X148808381Y-55228990D02*
X148856000Y-55190895D01*
X148856000Y-55190895D02*
X148975048Y-55190895D01*
X148975048Y-55190895D02*
X149022667Y-55228990D01*
X149022667Y-55228990D02*
X149046476Y-55267085D01*
X149046476Y-55267085D02*
X149070286Y-55343276D01*
X149070286Y-55343276D02*
X149070286Y-55419466D01*
X149070286Y-55419466D02*
X149046476Y-55533752D01*
X149046476Y-55533752D02*
X148760762Y-55990895D01*
X148760762Y-55990895D02*
X149070286Y-55990895D01*
X149260762Y-55267085D02*
X149284571Y-55228990D01*
X149284571Y-55228990D02*
X149332190Y-55190895D01*
X149332190Y-55190895D02*
X149451238Y-55190895D01*
X149451238Y-55190895D02*
X149498857Y-55228990D01*
X149498857Y-55228990D02*
X149522666Y-55267085D01*
X149522666Y-55267085D02*
X149546476Y-55343276D01*
X149546476Y-55343276D02*
X149546476Y-55419466D01*
X149546476Y-55419466D02*
X149522666Y-55533752D01*
X149522666Y-55533752D02*
X149236952Y-55990895D01*
X149236952Y-55990895D02*
X149546476Y-55990895D01*
X149760761Y-55457561D02*
X149760761Y-56257561D01*
X149760761Y-55495657D02*
X149808380Y-55457561D01*
X149808380Y-55457561D02*
X149903618Y-55457561D01*
X149903618Y-55457561D02*
X149951237Y-55495657D01*
X149951237Y-55495657D02*
X149975047Y-55533752D01*
X149975047Y-55533752D02*
X149998856Y-55609942D01*
X149998856Y-55609942D02*
X149998856Y-55838514D01*
X149998856Y-55838514D02*
X149975047Y-55914704D01*
X149975047Y-55914704D02*
X149951237Y-55952800D01*
X149951237Y-55952800D02*
X149903618Y-55990895D01*
X149903618Y-55990895D02*
X149808380Y-55990895D01*
X149808380Y-55990895D02*
X149760761Y-55952800D01*
X150379809Y-55571847D02*
X150213142Y-55571847D01*
X150213142Y-55990895D02*
X150213142Y-55190895D01*
X150213142Y-55190895D02*
X150451237Y-55190895D01*
X133901995Y-39150594D02*
X133521042Y-39369642D01*
X133901995Y-39607737D02*
X133101995Y-39507737D01*
X133101995Y-39507737D02*
X133101995Y-39202975D01*
X133101995Y-39202975D02*
X133140090Y-39131547D01*
X133140090Y-39131547D02*
X133178185Y-39098213D01*
X133178185Y-39098213D02*
X133254376Y-39069642D01*
X133254376Y-39069642D02*
X133368661Y-39083928D01*
X133368661Y-39083928D02*
X133444852Y-39131547D01*
X133444852Y-39131547D02*
X133482947Y-39174404D01*
X133482947Y-39174404D02*
X133521042Y-39255356D01*
X133521042Y-39255356D02*
X133521042Y-39560118D01*
X133101995Y-38364880D02*
X133101995Y-38517261D01*
X133101995Y-38517261D02*
X133140090Y-38598213D01*
X133140090Y-38598213D02*
X133178185Y-38641071D01*
X133178185Y-38641071D02*
X133292471Y-38731547D01*
X133292471Y-38731547D02*
X133444852Y-38788690D01*
X133444852Y-38788690D02*
X133749614Y-38826785D01*
X133749614Y-38826785D02*
X133825804Y-38798213D01*
X133825804Y-38798213D02*
X133863900Y-38764880D01*
X133863900Y-38764880D02*
X133901995Y-38693452D01*
X133901995Y-38693452D02*
X133901995Y-38541071D01*
X133901995Y-38541071D02*
X133863900Y-38460118D01*
X133863900Y-38460118D02*
X133825804Y-38417261D01*
X133825804Y-38417261D02*
X133749614Y-38369642D01*
X133749614Y-38369642D02*
X133559138Y-38345832D01*
X133559138Y-38345832D02*
X133482947Y-38374404D01*
X133482947Y-38374404D02*
X133444852Y-38407737D01*
X133444852Y-38407737D02*
X133406757Y-38479166D01*
X133406757Y-38479166D02*
X133406757Y-38631547D01*
X133406757Y-38631547D02*
X133444852Y-38712499D01*
X133444852Y-38712499D02*
X133482947Y-38755356D01*
X133482947Y-38755356D02*
X133559138Y-38802975D01*
X132991095Y-37614056D02*
X132991095Y-37304532D01*
X132991095Y-37304532D02*
X133295857Y-37471199D01*
X133295857Y-37471199D02*
X133295857Y-37399770D01*
X133295857Y-37399770D02*
X133333952Y-37352151D01*
X133333952Y-37352151D02*
X133372047Y-37328342D01*
X133372047Y-37328342D02*
X133448238Y-37304532D01*
X133448238Y-37304532D02*
X133638714Y-37304532D01*
X133638714Y-37304532D02*
X133714904Y-37328342D01*
X133714904Y-37328342D02*
X133753000Y-37352151D01*
X133753000Y-37352151D02*
X133791095Y-37399770D01*
X133791095Y-37399770D02*
X133791095Y-37542627D01*
X133791095Y-37542627D02*
X133753000Y-37590246D01*
X133753000Y-37590246D02*
X133714904Y-37614056D01*
X132991095Y-37137866D02*
X132991095Y-36828342D01*
X132991095Y-36828342D02*
X133295857Y-36995009D01*
X133295857Y-36995009D02*
X133295857Y-36923580D01*
X133295857Y-36923580D02*
X133333952Y-36875961D01*
X133333952Y-36875961D02*
X133372047Y-36852152D01*
X133372047Y-36852152D02*
X133448238Y-36828342D01*
X133448238Y-36828342D02*
X133638714Y-36828342D01*
X133638714Y-36828342D02*
X133714904Y-36852152D01*
X133714904Y-36852152D02*
X133753000Y-36875961D01*
X133753000Y-36875961D02*
X133791095Y-36923580D01*
X133791095Y-36923580D02*
X133791095Y-37066437D01*
X133791095Y-37066437D02*
X133753000Y-37114056D01*
X133753000Y-37114056D02*
X133714904Y-37137866D01*
X132991095Y-36518819D02*
X132991095Y-36471200D01*
X132991095Y-36471200D02*
X133029190Y-36423581D01*
X133029190Y-36423581D02*
X133067285Y-36399771D01*
X133067285Y-36399771D02*
X133143476Y-36375962D01*
X133143476Y-36375962D02*
X133295857Y-36352152D01*
X133295857Y-36352152D02*
X133486333Y-36352152D01*
X133486333Y-36352152D02*
X133638714Y-36375962D01*
X133638714Y-36375962D02*
X133714904Y-36399771D01*
X133714904Y-36399771D02*
X133753000Y-36423581D01*
X133753000Y-36423581D02*
X133791095Y-36471200D01*
X133791095Y-36471200D02*
X133791095Y-36518819D01*
X133791095Y-36518819D02*
X133753000Y-36566438D01*
X133753000Y-36566438D02*
X133714904Y-36590247D01*
X133714904Y-36590247D02*
X133638714Y-36614057D01*
X133638714Y-36614057D02*
X133486333Y-36637866D01*
X133486333Y-36637866D02*
X133295857Y-36637866D01*
X133295857Y-36637866D02*
X133143476Y-36614057D01*
X133143476Y-36614057D02*
X133067285Y-36590247D01*
X133067285Y-36590247D02*
X133029190Y-36566438D01*
X133029190Y-36566438D02*
X132991095Y-36518819D01*
D12*
%TO.C,R5*%
X134950064Y-56415000D02*
X134495936Y-56415000D01*
X134950064Y-57885000D02*
X134495936Y-57885000D01*
%TO.C,R1*%
X145060936Y-33910600D02*
X145515064Y-33910600D01*
X145060936Y-35380600D02*
X145515064Y-35380600D01*
%TO.C,C5*%
X133173800Y-44442747D02*
X133173800Y-44965253D01*
X134643800Y-44442747D02*
X134643800Y-44965253D01*
%TO.C,C1*%
X144216753Y-56415000D02*
X143694247Y-56415000D01*
X144216753Y-57885000D02*
X143694247Y-57885000D01*
%TO.C,ICSP*%
X161175000Y-36313600D02*
X162555000Y-36313600D01*
X161175000Y-37693600D02*
X161175000Y-36313600D01*
X161175000Y-38963600D02*
X161175000Y-44153600D01*
X161175000Y-38963600D02*
X163825000Y-38963600D01*
X161175000Y-44153600D02*
X166475000Y-44153600D01*
X163825000Y-36313600D02*
X166475000Y-36313600D01*
X163825000Y-38963600D02*
X163825000Y-36313600D01*
X166475000Y-36313600D02*
X166475000Y-44153600D01*
%TO.C,R4*%
X139566364Y-56415000D02*
X139112236Y-56415000D01*
X139566364Y-57885000D02*
X139112236Y-57885000D01*
%TO.C,Y2*%
X127807000Y-50478400D02*
X127807000Y-57848400D01*
X127807000Y-57848400D02*
X131527000Y-57848400D01*
X131527000Y-57848400D02*
X131527000Y-50478400D01*
%TO.C,U1*%
X139395200Y-41626101D02*
X137445200Y-41626100D01*
X139395200Y-41626101D02*
X141345200Y-41626100D01*
X139395200Y-46746099D02*
X137445200Y-46746100D01*
X139395200Y-46746099D02*
X141345200Y-46746100D01*
X136695200Y-41721100D02*
X136455201Y-41391100D01*
X136935200Y-41391100D01*
X136695200Y-41721100D01*
G36*
X136695200Y-41721100D02*
G01*
X136455201Y-41391100D01*
X136935200Y-41391100D01*
X136695200Y-41721100D01*
G37*
%TO.C,U2*%
X139268200Y-33959601D02*
X137318200Y-33959600D01*
X139268200Y-33959601D02*
X141218200Y-33959600D01*
X139268200Y-39079599D02*
X137318200Y-39079600D01*
X139268200Y-39079599D02*
X141218200Y-39079600D01*
X136568200Y-34054600D02*
X136328201Y-33724600D01*
X136808200Y-33724600D01*
X136568200Y-34054600D01*
G36*
X136568200Y-34054600D02*
G01*
X136328201Y-33724600D01*
X136808200Y-33724600D01*
X136568200Y-34054600D01*
G37*
D13*
%TO.C,U3*%
X146233000Y-40250000D02*
X146233000Y-40355000D01*
X146233000Y-40250000D02*
X146338000Y-40250000D01*
X146233000Y-47250000D02*
X146233000Y-47145000D01*
X146233000Y-47250000D02*
X146338000Y-47250000D01*
X153233000Y-40250000D02*
X153128000Y-40250000D01*
X153233000Y-40250000D02*
X153233000Y-40355000D01*
X153233000Y-47250000D02*
X153128000Y-47250000D01*
X153233000Y-47250000D02*
X153233000Y-47145000D01*
D14*
X143993000Y-40950000D02*
G75*
G02*
X143792998Y-40950000I-100001J0D01*
G01*
X143792998Y-40950000D02*
G75*
G02*
X143993000Y-40950000I100001J0D01*
G01*
D12*
%TO.C,UART*%
X154957000Y-59824001D02*
X154957000Y-62583999D01*
X162687000Y-59824000D02*
X154957000Y-59824001D01*
X162687000Y-59824000D02*
X162687000Y-62584000D01*
X162687000Y-62584000D02*
X154957000Y-62583999D01*
X163957000Y-59824001D02*
X165337000Y-59824000D01*
X165337000Y-59824000D02*
X165336999Y-61204000D01*
%TO.C,D1*%
X156343001Y-33753000D02*
X156343001Y-35673000D01*
X156343001Y-35673000D02*
X159028000Y-35673000D01*
X159028000Y-33753000D02*
X156343001Y-33753000D01*
%TO.C,I2C*%
X163516800Y-54508400D02*
X163516801Y-46778400D01*
X166276799Y-46778400D02*
X163516801Y-46778400D01*
X166276799Y-55778400D02*
X166276800Y-57158400D01*
X166276800Y-54508400D02*
X163516800Y-54508400D01*
X166276800Y-54508400D02*
X166276799Y-46778400D01*
X166276800Y-57158400D02*
X164896800Y-57158399D01*
%TO.C,C3*%
X152926747Y-56415000D02*
X153449253Y-56415000D01*
X152926747Y-57885000D02*
X153449253Y-57885000D01*
%TO.C,DIO*%
X129811000Y-62529000D02*
X129811001Y-61149000D01*
X131191000Y-62528999D02*
X129811000Y-62529000D01*
X132461000Y-59769000D02*
X152891000Y-59769000D01*
X132461000Y-62529000D02*
X132461000Y-59769000D01*
X132461000Y-62529000D02*
X152891000Y-62529000D01*
X152891000Y-62529000D02*
X152891000Y-59769000D01*
%TO.C,C4*%
X157746747Y-40260600D02*
X158269253Y-40260600D01*
X157746747Y-41730600D02*
X158269253Y-41730600D01*
%TO.C,R3*%
X152934936Y-33933000D02*
X153389064Y-33933000D01*
X152934936Y-35403000D02*
X153389064Y-35403000D01*
%TO.C,Y1*%
X147455600Y-54285600D02*
X154825600Y-54285600D01*
X154825600Y-50565600D02*
X147455600Y-50565600D01*
X154825600Y-54285600D02*
X154825600Y-50565600D01*
%TO.C,R7*%
X157760936Y-37212600D02*
X158215064Y-37212600D01*
X157760936Y-38682600D02*
X158215064Y-38682600D01*
%TO.C,R2*%
X149477464Y-33910600D02*
X149023336Y-33910600D01*
X149477464Y-35380600D02*
X149023336Y-35380600D01*
%TO.C,D2*%
X127779800Y-36415001D02*
X127779800Y-39100000D01*
X129699800Y-36415001D02*
X127779800Y-36415001D01*
X129699800Y-39100000D02*
X129699800Y-36415001D01*
D13*
%TO.C,U4*%
X137395200Y-49397600D02*
X141395200Y-49397600D01*
X137395200Y-54437600D02*
X141395200Y-54437600D01*
D14*
X135050200Y-49422600D02*
G75*
G02*
X134850200Y-49422600I-100000J0D01*
G01*
X134850200Y-49422600D02*
G75*
G02*
X135050200Y-49422600I100000J0D01*
G01*
D12*
%TO.C,VCC*%
X128083800Y-41526800D02*
X128083800Y-46826800D01*
X128193800Y-41526800D02*
X128083800Y-41526800D01*
X128193800Y-41526800D02*
X128193800Y-44176800D01*
X128193800Y-44176800D02*
X130843800Y-44176800D01*
X129463800Y-41526800D02*
X130843800Y-41526800D01*
X130843800Y-41526800D02*
X130843800Y-42906800D01*
X130843800Y-44176800D02*
X130843800Y-46826800D01*
X130843800Y-46826800D02*
X128083800Y-46826800D01*
%TO.C,C2*%
X148310547Y-56415000D02*
X148833053Y-56415000D01*
X148310547Y-57885000D02*
X148833053Y-57885000D01*
%TO.C,R6*%
X131141800Y-38327064D02*
X131141800Y-37872936D01*
X132611800Y-38327064D02*
X132611800Y-37872936D01*
%TD*%
M02*
